{"glyphs":{"0":{"ha":674,"x_min":-31,"x_max":715,"o":"m 124 497 q 256 615 185 568 q 394 676 328 661 q 517 683 460 690 q 611 642 574 676 q 657 554 649 608 q 688 549 668 551 q 686 392 715 496 q 594 188 657 289 q 437 8 532 88 q 251 -81 342 -72 q 40 -1 110 -92 q -8 230 -31 89 q 124 497 15 371 m 296 488 q 217 326 233 418 q 236 174 200 235 q 347 128 272 114 q 452 223 392 136 q 532 406 513 310 q 482 392 494 389 q 456 494 486 454 q 381 534 426 535 q 296 488 335 533 z "},"1":{"ha":472,"x_min":19,"x_max":511,"o":"m 285 686 q 427 719 349 724 q 511 658 506 714 q 340 258 418 479 q 258 -67 263 36 q 108 -110 204 -126 q 81 -101 83 -106 l 90 -100 q 165 371 115 169 q 107 315 146 351 q 43 372 67 321 q 29 482 19 422 q 244 610 106 488 q 285 686 261 647 z "},"2":{"ha":622,"x_min":-167,"x_max":692,"o":"m 288 94 q 508 103 422 125 q 488 -8 525 68 q 394 -115 450 -85 q 227 -62 294 -75 q 83 -60 160 -50 q -114 -90 -39 -117 q -146 -29 -167 -72 q -132 -8 -140 -19 q -69 41 -107 22 q -6 64 -31 60 q 60 72 19 68 q 278 237 185 150 q 406 388 371 324 q 418 479 442 453 q 391 492 408 490 q 349 483 374 493 q 294 450 324 472 q 226 388 264 428 q 149 297 189 349 q 70 351 106 303 q 63 475 35 400 q 231 618 143 560 q 394 700 318 676 q 531 715 469 724 q 625 661 593 706 q 590 402 692 568 q 288 94 489 236 z "},"3":{"ha":642,"x_min":-51,"x_max":717,"o":"m 183 715 q 531 671 397 667 q 638 713 593 707 q 715 679 715 722 q 657 601 715 640 q 551 564 610 571 q 542 562 549 563 q 532 561 535 561 q 436 468 468 500 q 550 432 507 465 q 594 333 593 399 q 518 131 596 239 q 325 -44 440 24 q 114 -100 210 -112 q 11 -56 51 -90 q -40 22 -29 -22 q -51 106 -51 65 q -37 176 -50 146 q 51 237 -3 210 q 144 268 106 264 q 192 247 183 272 q 147 116 153 168 q 156 45 140 64 q 199 28 171 26 q 301 98 246 31 q 358 265 357 165 q 301 342 360 315 l 276 326 q 157 315 197 286 q 153 378 126 339 q 249 439 179 417 l 267 442 q 361 533 300 475 q 121 511 160 499 q 125 601 110 550 q 160 685 140 653 q 183 715 179 717 z "},"4":{"ha":657,"x_min":-103,"x_max":744,"o":"m 465 628 q 349 440 425 567 q 233 256 272 313 q 281 256 250 257 q 321 254 313 254 q 528 726 418 585 q 669 747 593 761 q 743 672 744 732 q 504 219 611 458 q 585 181 560 200 q 565 119 586 151 q 522 67 543 86 q 499 50 500 49 l 443 69 q 400 -72 413 -7 q 229 -93 335 -137 q 232 -94 231 -93 q 281 108 263 42 q 124 124 189 124 q 6 46 64 67 q -82 64 -61 22 q -56 158 -103 106 q 19 214 -28 190 q 92 359 58 279 q 140 487 125 439 q 154 542 156 535 q 288 632 211 601 q 415 659 364 663 q 465 628 467 656 z "},"5":{"ha":619,"x_min":-54,"x_max":653,"o":"m 599 714 q 642 646 631 696 q 636 535 653 596 q 469 499 581 504 q 274 511 358 494 q 265 446 271 479 q 281 449 272 447 q 302 453 290 451 q 321 457 314 456 q 583 372 543 494 q 529 136 615 276 q 325 -64 447 3 q 221 -101 272 -93 q 8 -35 69 -124 q -18 196 -54 54 q 47 245 13 225 q 121 274 82 265 q 190 263 160 282 q 178 234 190 261 q 156 172 167 207 q 141 102 144 138 q 159 46 138 67 q 228 31 181 25 q 314 68 274 35 q 371 144 354 101 q 384 229 388 188 q 338 299 381 271 q 218 322 294 326 q 158 284 194 289 q 98 299 122 279 q 78 349 74 318 q 147 415 79 386 q 136 547 143 475 l 129 551 q 88 640 68 593 q 151 679 104 679 q 217 654 185 679 l 232 639 q 599 714 415 658 z "},"6":{"ha":597,"x_min":-56,"x_max":611,"o":"m 556 508 q 568 510 567 507 l 561 514 q 501 524 540 522 q 399 509 463 526 q 283 451 335 492 l 278 446 q 556 431 488 524 q 553 224 610 358 q 396 17 503 110 q 265 -60 335 -36 q 135 -77 194 -85 q 28 -42 75 -69 q -37 39 -18 -14 q -39 157 -56 92 q 29 324 -15 243 q 146 489 74 406 q 331 642 218 572 q 583 753 443 711 q 604 678 599 717 q 600 593 610 639 q 561 514 590 547 l 556 508 m 163 249 q 163 90 131 144 q 251 54 194 35 q 329 161 300 69 q 333 306 361 257 q 283 329 317 333 q 163 249 211 318 z "},"7":{"ha":543,"x_min":-46,"x_max":746,"o":"m 540 675 q 706 697 647 732 q 726 629 746 674 q 583 547 699 568 q 337 244 471 439 q 153 -82 203 50 q 33 -72 96 -103 q -46 21 -31 -42 q 119 233 -24 74 q 414 528 261 392 q 177 532 285 521 q 42 568 69 543 q 114 676 57 613 q 208 754 171 740 q 540 675 378 667 z "},"8":{"ha":639,"x_min":-82,"x_max":656,"o":"m 433 713 q 656 646 575 719 q 650 634 654 646 q 636 601 646 622 q 615 564 626 581 q 624 554 615 563 q 542 451 596 489 q 636 355 617 418 q 603 195 656 292 q 418 -11 550 99 q 164 -136 292 -117 q -23 -81 36 -156 q -28 131 -82 -7 q 157 354 25 261 q 132 435 133 390 q 157 527 131 479 q 222 615 183 575 q 317 683 261 656 q 433 713 374 710 m 265 299 q 150 139 164 232 q 190 40 140 67 q 272 36 225 24 q 376 90 332 51 q 433 172 421 129 q 406 251 446 214 q 275 299 367 288 l 265 299 m 389 485 q 500 557 461 524 q 447 594 493 585 q 346 571 383 608 q 346 507 314 538 q 389 485 361 493 z "},"9":{"ha":583,"x_min":-14,"x_max":624,"o":"m 103 26 q 292 179 183 61 q 318 197 313 194 q 40 213 110 119 q 44 419 -14 285 q 201 626 94 533 q 358 710 278 692 q 497 703 439 728 q 590 619 556 679 q 614 481 624 560 q 485 155 593 313 q 243 -106 378 -3 q 141 -72 183 -104 q 103 26 99 -40 m 314 315 q 410 365 367 322 q 435 496 439 442 q 406 576 432 550 q 346 592 381 603 q 267 482 297 574 q 265 338 236 385 q 314 315 281 310 z "}," ":{"ha":414,"x_min":0,"x_max":0,"o":""},"!":{"ha":303,"x_min":-96,"x_max":411,"o":"m 79 260 q 147 192 114 233 q 190 108 179 151 q 124 66 176 114 q 44 -24 71 18 q -37 18 4 -11 q -96 85 -79 47 q -31 178 -76 129 q 79 260 15 226 m 51 289 q 48 379 44 311 q 59 524 51 447 q 96 717 67 601 q 172 951 125 833 q 303 963 228 979 q 411 899 378 946 q 260 634 344 808 q 147 318 176 460 q 102 291 131 301 q 51 289 74 281 z "},"\"":{"ha":499,"x_min":31,"x_max":539,"o":"m 539 849 q 441 715 494 831 q 396 521 388 599 q 338 491 382 497 q 268 494 293 485 q 257 521 265 493 q 242 603 249 549 q 235 714 235 657 q 193 521 183 592 q 133 491 178 497 q 65 494 89 485 q 49 546 60 494 q 34 678 38 597 q 51 858 31 758 q 114 895 81 881 q 198 910 147 910 q 292 882 249 911 q 539 849 432 961 z "},"#":{"ha":758,"x_min":-69,"x_max":792,"o":"m 672 554 q 665 524 667 535 q 781 503 725 518 q 782 424 792 454 q 742 356 772 393 q 626 369 700 363 q 572 197 614 324 q 668 179 625 192 q 670 97 678 122 q 632 33 663 72 q 508 47 592 40 q 460 -46 476 -19 q 372 -62 397 -67 q 317 -31 346 -57 q 334 8 321 -21 q 354 54 347 36 q 309 53 353 54 q 243 50 265 51 q 193 -46 214 -12 q 105 -62 131 -67 q 50 -31 79 -57 q 63 -1 54 -22 q 76 29 72 19 q -40 1 22 19 q -34 108 -69 54 q 64 196 1 161 q 99 199 69 196 q 144 204 129 201 q 193 354 164 258 q 69 325 129 344 q 77 431 42 378 q 174 519 113 485 l 228 524 q 238 633 235 560 q 349 638 307 663 q 406 554 390 613 l 401 535 q 496 535 451 538 q 504 633 504 588 q 617 637 574 663 q 672 554 661 611 m 308 211 q 415 211 364 213 q 465 378 435 264 q 360 374 414 378 q 308 211 353 347 z "},"$":{"ha":883,"x_min":-106,"x_max":958,"o":"m 690 818 q 811 824 769 844 q 853 763 853 804 q 804 707 846 756 q 949 661 874 693 q 928 611 958 649 q 844 538 897 574 q 750 499 792 503 q 706 575 744 547 q 613 422 650 490 q 671 401 654 407 q 726 378 688 394 q 781 349 764 361 q 821 315 797 336 q 851 271 844 293 q 858 218 858 249 q 843 153 857 188 q 647 -83 786 13 q 342 -214 507 -178 q 337 -240 340 -225 q 331 -267 333 -256 q 328 -286 329 -278 q 284 -316 308 -304 q 234 -324 260 -328 q 194 -296 208 -321 q 207 -233 199 -262 q -26 -174 53 -240 q -49 18 -106 -107 q 113 161 -3 118 q 342 179 228 204 q 390 288 386 279 q 331 318 357 303 q 283 356 306 333 q 249 405 260 379 q 239 465 238 431 q 258 539 240 500 q 393 665 292 615 q 622 721 494 714 q 690 818 650 763 m 174 -4 q 189 -31 168 -21 q 258 -43 210 -40 l 286 38 q 215 28 246 40 q 174 -4 183 17 m 390 -29 q 393 -46 389 -42 q 400 -29 396 -42 l 390 -29 m 461 124 q 531 18 511 83 q 615 86 588 46 q 638 136 636 114 q 623 176 640 158 q 581 208 606 194 q 514 238 557 221 l 461 124 m 465 519 q 486 479 464 497 q 517 538 494 494 q 551 601 540 581 q 465 519 467 583 z "},"%":{"ha":799,"x_min":-33,"x_max":881,"o":"m 739 694 q 847 646 814 686 q 869 568 881 606 q 643 400 772 507 q 719 313 707 375 l 740 308 q 728 149 768 256 q 601 -48 688 43 q 428 -147 514 -139 q 292 -108 343 -154 q 235 13 242 -62 q 92 -157 139 -90 q 17 -158 60 -171 q -33 -101 -26 -144 q 150 144 35 8 q 51 233 79 165 q 44 390 22 300 q 132 558 65 479 q 252 655 186 619 q 373 694 318 690 q 469 673 428 697 q 519 600 510 649 q 531 598 524 600 q 542 596 539 596 q 554 551 551 578 q 739 694 681 661 m 263 543 q 221 479 236 515 q 204 410 206 443 q 210 349 203 376 q 238 307 218 322 q 288 294 258 292 q 383 393 368 378 q 419 479 407 436 q 386 471 394 469 q 349 567 394 542 q 263 543 303 593 m 432 213 q 410 67 392 135 q 493 11 428 -1 q 563 72 522 15 q 619 193 603 128 q 589 185 596 183 q 568 263 590 235 q 513 288 546 290 l 432 213 z "},"&":{"ha":1240,"x_min":-178,"x_max":1332,"o":"m 1293 550 q 1330 457 1328 514 q 1312 353 1332 400 q 1265 278 1292 306 q 822 244 1050 231 q 761 146 788 183 q 1142 122 963 92 q 1111 -18 1147 69 q 990 -160 1075 -106 q 818 -117 922 -157 q 611 -11 714 -78 q 358 -170 493 -111 q 95 -229 222 -229 q -106 -154 -32 -229 q -172 -26 -167 -93 q -144 97 -178 40 q -43 211 -111 153 q 91 311 25 269 q 238 394 157 353 q 247 604 206 507 q 392 757 289 701 q 632 807 494 813 q 818 706 788 799 q 767 528 846 622 q 553 392 689 435 q 438 347 507 376 q 453 331 447 338 q 632 194 518 249 q 688 267 671 242 q 619 307 626 283 q 701 428 642 385 q 1004 440 793 386 q 1293 550 1215 494 m 157 17 q 310 -13 221 -28 q 496 69 399 1 q 351 200 407 142 q 293 272 303 258 q 172 178 217 224 q 120 90 128 132 q 157 17 113 47 m 401 474 q 429 488 414 479 q 449 497 444 496 q 568 603 564 560 q 535 632 569 625 q 451 592 496 640 q 401 474 406 543 z "},"'":{"ha":294,"x_min":29,"x_max":335,"o":"m 335 849 q 238 714 292 831 q 193 521 183 597 q 133 491 178 497 q 65 494 89 485 q 49 545 60 493 q 33 678 38 597 q 51 858 29 758 q 126 901 88 885 q 225 908 165 917 q 335 849 285 900 z "},"(":{"ha":571,"x_min":36,"x_max":761,"o":"m 513 -217 q 456 -284 504 -253 q 358 -314 407 -315 q 83 53 131 -140 q 182 458 36 246 q 669 879 328 669 q 731 852 707 881 q 761 789 754 824 q 559 609 654 713 q 401 388 464 506 q 316 158 338 269 q 343 -55 294 46 q 513 -217 392 -156 z "},")":{"ha":572,"x_min":-189,"x_max":536,"o":"m 58 781 q 115 848 65 815 q 215 879 165 881 q 489 511 442 704 q 390 107 536 318 q -97 -314 243 -104 q -158 -287 -135 -315 q -189 -225 -182 -260 q 14 -42 -82 -149 q 174 186 110 65 q 258 420 238 307 q 231 631 279 533 q 58 781 182 728 z "},"*":{"ha":735,"x_min":-25,"x_max":750,"o":"m 414 651 q 387 588 389 643 q 407 476 385 533 q 567 696 476 601 q 610 699 586 697 q 658 690 633 700 q 702 663 682 679 q 735 610 722 646 q 750 528 749 575 q 672 499 728 532 q 561 417 617 467 q 711 392 657 408 q 714 309 722 336 q 675 246 706 282 q 535 263 622 256 q 610 158 585 210 q 581 113 600 135 q 529 67 561 90 q 447 34 497 44 q 335 32 396 24 q 364 58 356 31 q 367 126 372 85 q 347 207 363 167 q 190 -7 285 89 q 135 -9 167 -15 q 76 11 104 -3 q 28 65 47 25 q 7 164 8 106 q 73 183 25 158 q 175 253 121 208 q 3 215 85 240 q 10 322 -25 268 q 107 408 44 375 q 163 413 125 410 q 221 418 200 417 q 146 522 169 474 q 238 621 171 578 q 414 651 304 664 z "},"+":{"ha":811,"x_min":8,"x_max":756,"o":"m 568 554 q 521 369 547 453 q 746 338 651 361 q 748 256 756 282 q 708 192 740 229 q 472 213 589 213 q 356 -46 413 50 q 267 -62 293 -67 q 213 -29 242 -57 q 311 207 264 75 q 36 160 147 194 q 44 266 8 213 q 140 354 79 319 q 360 371 250 368 q 400 633 401 518 q 481 649 446 657 q 538 616 515 642 q 568 554 560 590 z "},",":{"ha":292,"x_min":-36,"x_max":300,"o":"m 190 260 q 300 117 274 200 q 187 -29 267 42 q 19 -146 107 -100 q -22 -64 -36 -108 q 71 18 35 -22 q 15 85 36 44 q 81 178 35 129 q 190 260 126 226 z "},"-":{"ha":736,"x_min":50,"x_max":650,"o":"m 172 383 q 449 407 318 414 q 649 361 581 400 q 638 261 650 299 q 596 175 626 224 q 456 204 540 196 q 262 194 372 213 q 65 129 151 176 q 85 268 50 197 q 172 383 121 339 z "},".":{"ha":293,"x_min":0,"x_max":288,"o":"m 175 260 q 288 108 265 192 q 220 66 275 115 q 142 -24 165 17 q 60 17 101 -11 q 0 85 19 46 q 66 178 21 129 q 175 260 111 226 z "},"/":{"ha":697,"x_min":-225,"x_max":997,"o":"m 850 897 q 966 856 935 900 q 978 763 997 811 q 556 441 788 653 q 151 26 324 229 q -92 -304 -21 -176 q -149 -319 -119 -317 q -201 -307 -178 -322 q -225 -256 -225 -292 q 3 60 -129 -103 q 258 353 135 224 q 506 600 381 482 q 715 788 632 718 q 850 897 799 858 z "},":":{"ha":293,"x_min":-42,"x_max":329,"o":"m 133 260 q 205 188 171 232 q 246 100 239 144 q 171 60 238 122 q 100 -24 124 15 q 19 17 60 -11 q -42 85 -22 46 q 24 178 -22 129 q 133 260 69 226 m 40 392 q 106 485 60 436 q 215 567 151 533 q 287 495 253 539 q 329 408 321 451 q 293 399 322 418 q 231 345 264 379 q 182 283 199 311 q 101 324 142 296 q 40 392 60 353 z "},";":{"ha":293,"x_min":-71,"x_max":344,"o":"m 149 260 q 214 197 182 236 q 258 118 246 158 q 147 -29 226 40 q -22 -146 68 -99 q -56 -111 -42 -135 q -64 -64 -71 -87 q 31 19 -11 -26 q -25 85 -10 53 q 40 178 -6 129 q 149 260 86 228 m 57 392 q 122 485 76 436 q 232 567 168 533 q 303 495 269 539 q 344 407 338 451 q 269 367 336 429 q 199 283 222 322 q 117 324 158 296 q 57 392 76 353 z "},"<":{"ha":567,"x_min":-7,"x_max":608,"o":"m 269 -62 q 243 61 329 -46 q 54 228 164 158 q 8 254 29 244 q 63 333 -7 267 q 247 478 132 400 q 456 594 361 557 q 564 547 538 582 q 608 422 590 513 q 457 399 561 449 q 258 268 353 349 q 500 49 379 181 q 429 -22 472 -1 q 269 -62 386 -43 z "},"=":{"ha":846,"x_min":-4,"x_max":799,"o":"m 128 299 q 475 315 310 321 q 733 282 640 310 q 735 199 743 225 q 696 136 726 174 q 510 156 619 151 q 265 149 401 161 q 24 104 128 138 q 31 210 -4 157 q 128 299 67 264 m 79 313 q 87 419 51 365 q 183 507 122 472 q 531 524 365 529 q 789 490 696 518 q 790 408 799 433 q 751 344 782 382 q 566 365 675 360 q 320 358 457 369 q 79 313 183 346 z "},">":{"ha":568,"x_min":-42,"x_max":575,"o":"m 299 600 q 324 476 239 583 q 511 308 403 379 q 560 282 538 292 q 506 205 575 271 q 322 60 436 139 q 113 -57 207 -19 q 3 -10 31 -44 q -42 115 -24 25 q 110 140 4 89 q 308 269 215 190 q 65 489 186 358 q 140 560 96 539 q 299 600 183 581 z "},"?":{"ha":556,"x_min":-17,"x_max":658,"o":"m 158 260 q 271 108 247 194 q 204 67 258 115 q 124 -24 150 18 q 44 17 85 -11 q -17 85 3 46 q 49 178 3 129 q 158 260 94 226 m 54 600 q 192 857 46 738 q 460 981 315 957 q 643 924 601 1003 q 657 865 656 897 q 633 740 658 797 q 566 642 607 682 q 476 569 525 603 q 378 506 426 535 q 292 447 331 476 q 234 379 254 417 q 221 297 214 342 q 167 282 194 285 q 113 296 139 279 q 119 428 94 369 q 194 524 144 486 q 295 597 243 563 q 387 676 347 632 q 428 771 426 719 q 382 839 429 835 q 292 793 335 844 q 260 664 246 738 q 158 609 214 629 q 54 600 101 589 z "},"@":{"ha":1072,"x_min":-110,"x_max":1053,"o":"m 617 789 q 935 716 818 799 q 1047 496 1053 633 q 1022 365 1046 431 q 961 244 999 299 q 876 139 924 189 q 778 56 828 89 q 678 1 728 24 q 586 -22 628 -22 q 514 -6 544 -21 q 481 75 483 11 q 379 13 429 29 q 292 5 329 -4 q 228 44 254 14 q 191 117 201 74 q 190 215 181 160 q 231 325 200 269 q 468 558 321 485 q 721 589 615 631 q 721 573 721 585 q 710 536 721 561 q 681 489 699 511 q 732 461 729 503 q 685 332 735 417 q 692 208 675 253 q 758 185 706 163 q 858 292 818 211 q 892 450 896 365 q 806 608 885 549 q 594 668 728 668 q 264 514 419 668 q 93 225 132 383 q 150 -28 51 56 q 382 -85 229 -93 q 493 -70 435 -83 q 560 -47 551 -57 q 561 -156 600 -90 q 376 -186 457 -183 q -24 -31 82 -199 q -43 300 -110 106 q 196 629 22 492 q 617 789 383 776 m 374 300 q 374 226 358 261 q 422 185 389 192 q 496 203 456 178 q 618 447 531 363 q 470 415 536 454 q 374 300 404 375 z "},"A":{"ha":1376,"x_min":-189,"x_max":1464,"o":"m 85 -306 q -90 -281 -1 -328 q -189 -162 -178 -233 q 276 354 -57 42 q 10 313 124 343 q 3 360 3 333 q 24 429 3 386 q 83 513 44 472 q 442 503 189 543 q 1122 986 838 849 q 1183 907 1169 963 l 1196 904 q 1191 896 1194 901 q 1186 888 1188 890 l 1186 881 q 1183 879 1185 881 q 1179 876 1181 878 q 1063 638 1111 761 q 994 415 1015 514 q 978 244 974 317 q 1014 151 982 172 q 1194 192 1083 110 q 1368 418 1304 274 l 1464 356 q 1353 172 1421 253 q 1214 44 1286 90 q 1069 -26 1142 -3 q 933 -45 996 -50 q 829 -12 871 -40 q 793 303 729 56 q 535 353 685 340 q 242 -3 364 172 q 85 -306 121 -178 m 647 465 q 831 422 782 435 q 969 739 882 571 q 647 465 803 617 z "},"B":{"ha":1394,"x_min":46,"x_max":1376,"o":"m 636 -200 q 476 -197 558 -207 q 315 -158 394 -187 q 176 -80 236 -128 q 81 43 115 -32 q 51 210 46 118 q 156 251 85 239 q 281 239 226 264 q 274 94 256 163 q 350 -19 292 26 q 503 -80 408 -64 q 726 -68 599 -96 q 868 -19 810 -50 q 955 47 926 11 q 993 124 983 83 q 992 203 1003 164 q 956 275 981 242 q 896 333 932 308 q 661 336 783 318 q 538 -37 563 151 q 415 -24 486 -60 q 336 65 343 13 q 402 231 349 133 q 517 419 456 328 q 651 647 578 511 q 767 911 724 783 q 901 904 804 928 q 965 871 971 888 l 963 867 q 915 744 949 807 q 814 582 881 682 q 719 436 747 482 q 888 437 810 422 q 1017 487 965 451 q 1100 572 1068 522 q 1136 674 1132 621 q 1117 781 1140 726 q 1042 875 1093 835 q 283 667 813 1054 q 200 728 233 682 q 171 843 167 774 q 350 924 278 893 q 547 993 422 954 q 767 1043 671 1032 q 982 1040 864 1054 q 1200 976 1100 1026 q 1346 816 1315 919 q 1323 605 1376 713 q 1151 424 1269 497 q 1217 313 1201 376 q 1217 185 1232 250 q 1153 55 1201 119 q 1033 -62 1104 -10 q 858 -153 961 -115 q 636 -200 754 -190 z "},"C":{"ha":1156,"x_min":-14,"x_max":1246,"o":"m 211 -87 q -1 286 -14 42 q 171 696 7 490 q 531 972 326 889 q 967 950 779 1074 q 1037 862 1022 914 q 1034 756 1051 810 q 991 652 1017 703 q 945 555 965 601 q 932 485 925 508 q 842 472 899 475 q 722 489 785 468 q 643 550 660 510 q 701 644 657 594 q 785 726 744 693 q 850 794 826 760 q 858 851 874 829 q 769 898 828 893 q 645 877 711 903 q 510 795 579 851 q 388 665 440 739 q 285 446 317 564 q 277 219 253 328 q 388 58 301 111 q 533 17 447 21 q 710 40 619 13 q 888 119 801 68 q 1044 249 974 169 q 1147 418 1114 328 l 1246 357 q 1056 84 1183 203 q 781 -94 928 -35 q 481 -155 635 -154 q 211 -87 326 -156 z "},"D":{"ha":1529,"x_min":44,"x_max":1444,"o":"m 551 -37 q 428 -24 500 -60 q 350 65 357 13 q 416 231 363 133 q 531 419 469 328 q 664 647 592 511 q 779 911 736 783 q 915 904 818 928 q 979 871 985 888 q 975 865 979 868 q 917 724 961 801 q 819 569 872 647 q 711 402 765 490 q 613 199 657 314 q 551 -37 568 83 m 51 210 q 156 251 85 239 q 282 239 226 264 q 353 -21 226 79 q 726 -68 481 -121 q 927 26 835 -46 q 1078 190 1019 97 q 1168 393 1136 283 q 1197 602 1200 503 q 1151 784 1193 701 q 1031 906 1108 867 q 917 938 978 932 q 801 935 856 943 q 680 901 746 926 q 567 851 614 875 q 457 787 519 828 q 365 724 394 746 q 286 667 335 703 q 201 728 235 682 q 171 843 168 774 q 350 924 278 893 q 547 993 422 954 q 767 1043 671 1032 q 982 1040 864 1054 q 1200 976 1100 1026 q 1384 810 1324 915 q 1442 587 1444 704 q 1388 343 1440 469 q 1244 110 1335 217 q 1025 -76 1154 4 q 754 -183 896 -157 q 469 -199 600 -214 q 242 -135 338 -183 q 96 3 147 -86 q 51 210 44 93 z "},"E":{"ha":1135,"x_min":-61,"x_max":1224,"o":"m 144 -103 q -10 25 40 -51 q -54 178 -61 101 q -10 325 -47 254 q 93 445 26 396 q 232 507 160 494 q 199 666 194 592 q 246 799 203 740 q 352 903 289 858 q 497 974 415 949 q 658 1008 578 1000 q 815 1001 738 1017 q 947 950 892 986 q 1022 867 1003 914 q 1031 775 1042 821 q 1003 688 1021 729 q 970 605 985 646 q 961 539 956 564 q 869 525 926 528 q 751 543 813 522 q 672 603 689 564 q 710 676 683 640 q 763 732 738 711 q 812 776 788 753 q 842 813 836 799 q 838 851 849 828 q 767 887 815 882 q 661 869 718 892 q 550 808 604 847 q 457 701 496 768 q 411 554 418 633 q 630 538 557 569 q 683 436 703 507 q 608 367 671 392 q 463 351 546 342 q 319 407 381 360 q 223 295 250 367 q 224 151 196 224 q 333 36 253 78 q 489 3 399 4 q 674 33 579 3 q 859 116 769 64 q 1021 248 949 168 q 1126 418 1093 328 l 1224 357 q 1077 131 1174 233 q 863 -35 981 29 q 617 -133 744 -99 q 365 -159 489 -167 q 144 -103 240 -151 z "},"F":{"ha":1335,"x_min":78,"x_max":1558,"o":"m 1171 268 q 797 349 1086 325 q 524 19 638 182 q 378 -260 411 -143 q 219 -238 300 -282 q 128 -129 139 -194 q 568 358 251 63 q 92 313 269 358 q 94 399 78 343 q 167 513 110 454 q 713 488 292 549 q 1160 826 950 694 q 679 837 947 850 q 182 774 411 824 q 190 888 165 818 q 293 1032 214 957 q 1342 929 567 1094 l 1542 964 q 1558 859 1558 925 q 1531 753 1558 793 q 1350 800 1461 778 q 907 457 1135 674 q 1200 403 1074 429 q 1171 268 1207 319 z "},"G":{"ha":1074,"x_min":-89,"x_max":1101,"o":"m 368 -701 q 305 -644 335 -679 q 274 -574 275 -608 q 418 -86 340 -289 q 88 -121 208 -186 q -50 201 -87 -28 q 167 629 -15 407 q 567 951 349 850 q 1018 950 831 1072 q 1088 861 1074 914 q 1083 755 1101 808 q 1040 651 1065 701 q 996 555 1015 601 q 983 485 976 508 q 893 472 950 475 q 774 489 836 468 q 694 550 711 510 q 752 644 708 594 q 836 726 796 693 q 901 794 876 760 q 908 851 925 829 q 820 898 878 893 q 697 877 763 903 q 561 795 631 851 q 439 665 492 739 q 337 502 382 586 q 262 333 292 418 q 235 180 232 249 q 283 76 239 111 q 366 51 314 53 q 485 78 418 50 q 736 451 607 342 q 947 311 858 432 q 735 94 858 263 q 506 -297 613 -74 q 368 -701 400 -519 z "},"H":{"ha":1465,"x_min":-207,"x_max":1554,"o":"m 63 -340 q -112 -311 -25 -361 q -207 -190 -200 -261 q 128 48 -40 -93 q 428 357 296 189 q 104 313 251 350 q 97 360 97 333 q 118 429 97 386 q 178 513 139 472 q 532 504 286 542 q 715 989 682 743 q 919 946 807 1018 q 711 472 869 749 q 881 432 767 460 q 1285 1003 994 746 q 1369 958 1331 997 q 1428 869 1407 918 q 1229 711 1315 803 q 1100 533 1143 619 q 1039 365 1057 446 q 1033 228 1021 285 q 1078 153 1044 172 q 1273 193 1149 110 q 1458 418 1397 276 l 1554 356 q 1441 172 1511 253 q 1295 44 1371 90 q 1142 -26 1219 -3 q 1000 -45 1065 -50 q 893 -12 935 -40 q 831 107 844 19 q 846 317 818 194 q 638 351 761 340 q 63 -340 385 -53 z "},"I":{"ha":729,"x_min":-115,"x_max":817,"o":"m -37 -176 q -113 -21 -111 -115 q -65 193 -115 74 q 50 438 -14 313 q 177 727 114 563 q 258 1036 240 892 q 497 910 329 1038 q 445 727 486 831 q 356 531 404 624 q 253 340 307 439 q 163 170 200 240 q 110 40 126 100 q 119 -32 94 -19 q 304 -14 178 -79 q 552 177 431 51 q 722 418 674 303 l 817 356 q 667 131 775 253 q 431 -83 560 8 q 173 -210 301 -174 q -37 -176 44 -246 z "},"J":{"ha":1113,"x_min":-174,"x_max":1278,"o":"m 517 -264 q 327 -360 432 -335 q 127 -365 222 -385 q -50 -284 32 -346 q -174 -128 -132 -222 q -112 -10 -168 -61 q 15 63 -57 40 q 211 -110 90 -74 q 451 -67 332 -147 q 718 248 586 28 q 947 801 850 468 q 193 708 693 815 q 199 822 175 753 q 304 968 224 892 q 1003 928 717 983 q 1201 1022 1071 990 q 1261 888 1244 969 q 1254 742 1278 807 q 1081 788 1179 769 q 830 145 975 413 q 517 -264 685 -122 z "},"K":{"ha":1049,"x_min":-139,"x_max":1290,"o":"m 139 -132 q -35 -118 56 -161 q -139 -6 -126 -75 q 15 114 -61 49 q 176 277 90 179 q 328 479 263 375 q 439 717 393 583 q 492 986 485 850 q 699 961 579 1019 q 574 589 681 838 q 869 792 713 656 q 1132 1082 1026 928 q 1199 1011 1158 1078 q 1238 865 1240 944 q 613 468 1133 706 q 874 18 683 269 q 1290 -404 1064 -233 q 1259 -438 1281 -418 q 1202 -482 1238 -458 q 1114 -520 1167 -506 q 1006 -532 1061 -535 q 749 -194 890 -447 q 475 378 607 58 q 139 -132 307 42 z "},"L":{"ha":1015,"x_min":-190,"x_max":1232,"o":"m 1138 -401 q 653 -272 914 -315 q 158 -229 393 -228 q 73 -272 132 -242 q -15 -315 14 -301 q -85 -344 -43 -328 q -160 -368 -126 -360 q -190 -231 -190 -301 q -168 -89 -189 -161 l 93 -76 q 278 201 192 47 q 420 469 364 354 q 549 697 476 583 q 728 897 621 810 q 985 1038 835 983 q 1145 965 1058 1036 q 1213 821 1232 894 q 969 746 1075 794 q 796 641 863 697 q 663 501 729 585 q 549 338 596 417 q 422 144 501 258 q 261 -65 343 31 q 1064 -97 833 -4 q 1132 -225 1110 -162 q 1152 -328 1154 -287 q 1138 -401 1150 -369 z "},"M":{"ha":1721,"x_min":-208,"x_max":1810,"o":"m 57 -343 q -116 -314 -29 -364 q -208 -193 -203 -264 q 78 7 -62 -108 q 357 272 219 122 q 591 609 494 422 q 713 986 688 796 q 843 986 789 1011 q 846 1035 836 1050 q 868 971 854 1022 l 869 969 l 869 967 q 949 515 924 758 q 1514 979 1231 829 l 1540 1003 q 1556 1000 1544 1003 l 1558 1001 q 1562 999 1560 1000 q 1565 997 1564 997 q 1683 869 1638 969 q 1485 711 1571 803 q 1356 533 1399 619 q 1294 365 1313 446 q 1288 228 1276 285 q 1333 153 1300 172 q 1528 193 1404 110 q 1714 418 1653 276 l 1810 356 q 1697 172 1767 253 q 1551 44 1626 90 q 1398 -26 1475 -3 q 1256 -45 1321 -50 q 1149 -12 1190 -40 q 1085 113 1097 21 q 1108 344 1072 206 q 1226 626 1143 483 q 961 344 1089 500 q 897 36 965 97 q 821 -10 857 0 q 760 -3 785 -19 q 723 43 736 13 q 713 121 710 74 q 738 218 717 168 q 803 329 756 261 q 749 638 794 497 q 452 111 631 374 q 57 -343 274 -151 z "},"N":{"ha":1299,"x_min":-208,"x_max":1815,"o":"m 58 -343 q -115 -314 -28 -364 q -208 -193 -201 -264 q 18 -42 -94 -126 q 249 159 131 43 q 462 401 368 275 q 624 679 556 526 q 714 986 693 832 q 871 971 804 1017 l 872 972 q 874 969 872 971 l 874 967 q 892 884 875 956 q 928 713 908 813 q 958 522 947 613 q 1296 854 1114 699 q 1643 1088 1478 1010 q 1736 1019 1689 1071 q 1815 911 1783 968 q 1558 828 1685 886 q 1324 690 1431 769 q 1133 530 1217 610 q 974 361 1049 450 q 897 36 983 111 q 821 -10 857 0 q 760 -3 785 -19 q 723 43 736 13 q 713 121 710 74 q 738 218 717 168 q 786 304 751 250 q 746 626 776 507 q 449 105 626 364 q 58 -343 272 -154 z "},"O":{"ha":1153,"x_min":-14,"x_max":1083,"o":"m 374 57 q 535 38 454 11 q 682 134 617 65 q 789 308 747 203 q 835 522 831 413 q 701 540 757 511 q 638 635 646 569 q 769 685 724 642 q 811 779 815 729 q 765 856 807 829 q 656 875 715 881 q 520 815 596 869 q 376 665 444 761 q 272 442 306 563 q 262 213 239 321 q 374 57 285 104 m 197 -90 q 35 76 85 -32 q -1 305 -14 183 q 74 553 13 426 q 238 778 136 679 q 506 964 360 897 q 783 1014 651 1031 q 1013 838 946 993 q 1017 456 1083 674 q 722 22 940 201 q 447 -136 600 -76 q 329 -132 401 -143 q 197 -90 257 -121 z "},"P":{"ha":1522,"x_min":158,"x_max":1528,"o":"m 619 -337 q 461 -374 553 -386 q 338 -304 369 -362 q 589 317 392 -51 q 1004 917 786 685 q 1073 896 1040 913 q 1117 865 1106 879 q 786 344 924 639 q 956 343 878 333 q 1095 384 1035 353 q 1200 457 1156 415 q 1266 551 1244 499 q 1289 656 1288 604 q 1265 760 1290 708 q 1189 851 1239 811 q 1092 908 1143 888 q 986 928 1042 928 q 881 923 931 928 q 768 893 831 918 q 661 850 706 868 q 552 793 617 832 q 454 734 488 754 q 358 673 421 714 q 276 619 296 632 q 191 688 224 638 q 161 813 158 739 q 303 877 247 853 q 458 939 360 901 q 629 996 556 976 q 803 1032 703 1015 q 985 1047 903 1049 q 1161 1025 1068 1044 q 1336 964 1254 1006 q 1511 733 1493 886 q 1410 449 1528 586 q 1031 239 1272 285 q 738 232 892 211 q 619 -337 600 -106 z "},"Q":{"ha":1146,"x_min":-28,"x_max":1121,"o":"m 1018 -469 q 526 -100 739 -381 q 446 -136 501 -114 q 326 -132 399 -143 q 196 -90 254 -121 q 10 144 49 -14 q 36 474 -28 303 q 236 778 100 646 q 503 965 357 899 q 783 1014 650 1031 q 921 958 863 1003 q 1008 844 979 914 q 1046 688 1038 774 q 1030 506 1054 603 q 960 317 1006 410 q 835 133 915 224 q 653 -28 756 42 q 1081 -194 835 -186 q 1099 -355 1121 -265 q 1018 -469 1078 -444 m 365 165 q 397 233 375 200 q 433 271 419 265 q 557 72 488 160 q 731 283 653 136 q 833 547 808 429 q 842 743 858 671 q 764 856 825 815 q 656 875 715 881 q 519 815 596 869 q 374 665 443 761 q 269 442 303 563 q 260 213 236 322 q 374 57 283 104 q 435 38 407 39 q 365 165 389 117 z "},"R":{"ha":1308,"x_min":115,"x_max":1493,"o":"m 390 -212 q 216 -198 306 -240 q 115 -86 126 -156 q 551 357 382 103 q 413 422 465 374 q 408 532 360 471 q 511 572 449 572 q 651 536 574 571 q 743 907 733 721 q 950 879 839 944 q 799 446 929 736 l 818 428 q 1006 481 926 432 q 1116 597 1085 529 q 1130 742 1147 665 q 1043 872 1113 818 q 286 665 811 1053 q 201 725 236 678 q 171 842 167 772 q 350 922 278 892 q 547 992 422 953 q 767 1042 671 1031 q 982 1039 864 1053 q 1200 975 1100 1025 q 1312 881 1272 939 q 1355 758 1351 822 q 1330 626 1358 694 q 1247 501 1301 558 q 1108 399 1193 443 q 921 336 1022 354 q 1141 -44 981 168 q 1493 -401 1301 -257 q 1406 -477 1475 -435 q 1247 -514 1338 -519 q 1015 -202 1143 -437 q 772 325 888 33 l 742 326 q 390 -212 567 -28 z "},"S":{"ha":1088,"x_min":-78,"x_max":1176,"o":"m 701 -228 q 574 -308 646 -279 q 429 -344 503 -337 q 281 -335 356 -350 q 143 -286 207 -319 q 28 -199 79 -253 q -50 -78 -22 -144 q -76 74 -78 -12 q -40 256 -75 161 q 99 283 24 289 q 233 246 175 278 q 165 4 128 149 q 292 -182 194 -111 q 506 -214 401 -262 q 590 -144 553 -193 q 646 -10 643 -78 q 623 112 649 58 q 558 256 597 165 q 504 429 519 347 q 508 598 488 515 q 576 744 529 681 q 688 855 622 807 q 823 925 753 903 q 965 942 893 947 q 1092 900 1036 938 q 1164 808 1151 861 q 1158 712 1176 756 q 1120 619 1139 668 q 1108 547 1101 571 q 1031 533 1085 535 q 922 550 976 532 q 854 603 868 568 q 899 679 868 643 q 956 733 931 715 q 997 774 981 750 q 996 813 1013 797 q 881 829 963 856 q 735 711 788 799 q 726 461 668 599 q 817 194 793 310 q 817 -34 842 78 q 701 -228 792 -146 z "},"T":{"ha":1032,"x_min":165,"x_max":1585,"o":"m 494 -321 q 333 -328 421 -356 q 225 -237 244 -300 q 532 306 314 -18 q 972 839 750 629 q 182 774 543 853 q 190 888 165 818 q 293 1032 214 957 q 1157 967 547 1090 q 1522 1003 1217 978 q 1531 753 1585 822 q 1144 828 1385 807 q 707 263 896 608 q 494 -321 518 -82 z "},"U":{"ha":1229,"x_min":-107,"x_max":1318,"o":"m -28 -50 q -97 40 -86 -14 q -76 158 -107 93 q 3 297 -46 224 q 111 456 53 371 q 218 626 169 542 q 293 806 267 710 q 307 988 319 903 q 538 942 474 1013 q 515 803 540 878 q 447 665 489 729 q 356 531 406 600 q 264 407 307 461 q 192 299 221 353 q 160 211 163 244 q 193 150 158 178 q 319 194 232 126 q 589 435 407 263 q 683 525 650 494 q 1049 1003 806 789 q 1133 958 1094 997 q 1192 869 1171 918 q 993 711 1079 803 q 864 533 907 619 q 803 365 821 446 q 797 228 785 285 q 842 153 808 172 q 1037 193 913 110 q 1222 418 1161 276 l 1318 356 q 1205 172 1275 253 q 1059 44 1135 90 q 906 -26 983 -3 q 764 -45 829 -50 q 657 -12 699 -40 q 597 100 611 18 q 606 297 582 182 q 485 181 540 232 q 369 80 429 129 q 256 -1 308 31 q 151 -53 203 -33 q 55 -73 100 -74 q -28 -50 10 -72 z "},"V":{"ha":1136,"x_min":3,"x_max":1389,"o":"m 3 -106 l 14 -87 l 14 -82 l 19 -79 q 213 476 147 138 q 232 863 264 750 q 189 906 218 910 q 299 1011 225 958 q 450 1069 372 1064 q 505 875 524 1038 q 410 492 486 713 q 226 56 335 271 q 791 585 526 275 q 1115 1103 1056 896 q 1290 1078 1201 1125 q 1389 961 1378 1032 q 811 341 1233 719 q 78 -189 389 -37 q 17 -108 31 -164 l 3 -106 z "},"W":{"ha":1553,"x_min":1,"x_max":1915,"o":"m 1 -106 l 13 -87 l 13 -82 l 18 -79 q 211 481 146 139 q 232 865 264 756 q 190 907 218 911 q 296 1010 222 957 q 444 1069 369 1064 q 503 877 521 1039 q 411 497 486 715 q 229 64 336 279 q 606 488 453 244 q 829 964 758 731 q 940 963 890 979 q 1015 910 989 947 q 1055 853 1042 888 q 1065 774 1068 819 q 1052 683 1061 728 q 1017 572 1043 638 q 968 456 990 507 q 905 328 946 406 q 836 198 864 250 q 761 63 808 146 q 1321 590 1060 282 q 1642 1103 1582 897 q 1816 1078 1728 1125 q 1915 961 1904 1032 q 1338 341 1760 719 q 606 -189 917 -37 q 542 -108 558 -164 l 528 -106 q 533 -97 529 -103 q 538 -89 536 -92 l 538 -82 q 541 -79 539 -81 q 544 -78 543 -78 q 796 485 694 174 q 78 -189 431 -18 q 15 -108 29 -162 l 1 -106 z "},"X":{"ha":1251,"x_min":-208,"x_max":1340,"o":"m 6 -322 q -140 -269 -71 -324 q -199 -168 -208 -214 q -69 -102 -133 -143 q 70 7 -6 -61 q 192 120 146 75 q 332 265 238 165 q 464 403 426 364 q 499 907 414 650 q 615 919 561 928 q 717 882 669 910 q 613 547 617 713 q 1194 917 907 822 q 1282 832 1274 886 q 638 385 908 678 q 879 154 701 204 q 1073 197 967 128 q 1244 418 1179 267 l 1340 356 q 1230 176 1297 256 q 1089 49 1163 96 q 940 -24 1015 1 q 802 -45 865 -49 q 697 -14 739 -42 q 600 83 650 17 q 513 242 550 150 q 401 101 486 208 q 274 -55 317 -6 q 156 -183 232 -104 q 6 -322 79 -262 z "},"Y":{"ha":964,"x_min":-106,"x_max":1143,"o":"m -26 -50 q -95 40 -85 -14 q -76 158 -106 93 q 3 298 -46 224 q 111 458 53 372 q 217 627 169 543 q 292 807 265 711 q 306 988 318 903 q 538 942 475 1013 q 515 803 540 878 q 447 665 489 729 q 356 531 406 600 q 263 407 307 461 q 190 299 219 353 q 160 211 161 244 q 193 150 158 178 q 317 193 232 126 q 579 429 403 260 q 925 908 757 753 q 1143 781 1057 904 q 866 489 1032 704 q 546 -1 700 274 q 325 -492 392 -276 q 263 -437 290 -472 q 238 -361 235 -401 q 435 133 329 -100 q -26 -50 121 -139 z "},"Z":{"ha":1206,"x_min":-118,"x_max":1408,"o":"m 658 -14 q 585 48 625 8 q 518 113 544 88 q 449 151 492 138 q 354 154 406 165 q 93 -75 214 22 q -50 -21 18 -76 q -110 79 -118 35 q 143 222 10 128 q 379 410 276 317 q 624 615 482 503 q 889 799 765 728 q 301 706 681 786 q 307 820 282 750 q 413 967 332 890 q 1114 925 831 982 q 1325 996 1200 965 q 1363 739 1408 882 q 1147 790 1258 775 q 894 640 1022 733 q 694 479 765 546 q 475 269 622 413 q 672 217 550 267 q 842 154 793 167 q 1030 200 926 129 q 1199 418 1133 271 l 1294 356 q 1188 181 1254 260 q 1049 53 1122 101 q 902 -20 976 6 q 764 -44 828 -46 q 658 -14 700 -42 z "},"[":{"ha":322,"x_min":-4185,"x_max":-15,"o":"m -4161 -308 q -2594 -124 -3751 -171 q -29 -139 -1436 -78 q -19 -171 -15 -150 q -31 -206 -24 -192 q -50 -237 -39 -221 q -62 -257 -61 -254 q -4037 -642 -3192 -161 q -4006 -560 -4010 -593 q -4019 -511 -4003 -526 q -4061 -483 -4036 -496 q -4114 -462 -4086 -471 q -4160 -435 -4142 -454 q -4181 -389 -4178 -417 q -4161 -308 -4185 -361 z "},"\\":{"ha":869,"x_min":144,"x_max":728,"o":"m 144 753 q 219 832 176 804 q 294 859 263 860 q 350 846 326 858 q 399 424 338 660 q 553 9 461 189 q 728 -244 646 -171 q 685 -328 718 -292 q 606 -360 653 -365 q 399 -53 492 -231 q 256 287 307 125 q 176 569 204 449 q 144 753 149 689 z "},"]":{"ha":322,"x_min":-2674,"x_max":-22,"o":"m -2651 -281 q -2192 -166 -2496 -210 q -1556 -109 -1887 -122 q -897 -97 -1224 -96 q -339 -112 -571 -99 q -35 -140 -107 -125 q -29 -186 -22 -165 q -52 -231 -36 -207 q -68 -258 -68 -254 q -451 -230 -236 -237 q -942 -237 -665 -222 q -1487 -292 -1219 -253 q -2035 -413 -1756 -331 q -2528 -614 -2314 -496 q -2495 -532 -2499 -565 q -2508 -484 -2492 -499 q -2550 -456 -2525 -469 q -2603 -435 -2575 -443 q -2649 -408 -2631 -426 q -2670 -361 -2667 -389 q -2651 -281 -2674 -333 z "},"^":{"ha":467,"x_min":-3,"x_max":444,"o":"m -1 608 q 203 803 129 696 q 322 753 306 786 q 344 690 322 719 q 444 589 365 660 q 396 518 429 551 q 324 478 363 485 q 249 638 306 521 q 71 476 182 572 q 19 533 42 497 q -1 608 -3 568 z "},"_":{"ha":322,"x_min":-3415,"x_max":-31,"o":"m -3096 -176 q -2814 -241 -3011 -229 q -2366 -232 -2617 -253 q -1808 -183 -2115 -211 q -1198 -129 -1501 -156 q -591 -103 -894 -103 q -43 -140 -287 -104 q -37 -185 -31 -164 q -60 -230 -44 -206 q -76 -258 -76 -254 q -599 -217 -310 -218 q -1158 -247 -887 -217 q -1722 -319 -1428 -278 q -2260 -406 -2017 -361 q -2738 -480 -2503 -450 q -3126 -514 -2974 -510 q -3392 -481 -3279 -518 q -3330 -306 -3415 -404 q -3096 -176 -3244 -207 z "},"`":{"ha":378,"x_min":6,"x_max":354,"o":"m 346 729 q 340 677 354 708 q 303 640 326 646 q 126 676 211 647 q 6 754 42 706 q 67 864 14 814 q 176 904 121 914 q 346 729 204 810 z "},"a":{"ha":863,"x_min":-110,"x_max":951,"o":"m 143 -6 q 30 -16 78 -25 q -51 19 -18 -7 q -97 92 -85 46 q -106 190 -110 138 q -73 304 -101 242 q 4 426 -44 367 q 162 547 75 513 q 321 560 249 581 q 431 478 393 540 q 465 525 447 504 q 563 485 493 525 q 640 410 633 446 q 611 346 629 386 q 577 272 586 293 q 560 224 568 250 q 557 186 553 199 q 574 161 561 174 q 640 160 594 142 q 747 247 686 179 q 857 418 808 315 l 951 356 q 895 244 931 303 q 808 127 860 186 q 686 31 757 68 q 542 -6 615 -7 q 428 38 474 -3 q 365 144 383 78 q 143 -6 253 28 m 165 147 q 368 333 242 165 l 375 360 q 356 411 369 392 q 322 436 343 431 q 269 423 301 442 q 199 361 238 404 q 94 174 88 239 q 165 147 100 128 z "},"b":{"ha":693,"x_min":-50,"x_max":781,"o":"m 158 -6 q -37 206 -25 17 q 58 622 -50 394 q 321 1025 165 849 q 444 976 371 1031 q 519 885 517 921 q 327 649 410 760 q 198 454 244 538 q 131 306 151 371 q 116 202 110 240 q 153 149 122 164 q 254 167 196 128 q 347 278 313 206 q 275 339 306 299 q 293 524 240 440 q 400 585 338 590 q 501 501 461 579 q 522 357 525 454 q 686 417 654 332 l 781 356 q 678 256 760 283 q 494 243 596 229 q 158 -6 365 -31 z "},"c":{"ha":711,"x_min":-96,"x_max":800,"o":"m 411 25 q 253 -15 333 -8 q 106 -3 172 -21 q -10 56 39 15 q -77 153 -58 97 q -76 285 -96 210 q 10 439 -56 360 q 131 540 64 504 q 259 577 199 575 q 375 563 319 579 q 469 492 438 543 q 488 382 500 442 q 418 282 475 322 q 271 379 275 263 q 357 428 340 392 q 343 456 368 450 q 206 374 286 465 q 128 251 147 310 q 132 159 110 193 q 208 113 154 125 q 350 131 263 101 q 559 244 453 163 q 704 417 665 326 l 800 357 q 662 188 782 294 q 411 25 542 82 z "},"d":{"ha":865,"x_min":-108,"x_max":954,"o":"m 146 -6 q 33 -16 81 -25 q -49 19 -15 -7 q -95 90 -82 44 q -104 188 -108 136 q -72 303 -100 240 q 6 426 -43 365 q 163 547 76 513 q 322 561 250 581 q 432 479 393 542 q 576 785 485 631 q 778 1058 668 939 q 878 1017 808 1058 q 953 942 949 976 q 753 656 838 783 q 619 440 668 528 q 548 289 571 351 q 526 194 525 226 q 547 149 526 161 q 691 195 593 122 q 860 418 789 268 l 954 356 q 914 269 939 314 q 849 174 889 224 q 765 85 810 124 q 662 20 721 46 q 543 -6 603 -6 q 378 153 396 -6 q 146 -6 258 29 m 169 147 q 379 344 250 168 q 354 418 374 393 q 294 432 335 443 q 201 361 254 421 q 97 174 90 239 q 169 147 103 128 z "},"e":{"ha":715,"x_min":-90,"x_max":804,"o":"m 415 25 q 257 -15 338 -8 q 110 -3 176 -21 q -4 56 44 15 q -72 153 -53 97 q -70 284 -90 208 q 15 439 -50 360 q 192 562 93 533 q 379 565 292 590 q 463 517 429 549 q 506 446 497 486 q 501 364 515 406 q 434 283 486 322 q 299 218 382 244 q 230 200 293 217 q 129 174 167 183 q 203 115 144 128 q 356 131 261 101 q 562 249 454 161 q 708 428 669 336 l 804 368 q 666 193 788 306 q 415 25 544 81 m 144 282 q 240 318 186 296 q 364 415 353 367 q 335 449 371 443 q 210 374 282 456 q 144 282 164 324 z "},"f":{"ha":522,"x_min":-112,"x_max":611,"o":"m 51 -394 q -73 -331 -33 -394 q -108 -160 -112 -268 q -71 76 -103 -53 q 18 351 -39 204 q -26 399 -33 392 q 8 500 -28 464 q 97 536 44 536 q 394 1025 249 863 q 519 975 446 1029 q 594 885 592 921 q 251 394 407 676 q 339 359 286 372 q 445 358 392 346 q 517 417 499 369 l 611 356 q 538 269 594 300 q 413 238 481 239 q 276 251 346 238 q 272 58 281 161 q 242 -151 264 -46 q 169 -326 219 -257 q 51 -394 119 -394 m 44 -240 q 74 -228 58 -247 q 103 -166 89 -208 q 128 -68 117 -124 q 147 60 140 -12 q 154 207 154 132 q 39 -95 69 29 q 44 -240 8 -219 z "},"g":{"ha":864,"x_min":-249,"x_max":953,"o":"m 171 -292 q 32 -337 100 -326 q -85 -337 -36 -347 q -167 -303 -133 -326 q -212 -249 -201 -279 q -190 -87 -249 -151 q -14 -4 -132 -22 q -97 89 -75 22 q -93 247 -119 156 q 6 426 -67 338 q 164 547 76 513 q 324 560 251 581 q 433 478 396 540 q 468 525 447 500 q 564 485 493 525 q 642 410 635 446 q 606 334 628 378 q 579 275 585 290 q 486 72 528 149 q 586 108 531 85 q 735 224 664 140 q 858 418 806 308 l 953 356 q 856 187 924 278 q 704 42 789 96 q 397 -78 583 -39 q 171 -292 286 -239 m -35 -192 q 27 -212 -19 -217 q 121 -172 74 -208 q 189 -106 154 -147 q 60 -110 118 -110 q -22 -122 6 -110 q -50 -151 -50 -133 q -35 -192 -50 -169 m 167 147 q 369 335 244 165 l 376 358 q 349 423 369 403 q 291 431 329 443 q 201 361 253 418 q 97 174 89 239 q 167 147 103 128 m 179 7 q 274 19 226 11 q 311 92 292 50 q 179 7 244 33 z "},"h":{"ha":710,"x_min":-201,"x_max":799,"o":"m -47 -47 l -60 -37 q -201 53 -158 -25 q -80 259 -179 57 q 105 684 19 461 q 174 954 190 907 q 358 904 275 993 q 321 728 371 874 q 190 399 271 582 q 308 519 231 439 l 313 525 l 319 532 q 324 527 321 531 q 329 521 326 524 q 426 474 372 508 q 485 410 481 440 q 458 351 475 388 q 424 274 433 297 q 408 225 415 251 q 404 186 400 199 q 421 161 408 174 q 486 160 440 142 q 594 247 532 179 q 703 417 656 315 l 799 356 q 742 244 778 303 q 656 127 707 186 q 533 31 604 68 q 388 -6 463 -7 q 241 76 290 -1 q 203 267 192 154 q -1 18 101 163 q -36 -32 -15 -6 l -47 -47 z "},"i":{"ha":457,"x_min":-67,"x_max":546,"o":"m 135 -6 q -18 87 31 -1 q -46 299 -67 175 q 58 525 -25 424 q 158 485 90 524 q 233 410 226 446 q 210 360 224 388 q 190 316 197 332 q 175 281 183 300 q 163 250 167 261 q 154 226 158 239 q 150 205 150 213 q 151 189 150 197 q 156 174 153 181 q 167 161 160 168 q 234 160 188 142 q 341 247 281 179 q 450 417 401 315 l 546 356 q 490 244 525 303 q 403 127 454 186 q 281 31 351 68 q 135 -6 210 -7 m 85 597 q 124 692 85 651 q 218 732 164 732 q 313 692 274 732 q 353 597 353 651 q 313 503 353 542 q 218 464 274 464 q 124 503 164 464 q 85 597 85 542 z "},"j":{"ha":450,"x_min":-510,"x_max":539,"o":"m -319 -193 q -315 -192 -319 -194 q -300 -182 -310 -189 q -279 -164 -290 -175 q -302 -168 -293 -165 q -316 -174 -311 -171 q -322 -180 -321 -176 q -323 -186 -324 -183 q -319 -193 -322 -189 m -471 -260 q -428 -102 -510 -169 q -200 -36 -346 -35 q -104 181 -160 43 q -9 413 -49 318 q 51 525 31 507 q 151 485 83 524 q 228 410 219 446 q 195 342 218 389 q 165 275 172 294 q 58 46 117 151 q 286 208 169 92 q 444 418 403 325 l 539 356 q 485 260 528 322 q 371 118 443 197 q 181 -35 299 39 q -68 -144 64 -110 q -170 -261 -115 -217 q -272 -319 -225 -306 q -362 -328 -319 -332 q -433 -304 -406 -324 q -471 -260 -461 -285 m 75 600 q 115 694 75 654 q 207 735 154 735 q 303 694 263 735 q 343 600 343 654 q 303 506 343 544 q 207 467 263 467 q 114 506 153 467 q 75 600 75 544 z "},"k":{"ha":724,"x_min":-203,"x_max":814,"o":"m -43 -39 q -203 53 -156 -33 q -81 259 -181 57 q 105 684 19 461 q 174 954 190 907 q 356 904 272 993 q 311 706 369 871 q 164 344 253 540 q 436 571 358 431 q 524 535 467 571 q 589 463 582 500 q 460 330 544 379 q 285 267 376 281 q 315 173 286 203 q 403 140 343 143 q 490 160 440 139 q 603 249 539 182 q 717 417 668 315 l 814 356 q 752 242 793 304 q 655 118 711 181 q 523 11 599 56 q 374 -39 447 -33 q 174 22 240 -47 q 100 206 108 92 q -43 -39 6 14 z "},"l":{"ha":499,"x_min":-50,"x_max":588,"o":"m 158 -6 q -37 206 -25 17 q 58 622 -50 394 q 321 1025 165 849 q 445 975 372 1029 q 521 885 518 921 q 328 649 411 760 q 199 454 246 538 q 131 306 151 371 q 116 202 110 240 q 153 149 122 164 q 319 190 218 118 q 493 418 419 263 l 588 356 q 528 242 567 303 q 435 120 490 182 q 306 22 381 58 q 158 -6 232 -14 z "},"m":{"ha":1022,"x_min":-156,"x_max":1113,"o":"m 3 -39 l -1 -39 q -3 -43 -1 -40 q -7 -47 -6 -46 l -21 -36 q -156 51 -110 -22 q -51 258 -100 101 q -11 514 -1 414 q 171 463 92 551 q 174 392 178 433 q 254 481 215 438 l 254 483 q 257 485 256 483 q 260 486 258 486 l 264 490 q 271 489 268 490 q 433 432 358 514 q 439 332 443 393 q 617 518 560 457 l 622 525 l 629 532 q 632 528 631 531 q 635 525 633 526 q 639 522 638 524 q 737 475 683 508 q 797 410 790 442 q 774 359 788 386 q 754 316 761 332 q 739 281 747 300 q 726 250 731 261 q 718 226 722 239 q 714 205 714 213 q 715 189 714 197 q 721 174 717 181 q 732 161 725 168 q 799 160 753 142 q 906 247 844 179 q 1015 417 967 315 l 1113 356 q 1054 244 1090 301 q 967 127 1018 186 q 844 31 915 68 q 699 -6 774 -7 q 551 78 600 -1 q 515 271 503 157 q 361 -40 399 128 q 199 47 253 -35 q 253 317 243 189 q 89 99 197 258 q 3 -39 53 17 z "},"n":{"ha":786,"x_min":-124,"x_max":875,"o":"m 31 -47 l 18 -37 q -124 51 -78 -25 q -40 252 -72 96 q -19 518 -8 408 q 163 467 83 556 q 163 300 176 404 q 383 518 293 421 l 389 525 l 396 532 q 400 527 397 531 q 406 521 403 524 q 503 474 449 508 q 564 410 558 440 q 541 359 554 388 q 520 315 528 331 q 504 281 513 300 q 492 250 496 261 q 483 226 488 239 q 479 205 479 213 q 481 189 479 197 q 485 174 482 181 q 496 161 489 168 q 563 160 517 142 q 671 247 610 179 q 781 418 732 315 l 875 356 q 819 244 856 303 q 732 127 783 186 q 610 31 681 68 q 465 -6 539 -7 q 319 78 368 -1 q 281 269 269 157 q 75 18 174 160 q 46 -24 56 -12 l 31 -47 z "},"o":{"ha":690,"x_min":-65,"x_max":779,"o":"m 156 -6 q -10 76 46 8 q -58 231 -65 143 q -12 403 -50 318 q 100 546 25 488 q 256 604 175 604 q 321 557 294 604 q 378 585 347 581 q 441 568 408 589 q 497 501 474 547 q 519 357 522 458 q 685 417 650 335 l 779 356 q 674 256 757 283 q 492 243 592 229 q 156 -6 360 -31 m 151 149 q 249 166 192 128 q 346 276 307 204 q 272 339 301 300 q 260 407 260 375 q 176 351 213 389 q 125 274 140 313 q 116 199 110 235 q 151 149 122 164 z "},"p":{"ha":753,"x_min":-369,"x_max":842,"o":"m -211 -456 q -369 -365 -322 -451 q -247 -157 -347 -361 q -62 270 -147 47 q 7 539 24 493 q 189 486 106 575 q 192 471 192 478 q 478 497 363 583 q 544 336 547 439 q 475 139 540 233 q 628 251 553 178 q 746 417 703 324 l 842 356 q 774 245 826 310 q 648 118 722 181 q 472 19 574 56 q 272 -1 371 -17 q 238 -7 263 -4 q 46 39 124 -18 q -98 -272 -25 -129 q -211 -456 -171 -414 m 128 242 q 167 200 157 224 q 157 180 161 201 q 160 135 153 158 q 192 111 168 113 q 264 140 226 108 q 324 217 301 172 q 351 308 346 261 q 328 379 357 354 q 147 297 272 431 l 128 242 z "},"q":{"ha":806,"x_min":-133,"x_max":899,"o":"m 258 -543 q 216 -525 244 -537 q 174 -506 188 -512 q 141 -487 161 -500 q 113 -462 121 -474 q 99 -431 104 -450 q 97 -389 94 -412 q 122 -258 92 -358 q -85 -269 19 -279 q -65 -67 -133 -204 q 182 -90 56 -115 q 206 -31 189 -74 q 233 36 224 13 q 143 -7 181 6 q 29 -17 78 -26 q -53 19 -19 -7 q -99 90 -86 44 q -106 189 -111 136 q -74 303 -101 242 q 3 425 -46 365 q 169 549 78 515 q 333 557 260 582 q 439 461 406 532 q 499 547 476 524 q 657 457 607 543 q 571 320 639 453 q 431 21 503 188 q 800 413 621 153 l 899 354 q 690 83 813 214 q 422 -136 567 -47 q 503 -274 494 -199 q 474 -406 513 -349 q 376 -503 436 -464 q 258 -543 315 -543 m 167 147 q 374 339 246 165 l 376 344 q 360 403 372 381 q 326 435 347 426 q 272 425 306 443 q 199 361 239 407 q 94 172 86 236 q 167 147 101 128 m 279 -411 q 375 -321 357 -379 q 338 -208 393 -262 q 279 -411 288 -349 z "},"r":{"ha":613,"x_min":-25,"x_max":703,"o":"m -18 392 q -1 428 -14 401 q 18 468 13 454 q -18 532 -6 503 q 22 674 -25 615 q 133 713 69 733 q 189 628 183 697 q 168 507 194 558 q 210 518 189 510 l 214 524 l 221 524 l 226 525 q 228 524 228 525 q 229 521 228 522 q 327 476 272 511 q 389 407 382 440 q 366 357 379 385 q 346 314 353 329 q 330 279 339 299 q 317 249 321 260 q 309 226 313 239 q 305 205 306 213 q 306 188 304 197 q 311 173 307 179 q 322 160 315 167 q 389 160 343 140 q 496 247 435 179 q 606 415 557 314 l 703 356 q 646 244 682 301 q 558 126 610 186 q 435 29 506 67 q 289 -7 364 -8 q 119 126 161 -1 q 139 397 76 254 l 119 403 q 79 333 103 369 l -4 310 l -18 392 z "},"s":{"ha":497,"x_min":-267,"x_max":324,"o":"m 306 72 q 210 -22 282 4 q 51 -36 138 -49 q -122 8 -36 -24 q -267 81 -208 39 q -229 147 -256 119 q -182 181 -203 175 q -127 133 -175 157 q -19 110 -79 108 q 69 153 40 111 q 77 205 88 171 q 48 267 67 239 q 6 338 29 296 q -22 411 -17 379 q -12 544 -35 481 q 52 641 10 607 q 148 685 94 675 q 251 660 201 696 q 296 595 292 635 q 277 519 300 556 q 210 454 254 483 q 118 418 167 425 q 155 346 125 381 q 216 288 185 311 q 277 232 247 265 q 315 164 307 199 q 306 72 324 129 z "},"t":{"ha":500,"x_min":-260,"x_max":913,"o":"m 158 -3 q 4 79 54 10 q -40 253 -46 149 q 4 476 -35 357 q 111 722 43 596 q -246 774 -175 743 q -256 785 -258 781 l -221 896 q 181 840 -106 843 q 322 1029 250 947 q 445 981 372 1035 q 521 888 518 926 l 494 857 q 817 956 721 888 q 886 883 860 942 q 897 778 913 824 q 374 711 740 708 q 247 533 300 617 q 163 386 193 450 q 122 274 133 322 q 120 194 111 225 q 154 151 129 164 q 319 194 218 121 q 493 419 421 267 l 590 360 q 531 246 569 307 q 436 124 492 185 q 306 26 381 63 q 158 -3 232 -11 z "},"u":{"ha":850,"x_min":-62,"x_max":940,"o":"m 96 -3 q -22 73 18 8 q -60 222 -62 138 q -15 404 -58 307 q 104 574 28 501 q 216 517 156 568 q 279 429 276 465 q 129 251 174 328 q 122 154 85 175 q 233 201 160 133 q 381 408 307 269 q 453 528 404 469 q 549 489 478 529 q 628 411 621 449 q 549 231 554 254 q 561 164 536 189 q 628 164 582 144 q 735 251 674 183 q 843 419 796 318 l 940 360 q 883 248 919 306 q 796 131 847 190 q 674 33 744 71 q 528 -3 603 -4 q 412 42 457 0 q 350 156 367 85 q 96 -3 233 -21 z "},"v":{"ha":750,"x_min":-62,"x_max":839,"o":"m 110 -40 l 103 -40 q 79 -68 90 -53 l 81 -37 q -62 39 -26 -22 q -15 276 -19 131 q -46 496 -10 421 q 13 511 -25 504 q 105 509 51 518 q 186 467 158 500 q 178 197 207 376 q 343 332 306 296 q 319 447 307 382 q 479 614 383 583 q 590 589 551 636 q 589 444 635 536 q 540 367 571 406 q 660 354 594 344 q 744 417 725 364 l 839 356 q 751 264 819 293 q 601 238 682 235 q 450 269 521 242 q 286 128 406 228 q 117 -24 167 29 l 110 -40 z "},"w":{"ha":1075,"x_min":-62,"x_max":1164,"o":"m 108 -37 l 101 -37 q 78 -65 88 -51 l 79 -35 q -62 42 -29 -17 q -15 280 -19 135 q -46 499 -10 425 q 13 515 -26 508 q 104 513 51 522 q 186 471 157 504 q 178 201 207 381 q 336 331 286 283 q 317 468 340 417 q 374 483 335 476 q 466 481 413 490 q 547 439 519 472 q 525 217 563 369 q 668 336 619 289 q 644 451 632 383 q 804 618 708 588 q 917 592 878 640 q 914 447 960 538 q 865 369 896 408 q 924 358 894 361 q 983 357 954 354 q 1035 376 1013 360 q 1068 418 1057 392 l 1164 360 q 1106 283 1150 313 q 1005 246 1061 253 q 888 246 949 239 q 775 274 826 253 q 611 131 731 231 q 442 -22 492 32 l 435 -37 l 428 -37 l 407 -62 l 407 -35 q 263 42 299 -19 q 300 143 282 85 q 115 -22 172 39 l 108 -37 z "},"x":{"ha":688,"x_min":-415,"x_max":776,"o":"m -215 -249 q -328 -215 -254 -267 q -415 -119 -401 -164 q 6 283 -328 40 q -33 503 -32 383 q 33 551 -19 535 q 136 560 86 568 q 193 522 186 553 q 192 408 189 468 q 503 576 425 558 l 544 461 q 214 286 413 431 q 379 143 256 153 q 524 204 438 136 q 682 419 611 272 l 776 360 q 720 248 756 306 q 633 131 685 190 q 510 33 581 71 q 364 -3 439 -4 q 201 44 279 0 q 67 168 122 89 q -215 -249 -162 -42 z "},"y":{"ha":850,"x_min":-271,"x_max":940,"o":"m 156 -289 q 17 -334 85 -324 q -100 -334 -51 -344 q -182 -300 -149 -324 q -226 -244 -215 -276 q -183 -61 -271 -131 q 61 6 -94 8 l 64 6 q -48 136 -22 36 q -32 359 -74 236 q 106 574 10 482 q 219 517 158 568 q 282 429 279 465 q 167 304 211 363 q 112 208 122 246 q 125 154 101 169 q 231 197 161 133 q 371 392 301 261 q 451 528 399 465 q 549 489 479 529 q 626 411 619 449 q 564 278 568 286 q 472 75 514 154 q 571 113 525 93 q 720 228 649 144 q 843 419 792 311 l 940 360 q 841 190 908 281 q 689 44 774 99 q 382 -74 561 -39 q 156 -289 272 -236 m -50 -189 q 13 -210 -33 -214 q 106 -169 58 -206 q 174 -101 139 -142 q 44 -107 108 -107 q -37 -119 -10 -107 q -66 -149 -65 -131 q -50 -189 -67 -167 m 203 14 q 258 22 239 19 q 286 74 274 47 q 203 14 246 33 z "},"z":{"ha":711,"x_min":-65,"x_max":801,"o":"m -18 399 q 22 478 11 456 q 43 549 32 501 q 51 646 54 596 q 74 665 54 654 q 124 675 94 676 q 172 647 153 674 q 178 574 183 611 q 351 544 278 544 q 526 578 425 544 q 575 425 535 561 q 211 203 351 389 q 256 206 242 207 q 318 199 271 204 q 403 190 365 193 q 526 197 483 185 q 609 258 568 210 q 706 419 650 307 l 801 360 q 744 249 779 306 q 656 132 708 192 q 534 35 604 72 q 389 -3 464 -3 q 299 13 350 -3 q 210 41 247 29 q 124 44 174 53 q 29 -4 75 36 q -42 56 -18 7 q -44 153 -65 106 q 91 286 -1 189 q 225 418 183 383 q 125 419 165 414 q 79 338 103 375 l -4 314 l -18 399 z "},"{":{"ha":558,"x_min":-3639,"x_max":119,"o":"m -10 447 q 36 431 4 454 q 93 381 68 408 q 113 350 118 354 q -29 -142 -49 156 q 60 -174 29 -150 q 82 -285 118 -226 q -18 -342 49 -336 q -119 -307 -75 -347 q -149 -253 -139 -287 q -1230 -227 -747 -222 q -2072 -256 -1712 -232 q -2708 -332 -2431 -279 q -3174 -451 -2986 -385 q -3501 -608 -3361 -518 q -3607 -517 -3575 -571 q -3636 -404 -3639 -464 q -3603 -264 -3633 -344 q -2430 -119 -3311 -156 q -154 -135 -1549 -82 q -137 173 -185 -12 q -10 447 -89 358 z "},"|":{"ha":417,"x_min":-12,"x_max":542,"o":"m 338 910 q 481 943 429 956 q 542 886 532 931 q 245 216 364 626 q 142 -392 126 -194 q 94 -431 119 -415 q 39 -451 69 -447 q -12 -428 8 -454 q 32 -17 -11 -240 q 138 394 75 206 q 251 711 200 582 q 338 910 303 840 z "},"}":{"ha":560,"x_min":-2569,"x_max":119,"o":"m -10 447 q 36 431 4 454 q 93 381 68 408 q 113 350 118 354 q -29 -142 -49 156 q 60 -174 29 -150 q 82 -285 118 -226 q -18 -342 49 -336 q -119 -307 -75 -347 q -149 -250 -142 -285 q -1468 -287 -849 -186 q -2432 -608 -2087 -387 q -2537 -517 -2506 -571 q -2567 -404 -2569 -464 q -2533 -264 -2564 -344 q -1500 -119 -2257 -160 q -154 -135 -743 -78 q -137 174 -185 -11 q -10 447 -89 358 z "},"~":{"ha":782,"x_min":-1,"x_max":743,"o":"m 18 333 q 179 453 110 417 q 285 486 249 490 q 346 459 321 482 q 381 406 371 436 q 400 354 390 375 q 421 338 410 333 q 513 444 493 367 q 592 467 550 463 q 670 461 635 471 q 724 419 706 451 q 733 338 743 388 q 518 176 639 228 q 342 138 397 124 q 297 188 313 144 q 274 269 281 231 q 263 308 268 308 q 215 247 243 306 q 185 139 188 188 q 51 187 104 108 q 18 333 -1 265 z "},"":{"ha":414,"x_min":0,"x_max":0,"o":""},"":{"ha":375,"x_min":-114,"x_max":393,"o":"m 218 408 q 151 476 183 435 q 107 560 118 517 q 174 602 121 554 q 253 692 226 650 q 335 650 293 679 q 393 583 376 621 q 328 490 374 539 q 218 408 282 442 m -114 -231 q 37 34 -47 -140 q 150 350 121 208 q 195 377 167 367 q 246 379 224 388 q 250 289 253 357 q 240 144 247 221 q 202 -49 232 67 q 125 -283 172 -165 q -5 -294 71 -311 q -114 -231 -81 -278 z "},"":{"ha":693,"x_min":-17,"x_max":718,"o":"m 538 703 q 665 704 615 724 q 718 649 715 685 q 638 571 675 613 q 658 475 663 525 q 619 385 653 425 q 540 346 585 346 q 481 365 503 346 q 336 83 390 215 q 600 174 471 76 q 623 160 614 168 q 635 144 632 151 q 640 125 639 136 q 641 108 642 114 q 638 91 640 103 q 635 76 635 79 q 494 -12 585 28 q 288 -58 404 -51 q 269 -176 267 -137 q 223 -199 247 -190 q 171 -203 199 -207 q 128 -178 143 -200 q 149 -49 129 -122 q -6 124 6 -14 q 89 399 -15 253 q 360 610 200 553 q 483 633 421 632 q 515 674 496 651 q 538 703 533 697 m 213 151 q 403 514 289 338 q 239 351 300 469 q 213 151 178 232 z "},"":{"ha":942,"x_min":-93,"x_max":981,"o":"m 681 271 q 675 191 692 235 q 615 117 658 147 q 583 157 596 144 q 536 65 563 110 q 674 49 597 35 q 775 100 750 64 q 823 47 811 85 q 828 -26 835 8 q 807 -89 821 -61 q 613 -144 722 -157 q 438 -40 503 -132 q 160 -100 313 -131 q -22 11 35 -76 q -3 239 -92 118 l 15 263 q 117 331 60 314 q 231 333 175 347 q 342 282 286 319 q 406 382 353 338 q 522 354 457 379 l 525 361 q 388 478 429 392 q 356 626 347 564 q 467 692 413 679 q 536 672 521 704 q 563 488 499 540 q 670 695 606 619 q 843 765 735 771 q 965 671 951 758 q 904 492 981 588 q 665 354 811 375 q 644 351 656 353 q 632 303 633 307 q 681 271 644 296 m 197 157 q 213 88 174 117 q 349 85 264 50 q 368 93 358 88 q 301 163 338 140 q 238 183 265 186 q 197 157 211 179 m 358 269 q 454 171 417 225 q 482 228 469 193 q 358 269 415 260 m 676 471 q 752 526 722 485 q 782 595 782 567 q 774 629 782 624 q 721 590 743 629 q 676 471 699 550 z "},"":{"ha":742,"x_min":-33,"x_max":786,"o":"m 363 582 q 481 612 424 611 q 575 583 538 613 q 604 615 585 594 q 635 649 624 636 q 659 677 646 661 q 679 706 672 693 q 760 667 733 701 q 785 589 786 632 q 764 501 783 546 q 660 403 735 469 q 604 229 649 318 q 669 72 653 135 q 595 -6 631 15 q 506 -36 560 -28 l 467 50 q 382 7 426 21 q 217 18 281 -18 q 76 -74 121 -47 q -6 -32 17 -58 q -33 43 -28 -6 q 122 156 46 94 q 181 414 100 285 q 194 433 189 428 q 72 564 132 514 q 184 664 118 635 q 301 671 250 693 q 326 635 303 668 q 363 582 350 603 m 326 431 q 291 301 292 365 q 328 199 290 238 q 425 179 367 160 q 491 261 457 192 q 528 400 525 331 q 490 385 497 383 q 423 473 481 457 q 326 431 365 489 z "},"":{"ha":854,"x_min":19,"x_max":928,"o":"m 260 75 q 426 144 333 113 q 437 172 426 146 q 450 210 447 197 q 285 125 336 111 q 233 215 229 140 q 268 370 238 289 q 326 522 299 451 q 343 601 353 593 q 292 579 331 611 q 197 504 253 547 q 101 450 142 461 q 35 541 50 490 q 44 633 19 592 q 161 660 97 639 q 265 699 225 682 q 360 724 306 717 q 446 707 414 731 q 482 446 547 651 q 456 354 456 360 q 468 353 457 346 q 547 436 499 376 q 613 582 571 489 q 683 742 654 675 q 731 860 711 808 q 828 983 767 957 q 899 960 879 1004 q 858 757 926 893 q 696 496 788 622 q 617 204 636 307 q 764 228 707 224 q 792 160 790 192 q 778 99 794 129 q 601 58 690 83 q 622 -15 604 14 q 675 -78 639 -44 q 590 -198 642 -136 q 499 -293 538 -260 q 457 -314 461 -326 q 374 -26 314 -282 q 232 -108 300 -62 q 201 -49 203 -85 q 217 17 200 -14 q 260 75 233 47 z "},"":{"ha":417,"x_min":-12,"x_max":542,"o":"m 289 247 q 247 102 276 201 q 203 -54 218 3 q 169 -185 188 -111 q 144 -309 151 -258 q 142 -392 138 -360 q 94 -431 119 -415 q 39 -451 69 -447 q -12 -428 8 -454 q 8 -242 -12 -346 q 65 -6 29 -139 q 113 178 101 128 l 289 247 m 118 240 q 338 910 282 797 q 481 943 429 956 q 542 886 532 931 q 501 822 521 857 q 462 740 482 786 q 428 661 442 694 q 392 569 414 628 q 362 483 371 510 q 330 390 353 457 q 301 306 307 322 l 118 240 z "},"":{"ha":826,"x_min":-69,"x_max":851,"o":"m 133 -19 q 167 -87 138 -60 q 234 -122 196 -115 q 310 -125 272 -129 q 376 -99 349 -121 q 404 -43 403 -76 q 359 10 406 -15 q 251 55 313 36 q 130 108 189 74 q 48 188 71 142 q 54 313 25 233 q 206 504 100 417 q 185 682 136 576 q 333 808 222 761 q 584 849 443 854 q 839 783 725 843 q 779 697 851 760 q 649 632 707 635 q 616 699 644 672 q 549 734 588 726 q 474 738 511 742 q 409 711 436 733 q 381 656 382 689 q 425 602 379 628 q 532 558 471 576 q 652 505 593 539 q 735 425 711 471 q 729 301 758 379 q 578 108 685 194 q 599 -68 647 36 q 450 -194 561 -147 q 198 -235 339 -240 q -57 -171 57 -231 q 3 -85 -69 -147 q 133 -19 76 -22 m 271 374 q 250 335 256 353 q 252 303 244 318 q 269 278 260 289 q 302 253 278 267 q 344 233 326 240 q 396 210 361 225 q 450 188 431 196 q 513 240 493 214 q 533 277 528 260 q 530 309 538 294 q 513 334 522 324 q 478 358 503 344 q 437 378 454 371 q 385 401 419 386 q 332 424 350 415 q 271 374 289 397 z "},"":{"ha":553,"x_min":6,"x_max":567,"o":"m 403 928 q 422 901 406 919 q 479 854 439 882 q 567 817 519 826 q 468 708 526 764 q 353 622 410 651 q 269 704 314 650 q 136 603 196 633 q 6 760 35 688 q 38 785 11 767 q 107 837 64 804 q 186 908 150 869 q 197 891 188 904 q 230 858 207 878 q 281 824 253 839 q 403 928 349 871 z "},"":{"ha":1164,"x_min":-111,"x_max":1154,"o":"m 653 789 q 1060 640 943 804 q 1101 318 1154 508 q 879 -12 1049 126 q 411 -186 681 -175 q -19 -31 96 -199 q -44 294 -110 103 q 197 621 19 482 q 653 789 397 776 m 400 -35 q 194 100 225 -28 q 257 354 168 213 q 489 563 347 497 q 657 597 574 600 q 732 579 703 594 q 765 606 750 597 q 818 592 792 614 q 833 529 844 571 q 792 508 811 521 q 776 392 810 450 q 688 333 743 333 q 624 383 632 333 q 656 494 615 433 q 629 499 649 499 q 449 394 529 499 q 381 208 375 300 q 472 103 386 119 q 743 179 606 75 q 767 163 758 172 q 778 146 775 153 q 781 123 782 139 q 779 105 779 107 q 775 88 779 103 q 623 -2 719 36 q 400 -35 526 -40 m 417 -85 q 844 99 689 -69 q 963 381 964 228 q 846 610 961 531 q 629 668 760 668 q 279 514 442 668 q 103 229 142 386 q 163 -24 60 61 q 417 -85 247 -94 z "},"":{"ha":669,"x_min":-15,"x_max":665,"o":"m 39 668 q 263 870 128 807 q 483 894 399 933 q 444 811 483 857 q 482 781 483 818 q 429 669 479 743 q 425 568 417 596 q 465 558 436 553 q 537 595 493 563 q 617 676 581 628 q 652 661 639 679 q 656 624 665 643 q 551 496 604 551 q 453 408 499 440 q 367 363 407 376 q 299 355 328 349 q 253 386 269 361 q 235 446 238 406 q 103 389 164 390 q 14 426 43 388 q -11 531 -15 464 q 39 668 -7 597 m 163 644 q 171 562 138 593 q 256 565 204 531 q 374 769 297 697 q 250 740 307 772 q 163 644 193 707 z "},"":{"ha":857,"x_min":-7,"x_max":899,"o":"m 269 -62 q 188 107 272 3 q 8 256 104 211 q 63 333 -7 267 q 247 478 132 399 q 456 594 363 557 q 542 567 513 586 q 586 511 571 547 q 744 594 682 569 q 855 547 828 582 q 899 422 882 513 q 747 399 853 449 q 547 268 642 349 q 792 49 663 186 q 719 -22 763 -1 q 558 -62 675 -43 q 481 106 568 0 q 297 256 394 211 q 313 291 289 264 q 390 353 338 318 q 501 415 442 389 q 258 268 383 374 q 503 49 375 183 q 430 -22 474 -1 q 269 -62 386 -43 z "},"":{"ha":929,"x_min":57,"x_max":906,"o":"m 592 163 q 601 188 594 171 q 608 210 607 204 q 85 160 306 228 q 92 266 57 213 q 189 354 128 319 q 728 354 488 392 q 768 375 746 367 q 906 294 853 346 q 796 192 846 267 q 769 43 746 118 q 658 90 707 54 q 592 163 610 125 z "},"":{"ha":736,"x_min":50,"x_max":650,"o":"m 172 383 q 449 407 318 414 q 649 361 581 400 q 638 261 650 299 q 596 175 626 224 q 456 204 540 196 q 262 194 372 213 q 65 129 151 176 q 85 268 50 197 q 172 383 121 339 z "},"":{"ha":1164,"x_min":-110,"x_max":1154,"o":"m 653 789 q 1060 640 943 804 q 1101 318 1154 508 q 879 -12 1049 126 q 411 -186 681 -175 q -18 -31 97 -199 q -44 294 -108 103 q 197 619 19 482 q 653 789 397 776 m 221 -28 q 219 65 214 18 q 249 177 225 111 q 285 271 274 243 q 340 386 297 299 q 389 483 383 474 l 410 494 q 359 488 393 492 q 308 482 325 483 q 317 538 301 507 q 374 581 333 568 q 464 588 399 582 q 742 575 643 604 q 832 464 840 546 q 749 360 826 408 q 578 290 671 313 q 660 184 590 272 q 767 31 731 96 q 887 151 839 82 q 952 290 935 219 q 958 428 969 360 q 909 550 947 497 q 799 635 871 603 q 629 668 726 668 q 279 514 442 668 q 103 229 142 386 q 163 -24 60 61 q 417 -85 247 -94 q 664 -28 558 -76 q 551 -21 607 -35 q 506 124 549 28 q 453 286 463 219 q 447 289 447 286 q 419 310 428 297 q 417 -4 375 129 q 221 -28 342 -49 m 446 399 q 504 419 471 425 q 546 367 538 414 q 633 403 601 379 q 668 457 665 428 q 655 487 669 476 q 596 502 640 497 q 468 500 551 507 l 481 493 q 446 399 463 453 m 547 364 z "},"":{"ha":464,"x_min":-1,"x_max":458,"o":"m 60 833 q 431 835 317 810 q 457 783 456 819 q 447 716 458 747 q 421 665 435 685 q 61 696 258 631 q 10 717 8 713 q 60 833 -1 758 z "},"":{"ha":486,"x_min":-22,"x_max":528,"o":"m 311 819 q 493 767 454 850 q 467 594 526 696 q 256 428 394 476 q 196 411 226 417 q 7 467 40 381 q 49 642 -21 539 q 268 807 129 760 q 311 819 289 814 m 197 510 q 279 583 232 513 q 313 697 331 661 q 278 711 304 714 q 183 626 218 706 q 174 524 154 560 q 197 510 181 508 z "},"":{"ha":811,"x_min":-83,"x_max":786,"o":"m 600 732 q 553 547 579 631 q 776 515 685 539 q 778 433 786 458 q 740 369 771 408 q 503 390 618 390 q 388 132 451 243 q 299 117 324 113 q 243 147 274 121 q 343 385 299 257 q 68 338 181 374 q 74 444 39 390 q 172 532 110 497 q 392 549 282 546 q 432 811 432 696 q 544 815 501 840 q 600 732 586 790 m -56 -122 q -48 -16 -83 -69 q 49 72 -12 38 q 396 89 229 94 q 656 56 563 83 q 656 -28 664 0 q 617 -90 647 -56 q 431 -70 539 -75 q 185 -77 322 -65 q -56 -122 49 -89 z "},"":{"ha":488,"x_min":-75,"x_max":551,"o":"m 288 344 q 421 343 374 357 q 408 260 436 319 q 336 179 381 201 q 117 219 204 233 q -33 200 22 175 q -46 258 -75 218 q -42 264 -44 261 q 97 322 -3 313 q 249 437 185 376 q 339 541 314 497 q 347 603 364 585 q 313 608 335 613 q 250 568 290 604 q 164 472 210 532 q 103 511 132 474 q 97 607 74 549 q 335 768 213 729 q 504 739 458 807 q 487 559 551 672 q 288 344 422 446 z "},"":{"ha":472,"x_min":-25,"x_max":533,"o":"m 146 779 q 390 747 304 744 q 469 778 439 774 q 531 749 533 785 q 478 685 528 714 q 411 663 446 667 q 399 661 407 661 q 340 603 369 633 q 446 503 442 593 q 390 357 446 435 q 251 231 333 279 q 99 192 168 182 q 6 240 38 200 q -23 322 -25 281 q -12 394 -21 364 q 108 460 40 446 q 158 442 160 472 q 126 350 132 386 q 131 302 121 314 q 158 292 140 290 q 229 340 192 293 q 267 454 267 386 q 232 503 267 485 q 217 494 221 497 q 124 489 153 460 q 129 546 99 513 q 193 583 150 569 l 206 585 l 260 639 q 99 626 128 613 q 101 692 90 654 q 128 755 113 731 q 146 779 143 779 z "},"":{"ha":374,"x_min":-22,"x_max":383,"o":"m -6 700 q 261 939 179 811 q 354 897 325 954 q 361 765 383 839 q 204 660 303 704 q 8 596 106 617 q -19 638 -17 601 q -6 700 -22 674 z "},"":{"ha":668,"x_min":-360,"x_max":743,"o":"m 689 293 q 727 280 711 301 q 735 236 743 258 q 523 33 654 114 q 311 -6 392 -47 q 260 79 268 17 q 135 -1 197 21 q 31 1 74 -24 q 13 14 19 11 q -151 -299 -101 -175 q -360 -243 -262 -346 q -297 -155 -351 -219 q -156 8 -243 -90 q -17 174 -69 107 q 69 394 0 272 q 251 633 139 517 q 299 610 282 636 q 313 553 315 585 q 304 500 311 522 q 199 340 232 424 q 192 233 167 256 q 283 229 224 204 q 359 393 307 308 q 481 542 411 478 q 538 521 514 544 q 561 458 563 497 q 483 316 510 400 q 488 208 456 232 q 585 206 528 183 q 689 293 642 229 z "},"":{"ha":846,"x_min":83,"x_max":1040,"o":"m 400 947 q 422 942 408 946 q 440 936 435 938 q 747 960 531 961 q 1019 932 964 960 q 949 754 1040 899 q 799 785 854 776 q 547 148 646 514 q 464 -392 449 -218 q 417 -431 442 -415 q 361 -451 392 -447 q 311 -428 331 -454 q 367 38 311 -221 q 483 472 424 297 q 608 801 543 646 q 582 800 590 801 q 323 158 424 529 q 238 -392 222 -214 q 190 -431 215 -415 q 135 -451 165 -447 q 85 -428 104 -454 q 301 600 83 1 q 192 767 225 679 q 232 798 199 774 q 311 861 265 822 q 400 947 357 900 z "},"":{"ha":589,"x_min":111,"x_max":456,"o":"m 292 481 q 311 453 294 472 q 368 407 328 435 q 456 369 408 379 q 358 260 417 317 q 242 175 299 204 q 111 332 143 257 q 143 357 117 339 q 212 408 169 375 q 292 481 254 440 z "},"":{"ha":469,"x_min":-32,"x_max":472,"o":"m 292 -68 q 438 -173 403 -90 q 407 -333 472 -256 q 196 -428 336 -417 q -29 -364 56 -439 q -19 -321 -32 -344 q 17 -286 -7 -297 q 126 -303 74 -312 q 213 -251 179 -293 q 208 -174 250 -201 q 69 -162 167 -147 l 118 -76 l 279 28 l 350 -19 l 292 -68 z "},"":{"ha":444,"x_min":35,"x_max":396,"o":"m 225 757 q 333 782 274 786 q 396 733 392 778 q 273 447 329 604 q 215 217 217 289 q 103 183 175 169 q 82 192 83 188 l 86 194 q 135 511 106 390 q 122 500 133 510 q 104 485 111 490 q 53 528 71 488 q 44 615 35 568 q 196 701 89 607 q 225 757 215 744 z "},"":{"ha":556,"x_min":-19,"x_max":539,"o":"m 104 624 q 206 707 151 674 q 308 751 260 740 q 397 756 356 761 q 465 727 439 751 q 496 664 490 703 q 504 662 499 664 q 513 660 510 660 q 490 501 539 607 q 346 303 440 394 q 164 206 251 213 q 40 237 86 199 q -13 338 -7 275 q 10 478 -19 400 q 104 624 40 556 m 232 608 q 160 449 163 536 q 207 363 158 376 q 240 363 222 360 q 317 423 271 367 q 382 543 363 479 q 349 536 357 535 q 322 633 364 607 q 232 608 279 658 z "},"":{"ha":857,"x_min":-42,"x_max":864,"o":"m 588 600 q 670 430 586 533 q 849 282 754 326 q 794 205 864 271 q 610 60 725 139 q 401 -57 494 -19 q 315 -29 344 -49 q 271 26 286 -10 q 113 -57 175 -32 q 2 -10 29 -44 q -42 115 -25 25 q 111 140 4 89 q 310 269 218 190 q 65 489 189 357 q 138 560 94 539 q 299 600 182 581 q 376 432 289 538 q 560 282 463 326 q 544 247 568 274 q 469 184 521 219 q 356 122 417 149 q 599 269 476 165 q 354 489 490 349 q 427 560 383 539 q 588 600 471 581 z "},"":{"ha":907,"x_min":-1,"x_max":919,"o":"m 771 694 q 879 646 846 686 q 901 568 913 606 q 622 357 794 503 q 719 351 700 381 q 758 413 739 388 q 863 427 807 439 q 918 368 919 415 q 751 51 824 219 q 807 24 792 39 q 793 -24 808 1 q 763 -64 778 -50 q 744 -78 747 -78 q 704 -64 732 -75 q 674 -161 682 -121 q 618 -189 651 -185 q 569 -188 585 -193 q 544 -179 553 -183 q 578 -35 560 -108 q 475 -26 522 -26 q 392 -79 432 -64 q 322 -62 339 -99 q 349 17 304 -26 q 394 47 367 35 q 474 222 442 128 q 125 -157 238 0 q 49 -158 92 -171 q -1 -101 6 -144 q 221 188 75 24 q 136 189 174 171 q 136 194 132 193 q 185 511 156 393 q 154 485 183 510 q 103 528 122 488 q 93 615 85 568 q 246 701 142 610 q 275 757 258 732 q 383 782 324 786 q 446 733 443 778 q 330 469 383 615 q 267 239 276 322 q 561 528 411 394 q 771 694 711 661 m 560 79 q 585 78 569 78 q 610 78 601 78 q 681 274 640 181 q 630 189 675 264 q 560 79 585 114 z "},"":{"ha":929,"x_min":-1,"x_max":943,"o":"m 772 694 q 879 646 844 686 q 903 568 914 606 q 482 229 726 460 q 125 -157 238 -1 q 49 -158 92 -171 q -1 -101 6 -144 q 219 186 81 32 q 138 188 172 172 q 136 194 126 193 q 186 513 156 386 q 169 499 181 508 q 154 485 158 489 q 104 528 124 488 q 94 615 85 568 q 246 701 139 607 q 275 757 265 744 q 383 782 324 786 q 446 733 443 778 q 331 467 385 614 q 267 239 276 321 q 561 528 411 394 q 772 694 711 661 m 351 -111 q 398 -74 369 -87 q 442 -58 426 -61 q 490 -53 458 -56 q 642 63 578 3 q 732 167 707 124 q 740 229 757 211 q 724 237 735 236 q 695 230 713 238 q 658 206 678 222 q 611 163 638 190 q 557 97 585 135 q 497 137 528 99 q 488 232 465 175 q 727 394 604 356 q 896 365 850 432 q 879 186 943 300 q 681 -29 815 72 q 814 -29 763 -17 q 799 -114 828 -53 q 729 -194 771 -175 q 510 -156 600 -143 q 361 -174 418 -197 q 347 -117 318 -157 l 351 -111 z "},"":{"ha":931,"x_min":26,"x_max":953,"o":"m 197 779 q 442 747 356 744 q 563 767 524 796 q 567 713 589 746 q 449 661 538 668 q 389 603 408 625 q 465 574 435 599 q 496 503 494 549 q 472 411 496 458 q 810 694 714 642 q 918 646 883 686 q 942 568 953 606 q 668 361 825 496 q 743 351 726 375 q 782 413 763 388 q 887 427 831 439 q 942 368 943 415 q 775 53 858 235 q 831 24 808 42 q 817 -24 832 1 q 786 -64 801 -50 q 768 -78 771 -78 q 745 -70 760 -75 q 728 -64 731 -65 q 699 -161 703 -136 q 568 -179 651 -211 q 603 -35 575 -144 q 500 -26 544 -26 q 415 -79 454 -65 q 346 -62 363 -99 q 374 17 329 -26 q 419 47 392 35 q 492 201 464 121 q 163 -157 267 -14 q 86 -158 129 -171 q 36 -101 43 -144 q 292 225 126 43 q 150 192 214 182 q 74 222 103 197 q 35 280 44 247 q 28 342 26 313 q 38 394 29 372 q 158 460 89 446 q 211 442 210 472 q 178 350 183 386 q 182 302 172 314 q 210 292 192 290 q 280 340 242 293 q 319 454 318 386 q 281 503 319 485 q 178 490 210 464 q 183 544 153 511 q 256 585 207 569 l 311 638 q 150 626 175 614 q 153 692 142 654 q 179 756 164 731 q 197 779 194 781 m 585 79 q 635 78 601 78 q 707 278 669 190 q 650 183 692 253 q 585 79 608 114 z "},"":{"ha":600,"x_min":-126,"x_max":549,"o":"m 374 436 q 261 588 285 501 q 328 630 275 582 q 408 719 382 678 q 488 678 447 707 q 549 611 529 650 q 483 519 529 568 q 374 436 438 469 m -125 -169 q -101 -44 -126 -101 q -34 53 -75 14 q 56 127 7 93 q 153 191 106 161 q 240 250 201 221 q 298 317 278 279 q 311 399 318 354 q 365 415 338 411 q 419 401 393 418 q 419 287 435 339 q 369 201 404 235 q 290 134 333 168 q 205 73 246 100 q 135 7 164 46 q 106 -75 107 -32 q 152 -143 104 -139 q 242 -97 200 -147 q 272 32 288 -40 q 375 88 318 67 q 479 96 432 108 q 339 -162 488 -43 q 71 -285 214 -262 q -112 -226 -71 -306 q -125 -169 -125 -201 z "},"":{"ha":1376,"x_min":-189,"x_max":1464,"o":"m 85 -306 q -90 -281 -1 -328 q -189 -162 -178 -233 q 276 354 -57 42 q 10 313 124 343 q 3 360 3 333 q 24 429 3 386 q 83 513 44 472 q 442 503 189 543 q 1122 986 838 849 q 1183 907 1169 963 l 1196 904 q 1191 896 1194 901 q 1186 888 1188 890 l 1186 881 q 1183 879 1185 881 q 1179 876 1181 878 q 1063 638 1111 761 q 994 415 1015 514 q 978 244 974 317 q 1014 151 982 172 q 1194 192 1083 110 q 1368 418 1304 274 l 1464 356 q 1353 172 1421 253 q 1214 44 1286 90 q 1069 -26 1142 -3 q 933 -45 996 -50 q 829 -12 871 -40 q 793 303 729 56 q 535 353 685 340 q 242 -3 364 172 q 85 -306 121 -178 m 647 465 q 831 422 782 435 q 969 739 882 571 q 647 465 803 617 m 1029 1115 q 1091 1225 1038 1175 q 1200 1265 1144 1275 q 1369 1090 1228 1171 q 1364 1038 1378 1069 q 1326 1001 1350 1007 q 1150 1038 1235 1008 q 1029 1115 1065 1067 z "},"":{"ha":1376,"x_min":-189,"x_max":1464,"o":"m 85 -306 q -90 -281 -1 -328 q -189 -162 -178 -233 q 276 354 -57 42 q 10 313 124 343 q 3 360 3 333 q 24 429 3 386 q 83 513 44 472 q 442 503 189 543 q 1122 986 838 849 q 1183 907 1169 963 l 1196 904 q 1191 896 1194 901 q 1186 888 1188 890 l 1186 881 q 1183 879 1185 881 q 1179 876 1181 878 q 1063 638 1111 761 q 994 415 1015 514 q 978 244 974 317 q 1014 151 982 172 q 1194 192 1083 110 q 1368 418 1304 274 l 1464 356 q 1353 172 1421 253 q 1214 44 1286 90 q 1069 -26 1142 -3 q 933 -45 996 -50 q 829 -12 871 -40 q 793 303 729 56 q 535 353 685 340 q 242 -3 364 172 q 85 -306 121 -178 m 647 465 q 831 422 782 435 q 969 739 882 571 q 647 465 803 617 m 1035 1093 q 1301 1332 1219 1204 q 1394 1290 1365 1347 q 1401 1158 1424 1232 q 1244 1053 1343 1097 q 1049 989 1146 1010 q 1021 1031 1024 994 q 1035 1093 1018 1067 z "},"":{"ha":1376,"x_min":-189,"x_max":1464,"o":"m 85 -306 q -90 -281 -1 -328 q -189 -162 -178 -233 q 276 354 -57 42 q 10 313 124 343 q 3 360 3 333 q 24 429 3 386 q 83 513 44 472 q 442 503 189 543 q 1122 986 838 849 q 1183 907 1169 963 l 1196 904 q 1191 896 1194 901 q 1186 888 1188 890 l 1186 881 q 1183 879 1185 881 q 1179 876 1181 878 q 1063 638 1111 761 q 994 415 1015 514 q 978 244 974 317 q 1014 151 982 172 q 1194 192 1083 110 q 1368 418 1304 274 l 1464 356 q 1353 172 1421 253 q 1214 44 1286 90 q 1069 -26 1142 -3 q 933 -45 996 -50 q 829 -12 871 -40 q 793 303 729 56 q 535 353 685 340 q 242 -3 364 172 q 85 -306 121 -178 m 647 465 q 831 422 782 435 q 969 739 882 571 q 647 465 803 617 m 965 1081 q 1168 1275 1096 1169 q 1288 1225 1271 1258 q 1309 1162 1288 1192 q 1410 1061 1331 1132 q 1361 990 1394 1024 q 1289 950 1328 957 q 1214 1110 1271 993 q 1036 949 1147 1044 q 985 1005 1007 969 q 965 1081 963 1040 z "},"":{"ha":1376,"x_min":-189,"x_max":1483,"o":"m 85 -306 q -90 -281 -1 -328 q -189 -162 -178 -233 q 276 354 -57 42 q 10 313 124 343 q 3 360 3 333 q 24 429 3 386 q 83 513 44 472 q 442 503 189 543 q 1122 986 838 849 q 1183 907 1169 963 l 1196 904 q 1191 896 1194 901 q 1186 888 1188 890 l 1186 881 q 1183 879 1185 881 q 1179 876 1181 878 q 1063 638 1111 761 q 994 415 1015 514 q 978 244 974 317 q 1014 151 982 172 q 1194 192 1083 110 q 1368 418 1304 274 l 1464 356 q 1353 172 1421 253 q 1214 44 1286 90 q 1069 -26 1142 -3 q 933 -45 996 -50 q 829 -12 871 -40 q 793 303 729 56 q 535 353 685 340 q 242 -3 364 172 q 85 -306 121 -178 m 647 465 q 831 422 782 435 q 969 739 882 571 q 647 465 803 617 m 957 1163 q 1051 1236 1008 1208 q 1119 1271 1093 1264 q 1167 1274 1146 1278 q 1198 1258 1188 1271 q 1217 1228 1208 1244 q 1228 1198 1225 1213 q 1236 1174 1232 1183 q 1244 1167 1240 1165 q 1306 1242 1294 1186 q 1386 1260 1344 1257 q 1456 1237 1428 1264 q 1472 1160 1483 1210 q 1317 1043 1404 1081 q 1190 1017 1231 1006 q 1156 1051 1168 1021 q 1140 1110 1143 1082 q 1136 1138 1138 1138 q 1104 1094 1124 1136 q 1085 1019 1085 1051 q 982 1052 1022 993 q 957 1163 942 1111 z "},"":{"ha":1376,"x_min":-189,"x_max":1486,"o":"m 85 -306 q -90 -281 -1 -328 q -189 -162 -178 -233 q 276 354 -57 42 q 10 313 124 343 q 3 360 3 333 q 24 429 3 386 q 83 513 44 472 q 442 503 189 543 q 1122 986 838 849 q 1183 907 1169 963 l 1196 904 q 1191 896 1194 901 q 1186 888 1188 890 l 1186 881 q 1183 879 1185 881 q 1179 876 1181 878 q 1063 638 1111 761 q 994 415 1015 514 q 978 244 974 317 q 1014 151 982 172 q 1194 192 1083 110 q 1368 418 1304 274 l 1464 356 q 1353 172 1421 253 q 1214 44 1286 90 q 1069 -26 1142 -3 q 933 -45 996 -50 q 829 -12 871 -40 q 793 303 729 56 q 535 353 685 340 q 242 -3 364 172 q 85 -306 121 -178 m 647 465 q 831 422 782 435 q 969 739 882 571 q 647 465 803 617 m 925 1129 q 957 1155 931 1136 q 1026 1206 983 1174 q 1106 1278 1069 1239 q 1117 1260 1107 1274 q 1149 1228 1126 1247 q 1200 1193 1172 1208 q 1322 1297 1268 1240 q 1342 1270 1325 1289 q 1399 1224 1358 1251 q 1486 1186 1439 1196 q 1388 1077 1446 1133 q 1272 992 1329 1021 q 1189 1074 1233 1019 q 1056 972 1115 1003 q 925 1129 954 1057 z "},"":{"ha":1376,"x_min":-189,"x_max":1518,"o":"m 85 -306 q -90 -281 -1 -328 q -189 -162 -178 -233 q 276 354 -57 42 q 10 313 124 343 q 3 360 3 333 q 24 429 3 386 q 83 513 44 472 q 442 503 189 543 q 1122 986 838 849 q 1183 907 1169 963 l 1196 904 q 1191 896 1194 901 q 1186 888 1188 890 l 1186 881 q 1183 879 1185 881 q 1179 876 1181 878 q 1063 638 1111 761 q 994 415 1015 514 q 978 244 974 317 q 1014 151 982 172 q 1194 192 1083 110 q 1368 418 1304 274 l 1464 356 q 1353 172 1421 253 q 1214 44 1286 90 q 1069 -26 1142 -3 q 933 -45 996 -50 q 829 -12 871 -40 q 793 303 729 56 q 535 353 685 340 q 242 -3 364 172 q 85 -306 121 -178 m 647 465 q 831 422 782 435 q 969 739 882 571 q 647 465 803 617 m 1194 1008 q 999 1046 1029 975 q 1047 1181 975 1101 q 1297 1318 1140 1282 q 1490 1283 1454 1353 q 1451 1149 1518 1228 q 1206 1011 1365 1046 q 1194 1008 1200 1010 m 1197 1107 q 1282 1158 1240 1113 q 1289 1208 1321 1200 q 1264 1210 1279 1211 q 1171 1156 1197 1203 q 1175 1110 1153 1124 q 1197 1107 1183 1106 z "},"":{"ha":1872,"x_min":-189,"x_max":1965,"o":"m 85 -306 q -90 -281 -1 -328 q -189 -162 -178 -233 q 276 354 -57 42 q 10 313 124 343 q 3 360 3 333 q 24 429 3 386 q 83 513 44 472 q 442 503 189 543 q 1122 986 838 849 q 1167 946 1150 972 q 1442 1010 1296 1008 q 1689 950 1588 1013 q 1764 867 1744 914 q 1773 775 1783 821 q 1744 688 1763 729 q 1712 605 1726 646 q 1703 539 1697 564 q 1611 525 1668 528 q 1492 543 1554 522 q 1414 603 1431 564 q 1452 676 1425 640 q 1504 732 1479 711 q 1553 776 1529 753 q 1584 813 1578 799 q 1579 851 1590 828 q 1508 887 1557 882 q 1403 869 1460 892 q 1292 808 1346 847 q 1199 701 1238 768 q 1153 554 1160 633 q 1372 538 1299 569 q 1425 436 1444 507 q 1350 367 1413 392 q 1205 351 1288 342 q 1061 407 1122 360 q 965 295 992 367 q 966 151 938 224 q 1075 36 994 78 q 1231 3 1140 4 q 1416 33 1321 3 q 1601 116 1511 64 q 1763 248 1690 168 q 1868 418 1835 328 l 1965 357 q 1819 131 1915 233 q 1604 -35 1722 29 q 1358 -133 1486 -99 q 1106 -159 1231 -167 q 886 -103 982 -151 q 759 -11 807 -64 q 697 99 711 42 q 692 212 683 156 q 729 322 700 268 q 535 353 649 342 q 242 -3 364 172 q 85 -306 121 -178 m 647 465 q 734 445 678 458 q 813 426 790 432 q 974 507 890 493 q 951 726 919 619 q 647 465 801 613 z "},"":{"ha":1156,"x_min":-14,"x_max":1246,"o":"m 211 -87 q -1 286 -14 42 q 171 696 7 490 q 531 972 326 889 q 967 950 779 1074 q 1037 862 1022 914 q 1034 756 1051 810 q 991 652 1017 703 q 945 555 965 601 q 932 485 925 508 q 842 472 899 475 q 722 489 785 468 q 643 550 660 510 q 701 644 657 594 q 785 726 744 693 q 850 794 826 760 q 858 851 874 829 q 769 898 828 893 q 645 877 711 903 q 510 795 579 851 q 388 665 440 739 q 285 446 317 564 q 277 219 253 328 q 388 58 301 111 q 533 17 447 21 q 710 40 619 13 q 888 119 801 68 q 1044 249 974 169 q 1147 418 1114 328 l 1246 357 q 1026 58 1175 185 q 704 -122 878 -69 q 374 -146 531 -175 l 360 -158 q 506 -263 471 -181 q 475 -424 540 -346 q 264 -518 404 -507 q 40 -454 124 -529 q 49 -411 38 -435 q 85 -376 61 -387 q 194 -393 142 -403 q 281 -342 247 -383 q 276 -264 318 -292 q 138 -253 233 -239 l 186 -167 l 267 -115 q 211 -87 247 -107 z "},"":{"ha":1135,"x_min":-61,"x_max":1224,"o":"m 144 -103 q -10 25 40 -51 q -54 178 -61 101 q -10 325 -47 254 q 93 445 26 396 q 232 507 160 494 q 199 666 194 592 q 246 799 203 740 q 352 903 289 858 q 497 974 415 949 q 658 1008 578 1000 q 815 1001 738 1017 q 947 950 892 986 q 1022 867 1003 914 q 1031 775 1042 821 q 1003 688 1021 729 q 970 605 985 646 q 961 539 956 564 q 869 525 926 528 q 751 543 813 522 q 672 603 689 564 q 710 676 683 640 q 763 732 738 711 q 812 776 788 753 q 842 813 836 799 q 838 851 849 828 q 767 887 815 882 q 661 869 718 892 q 550 808 604 847 q 457 701 496 768 q 411 554 418 633 q 630 538 557 569 q 683 436 703 507 q 608 367 671 392 q 463 351 546 342 q 319 407 381 360 q 223 295 250 367 q 224 151 196 224 q 333 36 253 78 q 489 3 399 4 q 674 33 579 3 q 859 116 769 64 q 1021 248 949 168 q 1126 418 1093 328 l 1224 357 q 1077 131 1174 233 q 863 -35 981 29 q 617 -133 744 -99 q 365 -159 489 -167 q 144 -103 240 -151 m 644 1140 q 706 1250 653 1200 q 815 1290 760 1300 q 985 1115 843 1196 q 979 1063 993 1094 q 942 1026 965 1032 q 765 1063 850 1033 q 644 1140 681 1092 z "},"":{"ha":1135,"x_min":-61,"x_max":1224,"o":"m 144 -103 q -10 25 40 -51 q -54 178 -61 101 q -10 325 -47 254 q 93 445 26 396 q 232 507 160 494 q 199 666 194 592 q 246 799 203 740 q 352 903 289 858 q 497 974 415 949 q 658 1008 578 1000 q 815 1001 738 1017 q 947 950 892 986 q 1022 867 1003 914 q 1031 775 1042 821 q 1003 688 1021 729 q 970 605 985 646 q 961 539 956 564 q 869 525 926 528 q 751 543 813 522 q 672 603 689 564 q 710 676 683 640 q 763 732 738 711 q 812 776 788 753 q 842 813 836 799 q 838 851 849 828 q 767 887 815 882 q 661 869 718 892 q 550 808 604 847 q 457 701 496 768 q 411 554 418 633 q 630 538 557 569 q 683 436 703 507 q 608 367 671 392 q 463 351 546 342 q 319 407 381 360 q 223 295 250 367 q 224 151 196 224 q 333 36 253 78 q 489 3 399 4 q 674 33 579 3 q 859 116 769 64 q 1021 248 949 168 q 1126 418 1093 328 l 1224 357 q 1077 131 1174 233 q 863 -35 981 29 q 617 -133 744 -99 q 365 -159 489 -167 q 144 -103 240 -151 m 650 1118 q 917 1357 835 1229 q 1010 1315 981 1372 q 1017 1183 1039 1257 q 860 1078 958 1122 q 664 1014 761 1035 q 636 1056 639 1019 q 650 1118 633 1092 z "},"":{"ha":1135,"x_min":-61,"x_max":1224,"o":"m 144 -103 q -10 25 40 -51 q -54 178 -61 101 q -10 325 -47 254 q 93 445 26 396 q 232 507 160 494 q 201 693 186 608 q 280 842 217 778 q 431 948 343 907 q 618 1004 518 989 q 581 1106 576 1050 q 783 1300 711 1194 q 903 1250 886 1283 q 924 1187 903 1217 q 1025 1086 946 1157 q 976 1015 1010 1049 q 904 975 943 982 q 829 1135 886 1018 q 693 1010 785 1090 q 947 950 847 1017 q 1022 867 1003 914 q 1031 775 1042 821 q 1003 688 1021 729 q 970 605 985 646 q 961 539 956 564 q 869 525 926 528 q 751 543 813 522 q 672 603 689 564 q 710 676 683 640 q 763 732 738 711 q 812 776 788 753 q 842 813 836 799 q 838 851 849 828 q 767 887 815 882 q 661 869 718 892 q 550 808 604 847 q 457 701 496 768 q 411 554 418 633 q 630 538 557 569 q 683 436 703 507 q 608 367 671 392 q 463 351 546 342 q 319 407 381 360 q 223 295 250 367 q 224 151 196 224 q 333 36 253 78 q 489 3 399 4 q 674 33 579 3 q 859 116 769 64 q 1021 248 949 168 q 1126 418 1093 328 l 1224 357 q 1077 131 1174 233 q 863 -35 981 29 q 617 -133 744 -99 q 365 -159 489 -167 q 144 -103 240 -151 z "},"":{"ha":1135,"x_min":-61,"x_max":1224,"o":"m 144 -103 q -10 25 40 -51 q -54 178 -61 101 q -10 325 -47 254 q 93 445 26 396 q 232 507 160 494 q 222 758 167 650 q 397 931 278 867 q 658 1008 515 996 q 540 1154 567 1088 q 572 1180 546 1161 q 642 1231 599 1199 q 721 1303 685 1264 q 732 1285 722 1299 q 765 1253 742 1272 q 815 1218 788 1233 q 938 1322 883 1265 q 957 1295 940 1314 q 1014 1249 974 1276 q 1101 1211 1054 1221 q 1003 1102 1061 1158 q 888 1017 944 1046 q 804 1099 849 1044 q 694 1010 744 1040 q 947 950 847 1017 q 1022 867 1003 914 q 1031 775 1042 821 q 1003 688 1021 729 q 970 605 985 646 q 961 539 956 564 q 869 525 926 528 q 751 543 813 522 q 672 603 689 564 q 710 676 683 640 q 763 732 738 711 q 812 776 788 753 q 842 813 836 799 q 838 851 849 828 q 767 887 815 882 q 661 869 718 892 q 550 808 604 847 q 457 701 496 768 q 411 554 418 633 q 630 538 557 569 q 683 436 703 507 q 608 367 671 392 q 463 351 546 342 q 319 407 381 360 q 223 295 250 367 q 224 151 196 224 q 333 36 253 78 q 489 3 399 4 q 674 33 579 3 q 859 116 769 64 q 1021 248 949 168 q 1126 418 1093 328 l 1224 357 q 1077 131 1174 233 q 863 -35 981 29 q 617 -133 744 -99 q 365 -159 489 -167 q 144 -103 240 -151 z "},"":{"ha":729,"x_min":-115,"x_max":817,"o":"m -37 -176 q -113 -21 -111 -115 q -65 193 -115 74 q 50 438 -14 313 q 177 727 114 563 q 258 1036 240 892 q 497 910 329 1038 q 445 727 486 831 q 356 531 404 624 q 253 340 307 439 q 163 170 200 240 q 110 40 126 100 q 119 -32 94 -19 q 304 -14 178 -79 q 552 177 431 51 q 722 418 674 303 l 817 356 q 667 131 775 253 q 431 -83 560 8 q 173 -210 301 -174 q -37 -176 44 -246 m 275 1128 q 337 1238 283 1188 q 446 1278 390 1288 q 615 1103 474 1183 q 610 1051 624 1082 q 572 1014 596 1019 q 396 1050 481 1021 q 275 1128 311 1079 z "},"":{"ha":729,"x_min":-115,"x_max":817,"o":"m -37 -176 q -113 -21 -111 -115 q -65 193 -115 74 q 50 438 -14 313 q 177 727 114 563 q 258 1036 240 892 l 268 1036 q 281 1106 261 1072 q 547 1344 465 1217 q 640 1302 611 1360 q 647 1171 669 1244 q 338 1011 547 1065 q 497 910 413 975 q 445 727 486 831 q 356 531 404 624 q 253 340 307 439 q 163 170 200 240 q 110 40 126 100 q 119 -32 94 -19 q 304 -14 178 -79 q 552 177 431 51 q 722 418 674 303 l 817 356 q 667 131 775 253 q 431 -83 560 8 q 173 -210 301 -174 q -37 -176 44 -246 z "},"":{"ha":729,"x_min":-117,"x_max":817,"o":"m -37 -176 q -112 -26 -108 -117 q -69 179 -117 64 q 38 413 -22 294 q 163 692 99 532 q 251 989 228 851 q 211 1093 207 1038 q 414 1288 342 1182 q 533 1238 517 1271 q 555 1174 533 1204 q 656 1074 576 1144 q 607 1003 640 1036 q 535 963 574 969 q 460 1122 517 1006 q 339 1011 426 1089 q 497 910 410 976 q 445 727 486 831 q 356 531 404 624 q 253 340 307 439 q 163 170 200 240 q 110 40 126 100 q 119 -32 94 -19 q 304 -14 178 -79 q 552 177 431 51 q 722 418 674 303 l 817 356 q 667 131 775 253 q 431 -83 560 8 q 173 -210 301 -174 q -37 -176 44 -246 z "},"":{"ha":729,"x_min":-117,"x_max":817,"o":"m -37 -176 q -113 -22 -110 -115 q -67 190 -117 72 q 47 432 -17 308 q 174 719 110 556 q 257 1025 238 882 q 171 1142 193 1089 q 203 1167 176 1149 q 272 1219 229 1186 q 351 1290 315 1251 q 363 1273 353 1286 q 395 1240 372 1260 q 446 1206 418 1221 q 568 1310 514 1253 q 588 1283 571 1301 q 644 1236 604 1264 q 732 1199 685 1208 q 633 1090 692 1146 q 518 1004 575 1033 q 435 1086 479 1032 q 343 1010 382 1036 q 497 910 408 978 q 445 727 486 831 q 356 531 404 624 q 253 340 307 439 q 163 170 200 240 q 110 40 126 100 q 119 -32 94 -19 q 304 -14 178 -79 q 552 177 431 51 q 722 418 674 303 l 817 356 q 667 131 775 253 q 431 -83 560 8 q 173 -210 301 -174 q -37 -176 44 -246 z "},"":{"ha":1529,"x_min":44,"x_max":1444,"o":"m 551 -37 q 428 -24 500 -60 q 350 65 357 13 q 472 326 368 157 q 338 274 396 306 q 358 413 322 342 q 444 528 393 483 q 610 550 524 546 q 779 911 721 740 q 915 904 818 928 q 979 871 985 888 q 975 865 979 868 q 966 834 971 850 q 956 804 961 818 q 941 772 950 790 q 926 742 932 754 q 908 710 921 731 q 890 678 896 689 q 868 644 883 668 q 847 613 853 621 q 824 578 842 604 q 800 543 806 551 q 921 506 878 531 q 910 406 922 443 q 868 319 899 368 q 682 350 797 349 q 551 -37 578 157 m 51 210 q 156 251 85 239 q 282 239 226 264 q 353 -21 226 79 q 726 -68 481 -121 q 927 26 835 -46 q 1078 190 1019 97 q 1168 393 1136 283 q 1197 602 1200 503 q 1151 784 1193 701 q 1031 906 1108 867 q 917 938 978 932 q 801 935 856 943 q 680 901 746 926 q 567 851 614 875 q 457 787 519 828 q 365 724 394 746 q 286 667 335 703 q 201 728 235 682 q 171 843 168 774 q 350 924 278 893 q 547 993 422 954 q 767 1043 671 1032 q 982 1040 864 1054 q 1200 976 1100 1026 q 1384 810 1324 915 q 1442 587 1444 704 q 1388 343 1440 469 q 1244 110 1335 217 q 1025 -76 1154 4 q 754 -183 896 -157 q 469 -199 600 -214 q 242 -135 338 -183 q 96 3 147 -86 q 51 210 44 93 z "},"":{"ha":1299,"x_min":-208,"x_max":1815,"o":"m 58 -343 q -115 -314 -28 -364 q -208 -193 -201 -264 q 18 -42 -94 -126 q 249 159 131 43 q 462 401 368 275 q 624 679 556 526 q 714 986 693 832 q 871 971 804 1017 l 872 972 q 874 969 872 971 l 874 967 q 892 884 875 956 q 928 713 908 813 q 958 522 947 613 q 1296 854 1114 699 q 1643 1088 1478 1010 q 1736 1019 1689 1071 q 1815 911 1783 968 q 1558 828 1685 886 q 1324 690 1431 769 q 1133 530 1217 610 q 974 361 1049 450 q 897 36 983 111 q 821 -10 857 0 q 760 -3 785 -19 q 723 43 736 13 q 713 121 710 74 q 738 218 717 168 q 786 304 751 250 q 746 626 776 507 q 449 105 626 364 q 58 -343 272 -154 m 928 1069 q 1022 1143 979 1115 q 1090 1178 1064 1171 q 1138 1181 1117 1185 q 1169 1165 1158 1178 q 1188 1135 1179 1151 q 1199 1105 1196 1119 q 1207 1081 1203 1090 q 1215 1074 1211 1072 q 1276 1149 1265 1093 q 1357 1167 1315 1164 q 1426 1144 1399 1171 q 1443 1067 1454 1117 q 1288 950 1375 988 q 1161 924 1201 913 q 1126 958 1139 928 q 1111 1017 1114 989 q 1107 1044 1108 1044 q 1075 1001 1094 1043 q 1056 926 1056 958 q 953 959 993 900 q 928 1069 913 1018 z "},"":{"ha":1153,"x_min":-14,"x_max":1083,"o":"m 374 57 q 535 38 454 11 q 682 134 617 65 q 789 308 747 203 q 835 522 831 413 q 701 540 757 511 q 638 635 646 569 q 769 685 724 642 q 811 779 815 729 q 765 856 807 829 q 656 875 715 881 q 520 815 596 869 q 376 665 444 761 q 272 442 306 563 q 262 213 239 321 q 374 57 285 104 m 197 -90 q 35 76 85 -32 q -1 305 -14 183 q 74 553 13 426 q 238 778 136 679 q 506 964 360 897 q 783 1014 651 1031 q 1013 838 946 993 q 1017 456 1083 674 q 722 22 940 201 q 447 -136 600 -76 q 329 -132 401 -143 q 197 -90 257 -121 m 643 1149 q 705 1258 651 1208 q 814 1299 758 1308 q 983 1124 842 1204 q 978 1072 992 1103 q 940 1035 964 1040 q 764 1071 849 1042 q 643 1149 679 1100 z "},"":{"ha":1153,"x_min":-14,"x_max":1083,"o":"m 374 57 q 535 38 454 11 q 682 134 617 65 q 789 308 747 203 q 835 522 831 413 q 701 540 757 511 q 638 635 646 569 q 769 685 724 642 q 811 779 815 729 q 765 856 807 829 q 656 875 715 881 q 520 815 596 869 q 376 665 444 761 q 272 442 306 563 q 262 213 239 321 q 374 57 285 104 m 197 -90 q 35 76 85 -32 q -1 305 -14 183 q 74 553 13 426 q 238 778 136 679 q 506 964 360 897 q 783 1014 651 1031 q 1013 838 946 993 q 1017 456 1083 674 q 722 22 940 201 q 447 -136 600 -76 q 329 -132 401 -143 q 197 -90 257 -121 m 649 1126 q 915 1365 833 1238 q 1008 1323 979 1381 q 1015 1192 1038 1265 q 858 1087 957 1131 q 663 1022 760 1043 q 635 1064 638 1028 q 649 1126 632 1100 z "},"":{"ha":1153,"x_min":-14,"x_max":1083,"o":"m 374 57 q 535 38 454 11 q 682 134 617 65 q 789 308 747 203 q 835 522 831 413 q 701 540 757 511 q 638 635 646 569 q 769 685 724 642 q 811 779 815 729 q 765 856 807 829 q 656 875 715 881 q 520 815 596 869 q 376 665 444 761 q 272 442 306 563 q 262 213 239 321 q 374 57 285 104 m 197 -90 q 35 76 85 -32 q -1 305 -14 183 q 74 553 13 426 q 238 778 136 679 q 625 1004 418 956 q 579 1114 575 1054 q 782 1308 710 1203 q 901 1258 885 1292 q 923 1195 901 1225 q 1024 1094 944 1165 q 975 1024 1008 1057 q 903 983 942 990 q 828 1143 885 1026 q 688 1014 786 1103 q 783 1014 736 1019 q 1013 838 946 993 q 1017 456 1083 674 q 722 22 940 201 q 447 -136 600 -76 q 329 -132 401 -143 q 197 -90 257 -121 z "},"":{"ha":1153,"x_min":-14,"x_max":1097,"o":"m 374 57 q 535 38 454 11 q 682 134 617 65 q 789 308 747 203 q 835 522 831 413 q 701 540 757 511 q 638 635 646 569 q 769 685 724 642 q 811 779 815 729 q 765 856 807 829 q 656 875 715 881 q 520 815 596 869 q 376 665 444 761 q 272 442 306 563 q 262 213 239 321 q 374 57 285 104 m 197 -90 q 35 76 85 -32 q -1 305 -14 183 q 74 553 13 426 q 238 778 136 679 q 506 964 360 897 q 783 1014 651 1031 q 1013 838 946 993 q 1017 456 1083 674 q 722 22 940 201 q 447 -136 600 -76 q 329 -132 401 -143 q 197 -90 257 -121 m 571 1196 q 665 1269 622 1242 q 733 1304 707 1297 q 781 1308 760 1311 q 812 1291 801 1304 q 831 1262 822 1278 q 842 1231 839 1246 q 850 1208 846 1217 q 858 1200 854 1199 q 919 1275 908 1219 q 1000 1294 958 1290 q 1069 1270 1042 1297 q 1086 1193 1097 1243 q 931 1076 1018 1114 q 804 1050 844 1039 q 769 1085 782 1054 q 754 1143 757 1115 q 750 1171 751 1171 q 718 1127 738 1169 q 699 1053 699 1085 q 596 1085 636 1026 q 571 1196 556 1144 z "},"":{"ha":1153,"x_min":-14,"x_max":1100,"o":"m 374 57 q 535 38 454 11 q 682 134 617 65 q 789 308 747 203 q 835 522 831 413 q 701 540 757 511 q 638 635 646 569 q 769 685 724 642 q 811 779 815 729 q 765 856 807 829 q 656 875 715 881 q 520 815 596 869 q 376 665 444 761 q 272 442 306 563 q 262 213 239 321 q 374 57 285 104 m 197 -90 q 35 76 85 -32 q -1 305 -14 183 q 74 553 13 426 q 238 778 136 679 q 663 1011 443 978 q 539 1163 567 1094 q 571 1188 544 1169 q 640 1240 597 1207 q 719 1311 683 1272 q 731 1294 721 1307 q 763 1261 740 1281 q 814 1226 786 1242 q 936 1331 882 1274 q 956 1303 939 1322 q 1013 1257 972 1285 q 1100 1219 1053 1229 q 1001 1110 1060 1167 q 886 1025 943 1054 q 803 1107 847 1053 q 685 1014 738 1044 q 783 1014 735 1021 q 1013 838 946 993 q 1017 456 1083 674 q 722 22 940 201 q 447 -136 600 -76 q 329 -132 401 -143 q 197 -90 257 -121 z "},"":{"ha":785,"x_min":54,"x_max":682,"o":"m 663 438 q 526 297 588 353 q 628 69 604 154 q 568 1 597 19 q 493 -22 539 -17 q 396 175 458 67 q 144 -18 256 51 q 78 17 94 -4 q 54 82 61 39 q 319 297 163 153 q 117 522 218 447 q 172 591 135 568 q 247 611 208 614 q 321 596 285 608 q 447 426 400 503 q 594 610 540 525 q 661 576 640 606 q 680 511 682 547 q 663 438 678 475 z "},"":{"ha":1153,"x_min":-37,"x_max":1190,"o":"m 374 57 q 535 38 454 11 q 682 134 617 65 q 789 308 747 203 q 835 522 831 413 q 719 532 767 514 q 313 106 497 326 q 374 57 338 76 m -32 -137 q 71 15 15 -62 q 14 390 -37 171 q 238 778 65 610 q 506 964 360 897 q 783 1014 651 1031 q 946 938 879 1001 q 1043 1015 1004 986 q 1159 974 1128 1018 q 1171 881 1190 929 q 1029 789 1103 842 q 1047 637 1053 721 q 1021 467 1042 553 q 949 293 1000 382 q 830 126 897 204 q 663 -22 763 47 q 447 -136 564 -90 q 329 -132 401 -143 q 197 -90 257 -121 l 172 -76 q 101 -186 132 -132 q 44 -201 74 -199 q -8 -189 15 -204 q -32 -137 -32 -174 m 254 251 q 801 813 492 533 q 765 856 790 839 q 656 875 715 881 q 520 815 596 869 q 376 665 444 761 q 278 460 311 572 q 254 251 244 347 z "},"":{"ha":1229,"x_min":-107,"x_max":1318,"o":"m -28 -50 q -97 40 -86 -14 q -76 158 -107 93 q 3 297 -46 224 q 111 456 53 371 q 218 626 169 542 q 293 806 267 710 q 307 988 319 903 q 538 942 474 1013 q 515 803 540 878 q 447 665 489 729 q 356 531 406 600 q 264 407 307 461 q 192 299 221 353 q 160 211 163 244 q 193 150 158 178 q 319 194 232 126 q 589 435 407 263 q 683 525 650 494 q 1049 1003 806 789 q 1133 958 1094 997 q 1192 869 1171 918 q 993 711 1079 803 q 864 533 907 619 q 803 365 821 446 q 797 228 785 285 q 842 153 808 172 q 1037 193 913 110 q 1222 418 1161 276 l 1318 356 q 1205 172 1275 253 q 1059 44 1135 90 q 906 -26 983 -3 q 764 -45 829 -50 q 657 -12 699 -40 q 597 100 611 18 q 606 297 582 182 q 485 181 540 232 q 369 80 429 129 q 256 -1 308 31 q 151 -53 203 -33 q 55 -73 100 -74 q -28 -50 10 -72 m 618 1065 q 680 1175 626 1125 q 789 1215 733 1225 q 958 1040 817 1121 q 953 988 967 1019 q 915 951 939 957 q 739 988 824 958 q 618 1065 654 1017 z "},"":{"ha":1229,"x_min":-107,"x_max":1318,"o":"m -28 -50 q -97 40 -86 -14 q -76 158 -107 93 q 3 297 -46 224 q 111 456 53 371 q 218 626 169 542 q 293 806 267 710 q 307 988 319 903 q 538 942 474 1013 q 515 803 540 878 q 447 665 489 729 q 356 531 406 600 q 264 407 307 461 q 192 299 221 353 q 160 211 163 244 q 193 150 158 178 q 319 194 232 126 q 589 435 407 263 q 683 525 650 494 q 1049 1003 806 789 q 1133 958 1094 997 q 1192 869 1171 918 q 993 711 1079 803 q 864 533 907 619 q 803 365 821 446 q 797 228 785 285 q 842 153 808 172 q 1037 193 913 110 q 1222 418 1161 276 l 1318 356 q 1205 172 1275 253 q 1059 44 1135 90 q 906 -26 983 -3 q 764 -45 829 -50 q 657 -12 699 -40 q 597 100 611 18 q 606 297 582 182 q 485 181 540 232 q 369 80 429 129 q 256 -1 308 31 q 151 -53 203 -33 q 55 -73 100 -74 q -28 -50 10 -72 m 624 1043 q 890 1282 808 1154 q 983 1240 954 1297 q 990 1108 1013 1182 q 833 1003 932 1047 q 638 939 735 960 q 610 981 613 944 q 624 1043 607 1017 z "},"":{"ha":1229,"x_min":-107,"x_max":1318,"o":"m -28 -50 q -97 40 -86 -14 q -76 158 -107 93 q 3 297 -46 224 q 111 456 53 371 q 218 626 169 542 q 293 806 267 710 q 307 988 319 903 q 538 942 474 1013 q 515 803 540 878 q 447 665 489 729 q 356 531 406 600 q 264 407 307 461 q 192 299 221 353 q 160 211 163 244 q 193 150 158 178 q 319 194 232 126 q 589 435 407 263 q 683 525 650 494 q 1049 1003 806 789 q 1133 958 1094 997 q 1192 869 1171 918 q 993 711 1079 803 q 864 533 907 619 q 803 365 821 446 q 797 228 785 285 q 842 153 808 172 q 1037 193 913 110 q 1222 418 1161 276 l 1318 356 q 1205 172 1275 253 q 1059 44 1135 90 q 906 -26 983 -3 q 764 -45 829 -50 q 657 -12 699 -40 q 597 100 611 18 q 606 297 582 182 q 485 181 540 232 q 369 80 429 129 q 256 -1 308 31 q 151 -53 203 -33 q 55 -73 100 -74 q -28 -50 10 -72 m 554 1031 q 757 1225 685 1119 q 876 1175 860 1208 q 898 1112 876 1142 q 999 1011 919 1082 q 950 940 983 974 q 878 900 917 907 q 803 1060 860 943 q 625 899 736 994 q 574 955 596 919 q 554 1031 551 990 z "},"":{"ha":1229,"x_min":-107,"x_max":1318,"o":"m -28 -50 q -97 40 -86 -14 q -76 158 -107 93 q 3 297 -46 224 q 111 456 53 371 q 218 626 169 542 q 293 806 267 710 q 307 988 319 903 q 538 942 474 1013 q 515 803 540 878 q 447 665 489 729 q 356 531 406 600 q 264 407 307 461 q 192 299 221 353 q 160 211 163 244 q 193 150 158 178 q 319 194 232 126 q 589 435 407 263 q 683 525 650 494 q 1049 1003 806 789 q 1133 958 1094 997 q 1192 869 1171 918 q 993 711 1079 803 q 864 533 907 619 q 803 365 821 446 q 797 228 785 285 q 842 153 808 172 q 1037 193 913 110 q 1222 418 1161 276 l 1318 356 q 1205 172 1275 253 q 1059 44 1135 90 q 906 -26 983 -3 q 764 -45 829 -50 q 657 -12 699 -40 q 597 100 611 18 q 606 297 582 182 q 485 181 540 232 q 369 80 429 129 q 256 -1 308 31 q 151 -53 203 -33 q 55 -73 100 -74 q -28 -50 10 -72 m 514 1079 q 546 1105 519 1086 q 615 1156 572 1124 q 694 1228 658 1189 q 706 1210 696 1224 q 738 1178 715 1197 q 789 1143 761 1158 q 911 1247 857 1190 q 931 1220 914 1239 q 988 1174 947 1201 q 1075 1136 1028 1146 q 976 1027 1035 1083 q 861 942 918 971 q 778 1024 822 969 q 644 922 704 953 q 514 1079 543 1007 z "},"":{"ha":964,"x_min":-106,"x_max":1143,"o":"m -26 -50 q -95 40 -85 -14 q -76 158 -106 93 q 3 298 -46 224 q 111 458 53 372 q 217 627 169 543 q 292 807 265 711 q 306 988 318 903 q 538 942 475 1013 q 515 803 540 878 q 447 665 489 729 q 356 531 406 600 q 263 407 307 461 q 190 299 219 353 q 160 211 161 244 q 193 150 158 178 q 317 193 232 126 q 579 429 403 260 q 925 908 757 753 q 1143 781 1057 904 q 866 489 1032 704 q 546 -1 700 274 q 325 -492 392 -276 q 263 -437 290 -472 q 238 -361 235 -401 q 435 133 329 -100 q -26 -50 121 -139 m 601 1076 q 868 1315 786 1188 q 961 1273 932 1331 q 968 1142 990 1215 q 811 1037 910 1081 q 615 972 713 993 q 588 1014 590 978 q 601 1076 585 1050 z "},"":{"ha":1522,"x_min":31,"x_max":1399,"o":"m 619 -337 q 461 -374 553 -386 q 338 -304 369 -362 q 500 143 375 -128 q 782 656 625 414 q 565 591 678 643 q 314 451 451 539 q 149 349 176 364 q 63 417 96 367 q 33 542 31 468 q 219 624 144 593 q 412 697 294 656 q 642 757 529 738 q 863 775 756 776 q 1033 985 951 900 q 1102 964 1069 981 q 1146 933 1135 947 q 1014 760 1076 853 q 1208 693 1113 740 q 1382 463 1365 615 q 1282 176 1399 315 q 904 -33 1143 14 q 651 -44 783 -57 q 619 -337 608 -215 m 682 69 q 869 78 782 58 q 1017 140 957 99 q 1115 238 1076 181 q 1160 354 1153 294 q 1144 474 1168 414 q 1061 581 1119 535 q 940 644 1004 625 q 682 69 771 358 z "},"":{"ha":654,"x_min":-332,"x_max":742,"o":"m -325 -164 q -74 287 -244 -51 q 131 678 97 625 q 349 872 206 801 q 606 928 492 942 q 627 851 622 894 q 616 746 632 808 q 562 616 600 683 q 443 465 524 549 q 249 296 363 381 q 382 253 353 301 q 364 131 411 204 q 523 242 443 165 q 647 418 603 318 l 742 356 q 632 206 724 296 q 413 38 540 115 q 185 -56 285 -40 q 72 -131 118 -104 q 56 64 -35 -92 q 199 178 176 129 q 163 215 214 210 q 65 208 128 218 q -86 -231 -24 -8 q -171 -253 -111 -249 q -281 -235 -231 -257 q -325 -164 -332 -212 m 132 361 q 328 531 244 418 q 414 726 413 643 q 132 361 300 707 z "},"":{"ha":863,"x_min":-110,"x_max":951,"o":"m 143 -6 q 30 -16 78 -25 q -51 19 -18 -7 q -97 92 -85 46 q -106 190 -110 138 q -73 304 -101 242 q 4 426 -44 367 q 162 547 75 513 q 321 560 249 581 q 431 478 393 540 q 465 525 447 504 q 563 485 493 525 q 640 410 633 446 q 611 346 629 386 q 577 272 586 293 q 560 224 568 250 q 557 186 553 199 q 574 161 561 174 q 640 160 594 142 q 747 247 686 179 q 857 418 808 315 l 951 356 q 895 244 931 303 q 808 127 860 186 q 686 31 757 68 q 542 -6 615 -7 q 428 38 474 -3 q 365 144 383 78 q 143 -6 253 28 m 165 147 q 368 333 242 165 l 375 360 q 356 411 369 392 q 322 436 343 431 q 269 423 301 442 q 199 361 238 404 q 94 174 88 239 q 165 147 100 128 m 263 749 q 324 858 271 808 q 433 899 378 908 q 603 724 461 804 q 597 672 611 703 q 560 635 583 640 q 383 671 468 642 q 263 749 299 700 z "},"":{"ha":863,"x_min":-110,"x_max":951,"o":"m 143 -6 q 30 -16 78 -25 q -51 19 -18 -7 q -97 92 -85 46 q -106 190 -110 138 q -73 304 -101 242 q 4 426 -44 367 q 162 547 75 513 q 321 560 249 581 q 431 478 393 540 q 465 525 447 504 q 563 485 493 525 q 640 410 633 446 q 611 346 629 386 q 577 272 586 293 q 560 224 568 250 q 557 186 553 199 q 574 161 561 174 q 640 160 594 142 q 747 247 686 179 q 857 418 808 315 l 951 356 q 895 244 931 303 q 808 127 860 186 q 686 31 757 68 q 542 -6 615 -7 q 428 38 474 -3 q 365 144 383 78 q 143 -6 253 28 m 165 147 q 368 333 242 165 l 375 360 q 356 411 369 392 q 322 436 343 431 q 269 423 301 442 q 199 361 238 404 q 94 174 88 239 q 165 147 100 128 m 268 726 q 535 965 453 838 q 628 923 599 981 q 635 792 657 865 q 478 687 576 731 q 282 622 379 643 q 254 664 257 628 q 268 726 251 700 z "},"":{"ha":863,"x_min":-110,"x_max":951,"o":"m 143 -6 q 30 -16 78 -25 q -51 19 -18 -7 q -97 92 -85 46 q -106 190 -110 138 q -73 304 -101 242 q 4 426 -44 367 q 162 547 75 513 q 321 560 249 581 q 431 478 393 540 q 465 525 447 504 q 563 485 493 525 q 640 410 633 446 q 611 346 629 386 q 577 272 586 293 q 560 224 568 250 q 557 186 553 199 q 574 161 561 174 q 640 160 594 142 q 747 247 686 179 q 857 418 808 315 l 951 356 q 895 244 931 303 q 808 127 860 186 q 686 31 757 68 q 542 -6 615 -7 q 428 38 474 -3 q 365 144 383 78 q 143 -6 253 28 m 165 147 q 368 333 242 165 l 375 360 q 356 411 369 392 q 322 436 343 431 q 269 423 301 442 q 199 361 238 404 q 94 174 88 239 q 165 147 100 128 m 199 714 q 401 908 329 803 q 521 858 504 892 q 542 795 521 825 q 643 694 564 765 q 594 624 628 657 q 522 583 561 590 q 447 743 504 626 q 269 582 381 678 q 218 638 240 603 q 199 714 196 674 z "},"":{"ha":863,"x_min":-110,"x_max":951,"o":"m 143 -6 q 30 -16 78 -25 q -51 19 -18 -7 q -97 92 -85 46 q -106 190 -110 138 q -73 304 -101 242 q 4 426 -44 367 q 162 547 75 513 q 321 560 249 581 q 431 478 393 540 q 465 525 447 504 q 563 485 493 525 q 640 410 633 446 q 611 346 629 386 q 577 272 586 293 q 560 224 568 250 q 557 186 553 199 q 574 161 561 174 q 640 160 594 142 q 747 247 686 179 q 857 418 808 315 l 951 356 q 895 244 931 303 q 808 127 860 186 q 686 31 757 68 q 542 -6 615 -7 q 428 38 474 -3 q 365 144 383 78 q 143 -6 253 28 m 165 147 q 368 333 242 165 l 375 360 q 356 411 369 392 q 322 436 343 431 q 269 423 301 442 q 199 361 238 404 q 94 174 88 239 q 165 147 100 128 m 190 796 q 284 869 242 842 q 353 904 326 897 q 400 908 379 911 q 431 891 421 904 q 450 862 442 878 q 462 831 458 846 q 469 808 465 817 q 478 800 474 799 q 539 875 528 819 q 619 894 578 890 q 689 870 661 897 q 706 793 717 843 q 551 676 638 714 q 424 650 464 639 q 389 685 401 654 q 374 743 376 715 q 369 771 371 771 q 338 727 357 769 q 318 653 318 685 q 215 685 256 626 q 190 796 175 744 z "},"":{"ha":863,"x_min":-110,"x_max":951,"o":"m 143 -6 q 30 -16 78 -25 q -51 19 -18 -7 q -97 92 -85 46 q -106 190 -110 138 q -73 304 -101 242 q 4 426 -44 367 q 162 547 75 513 q 321 560 249 581 q 431 478 393 540 q 465 525 447 504 q 563 485 493 525 q 640 410 633 446 q 611 346 629 386 q 577 272 586 293 q 560 224 568 250 q 557 186 553 199 q 574 161 561 174 q 640 160 594 142 q 747 247 686 179 q 857 418 808 315 l 951 356 q 895 244 931 303 q 808 127 860 186 q 686 31 757 68 q 542 -6 615 -7 q 428 38 474 -3 q 365 144 383 78 q 143 -6 253 28 m 158 763 q 190 788 164 769 q 260 840 217 807 q 339 911 303 872 q 350 894 340 907 q 383 861 360 881 q 433 826 406 842 q 556 931 501 874 q 575 903 558 922 q 632 857 592 885 q 719 819 672 829 q 621 710 679 767 q 506 625 563 654 q 422 707 467 653 q 289 606 349 636 q 158 763 188 690 m 165 147 q 368 333 242 165 l 375 360 q 356 411 369 392 q 322 436 343 431 q 269 423 301 442 q 199 361 238 404 q 94 174 88 239 q 165 147 100 128 z "},"":{"ha":863,"x_min":-110,"x_max":951,"o":"m 143 -6 q 30 -16 78 -25 q -51 19 -18 -7 q -97 92 -85 46 q -106 190 -110 138 q -73 304 -101 242 q 4 426 -44 367 q 162 547 75 513 q 321 560 249 581 q 431 478 393 540 q 465 525 447 504 q 563 485 493 525 q 640 410 633 446 q 611 346 629 386 q 577 272 586 293 q 560 224 568 250 q 557 186 553 199 q 574 161 561 174 q 640 160 594 142 q 747 247 686 179 q 857 418 808 315 l 951 356 q 895 244 931 303 q 808 127 860 186 q 686 31 757 68 q 542 -6 615 -7 q 428 38 474 -3 q 365 144 383 78 q 143 -6 253 28 m 165 147 q 368 333 242 165 l 375 360 q 356 411 369 392 q 322 436 343 431 q 269 423 301 442 q 199 361 238 404 q 94 174 88 239 q 165 147 100 128 m 428 642 q 232 679 263 608 q 281 814 208 735 q 531 951 374 915 q 724 917 688 986 q 685 782 751 861 q 439 644 599 679 q 428 642 433 643 m 431 740 q 515 792 474 746 q 522 842 554 833 q 497 843 513 844 q 404 789 431 836 q 408 743 386 757 q 431 740 417 739 z "},"":{"ha":1135,"x_min":-110,"x_max":1231,"o":"m 143 -6 q 30 -16 78 -25 q -51 19 -18 -7 q -97 92 -85 46 q -106 190 -110 138 q -73 304 -101 242 q 4 426 -44 367 q 133 533 63 497 q 265 568 203 569 q 376 535 326 567 q 447 444 426 503 q 622 563 524 536 q 806 565 719 590 q 890 517 856 549 q 933 446 924 486 q 927 364 942 406 q 860 283 913 322 q 725 218 808 244 q 656 200 719 217 q 556 174 593 183 q 629 115 571 128 q 782 131 688 101 q 988 249 881 161 q 1135 428 1096 336 l 1231 368 q 1092 193 1214 306 q 842 25 971 81 q 546 -5 688 -40 q 361 139 404 31 q 143 -6 250 28 m 165 147 q 378 346 247 168 q 361 403 374 381 q 327 435 349 426 q 272 425 306 443 q 199 361 239 407 q 94 174 88 239 q 165 147 100 128 m 571 282 q 667 318 613 296 q 790 415 779 367 q 761 449 797 443 q 636 374 708 456 q 571 282 590 324 z "},"":{"ha":711,"x_min":-149,"x_max":800,"o":"m 411 25 q 200 -17 304 -21 l 175 -37 q 321 -142 286 -60 q 290 -303 356 -225 q 79 -397 219 -386 q -146 -333 -61 -408 q -136 -290 -149 -314 q -100 -256 -124 -267 q 10 -272 -43 -282 q 96 -221 63 -262 q 90 -143 135 -169 q -49 -132 49 -118 l 1 -46 l 81 6 q -23 69 18 28 q -80 165 -64 110 q -74 291 -96 219 q 10 439 -51 363 q 131 540 64 504 q 259 577 199 575 q 375 563 319 579 q 469 492 438 543 q 488 382 500 442 q 418 282 475 322 q 271 379 275 263 q 357 428 340 392 q 343 456 368 450 q 206 374 286 465 q 128 251 147 310 q 132 159 110 193 q 208 113 154 125 q 350 131 263 101 q 559 244 453 163 q 704 417 665 326 l 800 357 q 662 188 782 294 q 411 25 542 82 z "},"":{"ha":715,"x_min":-90,"x_max":804,"o":"m 415 25 q 257 -15 338 -8 q 110 -3 176 -21 q -4 56 44 15 q -72 153 -53 97 q -70 284 -90 208 q 15 439 -50 360 q 192 562 93 533 q 379 565 292 590 q 463 517 429 549 q 506 446 497 486 q 501 364 515 406 q 434 283 486 322 q 299 218 382 244 q 230 200 293 217 q 129 174 167 183 q 203 115 144 128 q 356 131 261 101 q 562 249 454 161 q 708 428 669 336 l 804 368 q 666 193 788 306 q 415 25 544 81 m 144 282 q 240 318 186 296 q 364 415 353 367 q 335 449 371 443 q 210 374 282 456 q 144 282 164 324 m 247 756 q 309 865 256 815 q 418 906 363 915 q 588 731 446 811 q 582 678 596 710 q 544 642 568 647 q 368 678 453 649 q 247 756 283 707 z "},"":{"ha":715,"x_min":-90,"x_max":804,"o":"m 415 25 q 257 -15 338 -8 q 110 -3 176 -21 q -4 56 44 15 q -72 153 -53 97 q -70 284 -90 208 q 15 439 -50 360 q 192 562 93 533 q 379 565 292 590 q 463 517 429 549 q 506 446 497 486 q 501 364 515 406 q 434 283 486 322 q 299 218 382 244 q 230 200 293 217 q 129 174 167 183 q 203 115 144 128 q 356 131 261 101 q 562 249 454 161 q 708 428 669 336 l 804 368 q 666 193 788 306 q 415 25 544 81 m 144 282 q 240 318 186 296 q 364 415 353 367 q 335 449 371 443 q 210 374 282 456 q 144 282 164 324 m 253 733 q 519 972 438 844 q 613 930 583 988 q 619 799 642 872 q 463 694 561 738 q 267 629 364 650 q 239 671 242 635 q 253 733 236 707 z "},"":{"ha":715,"x_min":-90,"x_max":804,"o":"m 415 25 q 257 -15 338 -8 q 110 -3 176 -21 q -4 56 44 15 q -72 153 -53 97 q -70 284 -90 208 q 15 439 -50 360 q 192 562 93 533 q 379 565 292 590 q 463 517 429 549 q 506 446 497 486 q 501 364 515 406 q 434 283 486 322 q 299 218 382 244 q 230 200 293 217 q 129 174 167 183 q 203 115 144 128 q 356 131 261 101 q 562 249 454 161 q 708 428 669 336 l 804 368 q 666 193 788 306 q 415 25 544 81 m 144 282 q 240 318 186 296 q 364 415 353 367 q 335 449 371 443 q 210 374 282 456 q 144 282 164 324 m 183 721 q 386 915 314 810 q 506 865 489 899 q 527 802 506 832 q 628 701 549 772 q 579 631 613 664 q 507 590 546 597 q 432 750 489 633 q 254 589 365 685 q 203 645 225 610 q 183 721 181 681 z "},"":{"ha":715,"x_min":-90,"x_max":804,"o":"m 415 25 q 257 -15 338 -8 q 110 -3 176 -21 q -4 56 44 15 q -72 153 -53 97 q -70 284 -90 208 q 15 439 -50 360 q 192 562 93 533 q 379 565 292 590 q 463 517 429 549 q 506 446 497 486 q 501 364 515 406 q 434 283 486 322 q 299 218 382 244 q 230 200 293 217 q 129 174 167 183 q 203 115 144 128 q 356 131 261 101 q 562 249 454 161 q 708 428 669 336 l 804 368 q 666 193 788 306 q 415 25 544 81 m 143 769 q 175 795 149 776 q 244 847 201 814 q 324 918 288 879 q 335 901 325 914 q 367 868 344 888 q 418 833 390 849 q 540 938 486 881 q 560 910 543 929 q 617 864 576 892 q 704 826 657 836 q 606 717 664 774 q 490 632 547 661 q 407 714 451 660 q 274 613 333 643 q 143 769 172 697 m 144 282 q 240 318 186 296 q 364 415 353 367 q 335 449 371 443 q 210 374 282 456 q 144 282 164 324 z "},"":{"ha":457,"x_min":-67,"x_max":546,"o":"m 135 -6 q -18 87 31 -1 q -46 299 -67 175 q 58 525 -25 424 q 158 485 90 524 q 233 410 226 446 q 210 360 224 388 q 190 316 197 332 q 175 281 183 300 q 163 250 167 261 q 154 226 158 239 q 150 205 150 213 q 151 189 150 197 q 156 174 153 181 q 167 161 160 168 q 234 160 188 142 q 341 247 281 179 q 450 417 401 315 l 546 356 q 490 244 525 303 q 403 127 454 186 q 281 31 351 68 q 135 -6 210 -7 m 50 679 q 112 789 58 739 q 221 829 165 839 q 390 654 249 735 q 385 602 399 633 q 347 565 371 571 q 171 601 256 572 q 50 679 86 631 z "},"":{"ha":457,"x_min":-67,"x_max":546,"o":"m 135 -6 q -18 87 31 -1 q -46 299 -67 175 q 58 525 -25 424 q 158 485 90 524 q 233 410 226 446 q 210 360 224 388 q 190 316 197 332 q 175 281 183 300 q 163 250 167 261 q 154 226 158 239 q 150 205 150 213 q 151 189 150 197 q 156 174 153 181 q 167 161 160 168 q 234 160 188 142 q 341 247 281 179 q 450 417 401 315 l 546 356 q 490 244 525 303 q 403 127 454 186 q 281 31 351 68 q 135 -6 210 -7 m 56 657 q 322 896 240 768 q 415 853 386 911 q 422 722 444 796 q 265 617 364 661 q 69 553 167 574 q 42 594 44 558 q 56 657 39 631 z "},"":{"ha":457,"x_min":-58,"x_max":546,"o":"m 135 -6 q 10 51 58 -3 q -48 181 -37 104 q -33 349 -58 257 q 51 517 -8 440 q -15 644 -19 571 q 189 839 115 732 q 308 789 292 822 q 330 726 308 756 q 431 625 351 696 q 382 554 415 588 q 310 514 349 521 q 235 674 292 557 q 69 524 158 600 q 170 477 113 513 q 233 410 228 442 q 210 360 224 388 q 190 316 197 332 q 175 281 183 300 q 163 250 167 261 q 154 226 158 239 q 150 205 150 213 q 151 189 150 197 q 156 174 153 181 q 167 161 160 168 q 234 160 188 142 q 341 247 281 179 q 450 417 401 315 l 546 356 q 490 244 525 303 q 403 127 454 186 q 281 31 351 68 q 135 -6 210 -7 z "},"":{"ha":457,"x_min":-67,"x_max":546,"o":"m 135 -6 q -18 87 31 -1 q -46 299 -67 175 q 58 525 -25 424 q 158 485 90 524 q 233 410 226 446 q 210 360 224 388 q 190 316 197 332 q 175 281 183 300 q 163 250 167 261 q 154 226 158 239 q 150 205 150 213 q 151 189 150 197 q 156 174 153 181 q 167 161 160 168 q 234 160 188 142 q 341 247 281 179 q 450 417 401 315 l 546 356 q 490 244 525 303 q 403 127 454 186 q 281 31 351 68 q 135 -6 210 -7 m -54 693 q -22 719 -49 700 q 47 770 4 738 q 126 842 90 803 q 138 824 128 838 q 170 792 147 811 q 221 757 193 772 q 343 861 289 804 q 363 834 346 853 q 419 788 379 815 q 507 750 460 760 q 408 641 467 697 q 293 556 350 585 q 210 638 254 583 q 76 536 136 567 q -54 693 -25 621 z "},"":{"ha":654,"x_min":-108,"x_max":742,"o":"m 267 49 q 89 -62 169 -51 q -22 -17 33 -71 q -92 124 -76 36 q -54 322 -108 211 q 257 603 51 514 q 282 600 274 603 q 272 643 276 628 q 202 616 236 628 q 151 599 168 604 q 133 594 133 593 q 111 707 94 618 q 217 763 208 757 q 158 829 193 796 q 204 911 139 865 q 253 931 246 940 q 339 831 299 888 q 485 933 433 890 q 553 883 532 919 q 571 811 575 847 q 411 707 507 758 q 376 222 508 481 q 526 268 451 222 q 647 418 601 314 l 742 356 q 552 144 690 219 q 279 65 414 69 l 267 49 m 136 172 q 228 270 179 175 q 286 486 278 365 q 93 289 133 403 q 103 183 67 215 q 136 172 117 171 z "},"":{"ha":786,"x_min":-124,"x_max":875,"o":"m 31 -47 l 18 -37 q -124 51 -78 -25 q -40 252 -72 96 q -19 518 -8 408 q 163 467 83 556 q 163 300 176 404 q 383 518 293 421 l 389 525 l 396 532 q 400 527 397 531 q 406 521 403 524 q 503 474 449 508 q 564 410 558 440 q 541 359 554 388 q 520 315 528 331 q 504 281 513 300 q 492 250 496 261 q 483 226 488 239 q 479 205 479 213 q 481 189 479 197 q 485 174 482 181 q 496 161 489 168 q 563 160 517 142 q 671 247 610 179 q 781 418 732 315 l 875 356 q 819 244 856 303 q 732 127 783 186 q 610 31 681 68 q 465 -6 539 -7 q 319 78 368 -1 q 281 269 269 157 q 75 18 174 160 q 46 -24 56 -12 l 31 -47 m 103 704 q 197 778 154 750 q 265 813 239 806 q 313 816 292 819 q 344 799 333 813 q 363 770 354 786 q 374 740 371 754 q 382 716 378 725 q 390 708 386 707 q 451 783 440 728 q 532 802 490 799 q 601 778 574 806 q 618 701 629 751 q 463 585 550 622 q 336 558 376 547 q 301 593 314 563 q 286 651 289 624 q 282 679 283 679 q 250 635 269 678 q 231 561 231 593 q 128 594 168 535 q 103 704 88 653 z "},"":{"ha":690,"x_min":-65,"x_max":779,"o":"m 156 -6 q -10 76 46 8 q -58 231 -65 143 q -12 403 -50 318 q 100 546 25 488 q 256 604 175 604 q 321 557 294 604 q 378 585 347 581 q 441 568 408 589 q 497 501 474 547 q 519 357 522 458 q 685 417 650 335 l 779 356 q 674 256 757 283 q 492 243 592 229 q 156 -6 360 -31 m 151 149 q 249 166 192 128 q 346 276 307 204 q 272 339 301 300 q 260 407 260 375 q 176 351 213 389 q 125 274 140 313 q 116 199 110 235 q 151 149 122 164 m 210 761 q 272 871 218 821 q 381 911 325 921 q 550 736 408 817 q 544 684 558 715 q 507 647 531 653 q 331 683 415 654 q 210 761 246 713 z "},"":{"ha":690,"x_min":-65,"x_max":779,"o":"m 156 -6 q -10 76 46 8 q -58 231 -65 143 q -12 403 -50 318 q 100 546 25 488 q 256 604 175 604 q 321 557 294 604 q 378 585 347 581 q 441 568 408 589 q 497 501 474 547 q 519 357 522 458 q 685 417 650 335 l 779 356 q 674 256 757 283 q 492 243 592 229 q 156 -6 360 -31 m 151 149 q 249 166 192 128 q 346 276 307 204 q 272 339 301 300 q 260 407 260 375 q 176 351 213 389 q 125 274 140 313 q 116 199 110 235 q 151 149 122 164 m 215 739 q 482 978 400 850 q 575 935 546 993 q 582 804 604 878 q 425 699 524 743 q 229 635 326 656 q 201 676 204 640 q 215 739 199 713 z "},"":{"ha":690,"x_min":-64,"x_max":779,"o":"m 156 -6 q 15 51 68 6 q -51 160 -37 97 q -50 294 -64 222 q 0 428 -36 365 q 92 538 36 490 q 210 599 147 586 q 146 726 140 656 q 349 921 276 815 q 468 871 451 904 q 490 808 468 838 q 590 707 511 778 q 542 636 575 669 q 469 596 508 603 q 394 756 451 639 q 225 601 338 701 q 256 604 244 604 q 321 557 294 604 q 378 585 347 581 q 441 568 408 589 q 497 501 474 547 q 519 357 522 458 q 685 417 650 335 l 779 356 q 674 256 757 283 q 492 243 592 229 q 156 -6 360 -31 m 151 149 q 249 166 192 128 q 346 276 307 204 q 272 339 301 300 q 260 407 260 375 q 176 351 213 389 q 125 274 140 313 q 116 199 110 235 q 151 149 122 164 z "},"":{"ha":690,"x_min":-65,"x_max":779,"o":"m 156 -6 q -10 76 46 8 q -58 231 -65 143 q -12 403 -50 318 q 100 546 25 488 q 256 604 175 604 q 321 557 294 604 q 378 585 347 581 q 441 568 408 589 q 497 501 474 547 q 519 357 522 458 q 685 417 650 335 l 779 356 q 674 256 757 283 q 492 243 592 229 q 156 -6 360 -31 m 138 808 q 231 882 189 854 q 300 917 274 910 q 347 920 326 924 q 378 903 368 917 q 397 874 389 890 q 409 844 406 858 q 417 820 413 829 q 425 813 421 811 q 486 888 475 832 q 567 906 525 903 q 636 883 608 910 q 653 806 664 856 q 498 689 585 726 q 371 663 411 651 q 336 697 349 667 q 321 756 324 728 q 317 783 318 783 q 285 740 304 782 q 265 665 265 697 q 163 698 203 639 q 138 808 122 757 m 151 149 q 249 166 192 128 q 346 276 307 204 q 272 339 301 300 q 260 407 260 375 q 176 351 213 389 q 125 274 140 313 q 116 199 110 235 q 151 149 122 164 z "},"":{"ha":690,"x_min":-65,"x_max":779,"o":"m 156 -6 q -10 76 46 8 q -58 231 -65 143 q -12 403 -50 318 q 100 546 25 488 q 256 604 175 604 q 321 557 294 604 q 378 585 347 581 q 441 568 408 589 q 497 501 474 547 q 519 357 522 458 q 685 417 650 335 l 779 356 q 674 256 757 283 q 492 243 592 229 q 156 -6 360 -31 m 106 775 q 138 801 111 782 q 207 852 164 819 q 286 924 250 885 q 297 906 288 919 q 330 874 307 893 q 381 839 353 854 q 503 943 449 886 q 522 916 506 935 q 579 869 539 897 q 667 832 619 842 q 568 723 626 779 q 453 638 510 667 q 369 719 414 665 q 236 618 296 649 q 106 775 135 703 m 151 149 q 249 166 192 128 q 346 276 307 204 q 272 339 301 300 q 260 407 260 375 q 176 351 213 389 q 125 274 140 313 q 116 199 110 235 q 151 149 122 164 z "},"":{"ha":806,"x_min":4,"x_max":751,"o":"m 478 664 q 550 592 515 636 q 593 503 585 547 q 522 469 588 528 q 446 381 469 424 q 365 422 406 393 q 304 489 324 450 q 369 581 324 532 q 478 664 414 631 m 32 160 q 40 266 4 213 q 136 354 75 319 q 483 371 318 376 q 742 338 649 365 q 743 255 751 281 q 704 192 735 229 q 367 211 565 219 q 433 141 401 183 q 474 57 465 99 q 403 24 468 81 q 326 -65 351 -24 q 245 -24 286 -53 q 185 43 204 4 q 244 131 203 83 q 344 211 286 178 q 32 160 161 201 m 474 57 m 593 503 z "},"":{"ha":690,"x_min":-222,"x_max":786,"o":"m 156 -6 q 78 14 106 1 q -112 -258 -53 -146 q -183 -269 -143 -278 q -221 -217 -222 -261 q -15 83 -142 -83 q -57 203 -51 133 q -38 341 -62 272 q 28 469 -14 410 q 131 567 69 529 q 256 604 192 604 q 321 557 294 604 q 431 575 375 604 q 665 783 576 715 q 760 747 733 786 q 769 668 786 708 q 510 469 653 597 q 519 357 522 424 q 685 417 650 335 l 779 356 q 674 256 757 283 q 492 243 592 229 q 156 -6 360 -31 m 117 243 q 260 401 199 336 l 260 407 q 165 338 203 385 q 117 243 126 292 m 185 142 q 270 181 225 144 q 346 276 315 218 q 336 283 344 278 q 322 290 328 288 q 185 142 258 225 z "},"":{"ha":850,"x_min":-62,"x_max":940,"o":"m 96 -3 q -22 73 18 8 q -60 222 -62 138 q -15 404 -58 307 q 104 574 28 501 q 216 517 156 568 q 279 429 276 465 q 129 251 174 328 q 122 154 85 175 q 233 201 160 133 q 381 408 307 269 q 453 528 404 469 q 549 489 478 529 q 628 411 621 449 q 549 231 554 254 q 561 164 536 189 q 628 164 582 144 q 735 251 674 183 q 843 419 796 318 l 940 360 q 883 248 919 306 q 796 131 847 190 q 674 33 744 71 q 528 -3 603 -4 q 412 42 457 0 q 350 156 367 85 q 96 -3 233 -21 m 219 696 q 281 806 228 756 q 390 846 335 856 q 560 671 418 751 q 554 619 568 650 q 517 582 540 588 q 340 618 425 589 q 219 696 256 647 z "},"":{"ha":850,"x_min":-62,"x_max":940,"o":"m 96 -3 q -22 73 18 8 q -60 222 -62 138 q -15 404 -58 307 q 104 574 28 501 q 216 517 156 568 q 279 429 276 465 q 129 251 174 328 q 122 154 85 175 q 233 201 160 133 q 381 408 307 269 q 453 528 404 469 q 549 489 478 529 q 628 411 621 449 q 549 231 554 254 q 561 164 536 189 q 628 164 582 144 q 735 251 674 183 q 843 419 796 318 l 940 360 q 883 248 919 306 q 796 131 847 190 q 674 33 744 71 q 528 -3 603 -4 q 412 42 457 0 q 350 156 367 85 q 96 -3 233 -21 m 225 674 q 492 913 410 785 q 585 870 556 928 q 592 739 614 813 q 435 634 533 678 q 239 569 336 590 q 211 611 214 575 q 225 674 208 647 z "},"":{"ha":850,"x_min":-62,"x_max":940,"o":"m 96 -3 q -22 73 18 8 q -60 222 -62 138 q -15 404 -58 307 q 104 574 28 501 q 216 517 156 568 q 279 429 276 465 q 129 251 174 328 q 122 154 85 175 q 233 201 160 133 q 381 408 307 269 q 453 528 404 469 q 549 489 478 529 q 628 411 621 449 q 549 231 554 254 q 561 164 536 189 q 628 164 582 144 q 735 251 674 183 q 843 419 796 318 l 940 360 q 883 248 919 306 q 796 131 847 190 q 674 33 744 71 q 528 -3 603 -4 q 412 42 457 0 q 350 156 367 85 q 96 -3 233 -21 m 156 661 q 358 856 286 750 q 478 806 461 839 q 499 742 478 772 q 600 642 521 713 q 551 571 585 604 q 479 531 518 538 q 404 690 461 574 q 226 529 338 625 q 175 585 197 550 q 156 661 153 621 z "},"":{"ha":850,"x_min":-62,"x_max":940,"o":"m 96 -3 q -22 73 18 8 q -60 222 -62 138 q -15 404 -58 307 q 104 574 28 501 q 216 517 156 568 q 279 429 276 465 q 129 251 174 328 q 122 154 85 175 q 233 201 160 133 q 381 408 307 269 q 453 528 404 469 q 549 489 478 529 q 628 411 621 449 q 549 231 554 254 q 561 164 536 189 q 628 164 582 144 q 735 251 674 183 q 843 419 796 318 l 940 360 q 883 248 919 306 q 796 131 847 190 q 674 33 744 71 q 528 -3 603 -4 q 412 42 457 0 q 350 156 367 85 q 96 -3 233 -21 m 115 710 q 147 735 121 717 q 217 787 174 754 q 296 858 260 819 q 307 841 297 854 q 340 808 317 828 q 390 774 363 789 q 513 878 458 821 q 532 851 515 869 q 589 804 549 832 q 676 767 629 776 q 578 658 636 714 q 463 572 519 601 q 379 654 424 600 q 246 553 306 583 q 115 710 144 638 z "},"":{"ha":850,"x_min":-271,"x_max":940,"o":"m 156 -289 q 17 -334 85 -324 q -100 -334 -51 -344 q -182 -300 -149 -324 q -226 -244 -215 -276 q -183 -61 -271 -131 q 61 6 -94 8 l 64 6 q -48 136 -22 36 q -32 359 -74 236 q 106 574 10 482 q 219 517 158 568 q 282 429 279 465 q 167 304 211 363 q 112 208 122 246 q 125 154 101 169 q 231 197 161 133 q 371 392 301 261 q 451 528 399 465 q 549 489 479 529 q 626 411 619 449 q 564 278 568 286 q 472 75 514 154 q 571 113 525 93 q 720 228 649 144 q 843 419 792 311 l 940 360 q 841 190 908 281 q 689 44 774 99 q 382 -74 561 -39 q 156 -289 272 -236 m -50 -189 q 13 -210 -33 -214 q 106 -169 58 -206 q 174 -101 139 -142 q 44 -107 108 -107 q -37 -119 -10 -107 q -66 -149 -65 -131 q -50 -189 -67 -167 m 203 14 q 258 22 239 19 q 286 74 274 47 q 203 14 246 33 m 218 681 q 485 919 403 792 q 578 877 549 935 q 585 746 607 819 q 428 641 526 685 q 232 576 329 597 q 204 618 207 582 q 218 681 201 654 z "},"":{"ha":753,"x_min":-369,"x_max":842,"o":"m -211 -456 q -369 -367 -321 -451 q -201 -39 -353 -379 q 84 656 -50 301 q 192 1031 218 1010 q 375 978 293 1067 q 221 489 397 942 q 478 497 376 575 q 544 336 547 439 q 475 139 540 233 q 628 251 553 178 q 746 417 703 324 l 842 356 q 774 245 826 310 q 648 118 722 181 q 472 19 574 56 q 272 -1 371 -17 q 238 -7 263 -4 q 38 44 115 -18 q -211 -456 -156 -403 m 122 244 q 167 200 154 228 q 157 180 161 201 q 160 135 153 158 q 192 111 168 113 q 264 140 226 108 q 324 217 301 172 q 351 308 346 261 q 328 379 357 354 q 142 290 268 432 l 122 244 z "},"":{"ha":850,"x_min":-271,"x_max":940,"o":"m 156 -289 q 17 -334 85 -324 q -100 -334 -51 -344 q -182 -300 -149 -324 q -226 -244 -215 -276 q -183 -61 -271 -131 q 61 6 -94 8 l 64 6 q -48 136 -22 36 q -32 359 -74 236 q 106 574 10 482 q 219 517 158 568 q 282 429 279 465 q 167 304 211 363 q 112 208 122 246 q 125 154 101 169 q 231 197 161 133 q 371 392 301 261 q 451 528 399 465 q 549 489 479 529 q 626 411 619 449 q 564 278 568 286 q 472 75 514 154 q 571 113 525 93 q 720 228 649 144 q 843 419 792 311 l 940 360 q 841 190 908 281 q 689 44 774 99 q 382 -74 561 -39 q 156 -289 272 -236 m -50 -189 q 13 -210 -33 -214 q 106 -169 58 -206 q 174 -101 139 -142 q 44 -107 108 -107 q -37 -119 -10 -107 q -66 -149 -65 -131 q -50 -189 -67 -167 m 108 717 q 140 742 114 724 q 210 794 167 761 q 289 865 253 826 q 300 848 290 861 q 333 815 310 835 q 383 781 356 796 q 506 885 451 828 q 525 858 508 876 q 582 811 542 839 q 669 774 622 783 q 571 665 629 721 q 456 579 513 608 q 372 661 417 607 q 239 560 299 590 q 108 717 138 644 m 203 14 q 258 22 239 19 q 286 74 274 47 q 203 14 246 33 z "},"":{"ha":1376,"x_min":-189,"x_max":1464,"o":"m 85 -306 q -90 -281 -1 -328 q -189 -162 -178 -233 q 276 354 -57 42 q 10 313 124 343 q 3 360 3 333 q 24 429 3 386 q 83 513 44 472 q 442 503 189 543 q 1122 986 838 849 q 1183 907 1169 963 l 1196 904 q 1191 896 1194 901 q 1186 888 1188 890 l 1186 881 q 1183 879 1185 881 q 1179 876 1181 878 q 1063 638 1111 761 q 994 415 1015 514 q 978 244 974 317 q 1014 151 982 172 q 1194 192 1083 110 q 1368 418 1304 274 l 1464 356 q 1353 172 1421 253 q 1214 44 1286 90 q 1069 -26 1142 -3 q 933 -45 996 -50 q 829 -12 871 -40 q 793 303 729 56 q 535 353 685 340 q 242 -3 364 172 q 85 -306 121 -178 m 647 465 q 831 422 782 435 q 969 739 882 571 q 647 465 803 617 m 938 1060 q 988 1176 926 1101 q 1358 1178 1244 1153 q 1385 1126 1383 1163 q 1374 1059 1386 1090 q 1349 1008 1363 1028 q 989 1039 1186 974 q 938 1060 936 1056 z "},"":{"ha":863,"x_min":-110,"x_max":951,"o":"m 143 -6 q 30 -16 78 -25 q -51 19 -18 -7 q -97 92 -85 46 q -106 190 -110 138 q -73 304 -101 242 q 4 426 -44 367 q 162 547 75 513 q 321 560 249 581 q 431 478 393 540 q 465 525 447 504 q 563 485 493 525 q 640 410 633 446 q 611 346 629 386 q 577 272 586 293 q 560 224 568 250 q 557 186 553 199 q 574 161 561 174 q 640 160 594 142 q 747 247 686 179 q 857 418 808 315 l 951 356 q 895 244 931 303 q 808 127 860 186 q 686 31 757 68 q 542 -6 615 -7 q 428 38 474 -3 q 365 144 383 78 q 143 -6 253 28 m 165 147 q 368 333 242 165 l 375 360 q 356 411 369 392 q 322 436 343 431 q 269 423 301 442 q 199 361 238 404 q 94 174 88 239 q 165 147 100 128 m 171 693 q 221 810 160 735 q 592 811 478 786 q 618 760 617 796 q 608 692 619 724 q 582 642 596 661 q 222 672 419 607 q 171 693 169 689 z "},"":{"ha":1376,"x_min":-189,"x_max":1464,"o":"m 85 -306 q -90 -281 -1 -328 q -189 -162 -178 -233 q 276 354 -57 42 q 10 313 124 343 q 3 360 3 333 q 24 429 3 386 q 83 513 44 472 q 442 503 189 543 q 1122 986 838 849 q 1183 907 1169 963 l 1196 904 q 1191 896 1194 901 q 1186 888 1188 890 l 1186 881 q 1183 879 1185 881 q 1179 876 1181 878 q 1063 638 1111 761 q 994 415 1015 514 q 978 244 974 317 q 1014 151 982 172 q 1194 192 1083 110 q 1368 418 1304 274 l 1464 356 q 1353 172 1421 253 q 1214 44 1286 90 q 1069 -26 1142 -3 q 933 -45 996 -50 q 829 -12 871 -40 q 793 303 729 56 q 535 353 685 340 q 242 -3 364 172 q 85 -306 121 -178 m 647 465 q 831 422 782 435 q 969 739 882 571 q 647 465 803 617 m 939 1181 q 996 1224 964 1207 q 1056 1246 1028 1242 q 1110 1247 1085 1250 q 1150 1232 1135 1244 q 1167 1203 1165 1219 q 1201 1107 1161 1118 q 1299 1188 1244 1096 q 1314 1215 1307 1200 q 1386 1235 1353 1235 q 1440 1217 1419 1235 q 1451 1172 1460 1199 q 1357 1061 1417 1107 q 1231 1001 1297 1015 q 1103 998 1165 988 q 997 1056 1042 1008 q 939 1181 951 1104 z "},"":{"ha":863,"x_min":-110,"x_max":951,"o":"m 143 -6 q 30 -16 78 -25 q -51 19 -18 -7 q -97 92 -85 46 q -106 190 -110 138 q -73 304 -101 242 q 4 426 -44 367 q 162 547 75 513 q 321 560 249 581 q 431 478 393 540 q 465 525 447 504 q 563 485 493 525 q 640 410 633 446 q 611 346 629 386 q 577 272 586 293 q 560 224 568 250 q 557 186 553 199 q 574 161 561 174 q 640 160 594 142 q 747 247 686 179 q 857 418 808 315 l 951 356 q 895 244 931 303 q 808 127 860 186 q 686 31 757 68 q 542 -6 615 -7 q 428 38 474 -3 q 365 144 383 78 q 143 -6 253 28 m 165 147 q 368 333 242 165 l 375 360 q 356 411 369 392 q 322 436 343 431 q 269 423 301 442 q 199 361 238 404 q 94 174 88 239 q 165 147 100 128 m 172 814 q 229 858 197 840 q 290 879 261 875 q 343 881 318 883 q 383 865 368 878 q 400 836 399 853 q 435 740 394 751 q 532 821 478 729 l 547 849 q 619 868 586 868 q 673 850 653 868 q 685 806 693 832 q 590 694 650 740 q 465 635 531 649 q 337 631 399 621 q 230 690 275 642 q 172 814 185 738 z "},"":{"ha":1376,"x_min":-189,"x_max":1464,"o":"m 85 -306 q -90 -281 -1 -328 q -189 -162 -178 -233 q 276 354 -57 42 q 10 313 124 343 q 3 360 3 333 q 24 429 3 386 q 83 513 44 472 q 442 503 189 543 q 1122 986 838 849 q 1183 907 1169 963 l 1196 904 q 1191 896 1194 901 q 1186 888 1188 890 l 1186 881 q 1183 879 1185 881 q 1179 876 1181 878 q 1063 638 1111 761 q 994 415 1015 514 q 978 244 974 317 q 1014 151 982 172 q 1194 192 1083 110 q 1368 418 1304 274 l 1464 356 q 1338 153 1415 240 q 1179 22 1260 67 q 1018 -39 1099 -24 q 933 -85 971 -60 q 876 -132 896 -110 q 842 -177 856 -154 q 831 -215 829 -200 q 838 -240 832 -229 q 936 -243 868 -276 q 967 -268 957 -249 q 967 -312 976 -287 q 788 -406 879 -390 q 643 -365 696 -422 q 618 -295 618 -336 q 640 -208 618 -254 q 716 -114 663 -162 q 847 -24 769 -65 q 838 -19 844 -22 q 829 -12 832 -15 q 793 303 729 56 q 535 353 685 340 q 242 -3 364 172 q 85 -306 121 -178 m 647 465 q 831 422 782 435 q 969 739 882 571 q 647 465 803 617 z "},"":{"ha":863,"x_min":-110,"x_max":951,"o":"m 143 -6 q 30 -16 78 -25 q -51 19 -18 -7 q -97 92 -85 46 q -106 190 -110 138 q -73 304 -101 242 q 4 426 -44 367 q 162 547 75 513 q 321 560 249 581 q 431 478 393 540 q 465 525 447 504 q 563 485 493 525 q 640 410 633 446 q 611 346 629 386 q 577 272 586 293 q 560 224 568 250 q 557 186 553 199 q 574 161 561 174 q 640 160 594 142 q 747 247 686 179 q 857 418 808 315 l 951 356 q 897 248 932 304 q 814 134 863 192 q 698 37 765 76 q 560 -6 631 -3 q 451 -80 493 -39 q 403 -149 408 -121 q 406 -194 397 -176 q 504 -197 436 -231 q 535 -222 525 -203 q 535 -267 544 -242 q 356 -360 447 -344 q 211 -319 264 -376 q 215 -151 158 -254 q 435 32 271 -49 q 365 144 385 72 q 143 -6 253 28 m 165 147 q 368 333 242 165 l 375 360 q 356 411 369 392 q 322 436 343 431 q 269 423 301 442 q 199 361 238 404 q 94 174 88 239 q 165 147 100 128 z "},"":{"ha":1156,"x_min":-3,"x_max":1246,"o":"m 211 -87 q 51 64 106 -26 q -2 252 -3 154 q 33 454 -1 350 q 139 653 68 558 q 295 824 210 747 q 485 952 381 901 q 689 1014 589 1003 q 697 1099 671 1050 q 964 1338 882 1210 q 1057 1295 1028 1353 q 1064 1164 1086 1238 q 788 1014 972 1068 q 967 950 886 1003 q 1037 862 1022 914 q 1034 756 1051 810 q 991 652 1017 703 q 945 555 965 601 q 932 485 925 508 q 842 472 899 475 q 722 489 785 468 q 643 550 660 510 q 701 644 657 594 q 785 726 744 693 q 850 794 826 760 q 858 851 874 829 q 769 898 828 893 q 645 877 711 903 q 510 795 579 851 q 388 665 440 739 q 285 446 317 564 q 277 219 253 328 q 388 58 301 111 q 533 17 447 21 q 710 40 619 13 q 888 119 801 68 q 1044 249 974 169 q 1147 418 1114 328 l 1246 357 q 1056 84 1183 203 q 781 -94 928 -35 q 481 -155 635 -154 q 211 -87 326 -156 z "},"":{"ha":711,"x_min":-96,"x_max":800,"o":"m 411 25 q 253 -15 333 -8 q 106 -3 172 -21 q -10 56 39 15 q -77 153 -58 97 q -76 285 -96 210 q 10 439 -56 360 q 131 540 64 504 q 259 577 199 575 q 375 563 319 579 q 469 492 438 543 q 488 382 500 442 q 418 282 475 322 q 271 379 275 263 q 357 428 340 392 q 343 456 368 450 q 206 374 286 465 q 128 251 147 310 q 132 159 110 193 q 208 113 154 125 q 350 131 263 101 q 559 244 453 163 q 704 417 665 326 l 800 357 q 662 188 782 294 q 411 25 542 82 m 199 693 q 465 932 383 804 q 558 890 529 947 q 565 758 588 832 q 408 653 507 697 q 213 589 310 610 q 185 631 188 594 q 199 693 182 667 z "},"":{"ha":1156,"x_min":-14,"x_max":1246,"o":"m 211 -87 q 39 88 92 -18 q -1 306 -14 193 q 69 535 11 418 q 216 749 126 653 q 420 915 306 844 q 649 1007 535 986 q 628 1086 626 1046 q 831 1281 758 1175 q 950 1231 933 1264 q 972 1167 950 1197 q 1072 1067 993 1138 q 1026 997 1057 1031 q 957 957 994 964 l 967 950 q 1037 862 1022 914 q 1034 756 1051 810 q 991 652 1017 703 q 945 555 965 601 q 932 485 925 508 q 842 472 899 475 q 722 489 785 468 q 643 550 660 510 q 701 644 657 594 q 785 726 744 693 q 850 794 826 760 q 858 851 874 829 q 769 898 828 893 q 645 877 711 903 q 510 795 579 851 q 388 665 440 739 q 285 446 317 564 q 277 219 253 328 q 388 58 301 111 q 533 17 447 21 q 710 40 619 13 q 888 119 801 68 q 1044 249 974 169 q 1147 418 1114 328 l 1246 357 q 1056 84 1183 203 q 781 -94 928 -35 q 481 -155 635 -154 q 211 -87 326 -156 m 768 1015 q 949 961 868 1008 q 876 1115 935 997 q 768 1015 857 1096 z "},"":{"ha":711,"x_min":-96,"x_max":800,"o":"m 411 25 q 253 -15 333 -8 q 106 -3 172 -21 q -10 56 39 15 q -77 153 -58 97 q -76 285 -96 210 q 10 439 -56 360 q 183 563 83 528 q 129 681 125 614 q 332 875 260 769 q 451 825 435 858 q 473 762 451 792 q 574 661 494 732 q 525 590 558 624 q 453 550 492 557 q 378 710 435 593 q 228 574 313 647 q 375 563 304 588 q 469 492 438 543 q 488 382 500 442 q 418 282 475 322 q 271 379 275 263 q 357 428 340 392 q 343 456 368 450 q 206 374 286 465 q 128 251 147 310 q 132 159 110 193 q 208 113 154 125 q 350 131 263 101 q 559 244 453 163 q 704 417 665 326 l 800 357 q 662 188 782 294 q 411 25 542 82 z "},"":{"ha":1156,"x_min":-14,"x_max":1246,"o":"m 211 -87 q -1 286 -14 42 q 171 696 7 490 q 531 972 326 889 q 967 950 779 1074 q 1037 862 1022 914 q 1034 756 1051 810 q 991 652 1017 703 q 945 555 965 601 q 932 485 925 508 q 842 472 899 475 q 722 489 785 468 q 643 550 660 510 q 701 644 657 594 q 785 726 744 693 q 850 794 826 760 q 858 851 874 829 q 769 898 828 893 q 645 877 711 903 q 510 795 579 851 q 388 665 440 739 q 285 446 317 564 q 277 219 253 328 q 388 58 301 111 q 533 17 447 21 q 710 40 619 13 q 888 119 801 68 q 1044 249 974 169 q 1147 418 1114 328 l 1246 357 q 1056 84 1183 203 q 781 -94 928 -35 q 481 -155 635 -154 q 211 -87 326 -156 m 707 1163 q 739 1188 713 1169 q 808 1238 765 1206 q 888 1311 850 1271 q 907 1284 890 1303 q 964 1238 924 1265 q 1051 1200 1004 1210 q 953 1091 1013 1147 q 838 1006 894 1035 q 707 1163 739 1088 z "},"":{"ha":711,"x_min":-96,"x_max":800,"o":"m 411 25 q 253 -15 333 -8 q 106 -3 172 -21 q -10 56 39 15 q -77 153 -58 97 q -76 285 -96 210 q 10 439 -56 360 q 131 540 64 504 q 259 577 199 575 q 375 563 319 579 q 469 492 438 543 q 488 382 500 442 q 418 282 475 322 q 271 379 275 263 q 357 428 340 392 q 343 456 368 450 q 206 374 286 465 q 128 251 147 310 q 132 159 110 193 q 208 113 154 125 q 350 131 263 101 q 559 244 453 163 q 704 417 665 326 l 800 357 q 662 188 782 294 q 411 25 542 82 m 208 757 q 240 782 214 764 q 309 833 267 800 q 389 906 351 865 q 408 878 392 897 q 465 832 425 860 q 553 794 506 804 q 455 685 514 742 q 339 600 396 629 q 208 757 240 682 z "},"":{"ha":1156,"x_min":-19,"x_max":1246,"o":"m 211 -87 q 31 104 82 -12 q 3 343 -19 221 q 99 590 25 465 q 277 810 172 714 q 511 963 382 906 q 761 1015 640 1021 q 749 1031 751 1025 q 724 1094 746 1064 q 625 1196 703 1124 q 673 1265 640 1232 q 746 1306 706 1299 q 824 1146 768 1254 q 999 1307 892 1214 q 1049 1251 1026 1288 q 1071 1175 1072 1215 q 876 994 950 1094 q 967 950 928 975 q 1037 862 1022 914 q 1034 756 1051 810 q 991 652 1017 703 q 945 555 965 601 q 932 485 925 508 q 842 472 899 475 q 722 489 785 468 q 643 550 660 510 q 701 644 657 594 q 785 726 744 693 q 850 794 826 760 q 858 851 874 829 q 769 898 828 893 q 645 877 711 903 q 510 795 579 851 q 388 665 440 739 q 285 446 317 564 q 277 219 253 328 q 388 58 301 111 q 533 17 447 21 q 710 40 619 13 q 888 119 801 68 q 1044 249 974 169 q 1147 418 1114 328 l 1246 357 q 1056 84 1183 203 q 781 -94 928 -35 q 481 -155 635 -154 q 211 -87 326 -156 z "},"":{"ha":711,"x_min":-96,"x_max":800,"o":"m 411 25 q 253 -15 333 -8 q 106 -3 172 -21 q -10 56 39 15 q -77 153 -58 97 q -76 285 -96 210 q 10 439 -56 360 q 131 540 64 504 q 259 577 199 575 q 375 563 319 579 q 469 492 438 543 q 488 382 500 442 q 418 282 475 322 q 271 379 275 263 q 357 428 340 392 q 343 456 368 450 q 206 374 286 465 q 128 251 147 310 q 132 159 110 193 q 208 113 154 125 q 350 131 263 101 q 559 244 453 163 q 704 417 665 326 l 800 357 q 662 188 782 294 q 411 25 542 82 m 126 790 q 174 860 142 826 q 247 900 207 893 q 325 740 269 849 q 500 901 393 808 q 551 846 528 882 q 572 769 574 810 q 368 575 442 682 q 250 625 267 590 q 226 688 247 658 q 126 790 204 718 z "},"":{"ha":1529,"x_min":44,"x_max":1444,"o":"m 551 -37 q 428 -24 500 -60 q 350 65 357 13 q 416 231 363 133 q 531 419 469 328 q 664 647 592 511 q 779 911 736 783 q 915 904 818 928 q 979 871 985 888 q 975 865 979 868 q 917 724 961 801 q 819 569 872 647 q 711 402 765 490 q 613 199 657 314 q 551 -37 568 83 m 51 210 q 156 251 85 239 q 282 239 226 264 q 353 -21 226 79 q 726 -68 481 -121 q 927 26 835 -46 q 1078 190 1019 97 q 1168 393 1136 283 q 1197 602 1200 503 q 1151 784 1193 701 q 1031 906 1108 867 q 917 938 978 932 q 801 935 856 943 q 680 901 746 926 q 567 851 614 875 q 457 787 519 828 q 365 724 394 746 q 286 667 335 703 q 201 728 235 682 q 171 843 168 774 q 273 889 232 871 q 382 935 314 907 q 502 979 450 963 q 624 1014 554 996 q 755 1040 694 1032 q 883 1048 815 1047 q 1014 1038 951 1049 q 988 1099 1011 1069 q 890 1199 965 1129 q 938 1268 906 1235 q 1011 1308 971 1301 q 1089 1149 1033 1257 q 1264 1310 1157 1217 q 1315 1254 1292 1290 q 1336 1178 1338 1218 q 1144 1001 1218 1100 q 1200 976 1172 992 q 1384 810 1324 915 q 1442 587 1444 704 q 1388 343 1440 469 q 1244 110 1335 217 q 1025 -76 1154 4 q 754 -183 896 -157 q 469 -199 600 -214 q 242 -135 338 -183 q 96 3 147 -86 q 51 210 44 93 z "},"":{"ha":865,"x_min":-108,"x_max":1249,"o":"m 146 -6 q 33 -16 81 -25 q -49 19 -15 -7 q -95 90 -82 44 q -104 188 -108 136 q -72 303 -100 240 q 6 426 -43 365 q 163 547 76 513 q 322 561 250 581 q 432 479 393 542 q 576 785 485 631 q 778 1058 668 939 q 878 1017 808 1058 q 953 942 949 976 q 753 656 838 783 q 619 440 668 528 q 548 289 571 351 q 526 194 525 226 q 547 149 526 161 q 691 195 593 122 q 860 418 789 268 l 954 356 q 914 269 939 314 q 849 174 889 224 q 765 85 810 124 q 662 20 721 46 q 543 -6 603 -6 q 378 153 396 -6 q 146 -6 258 29 m 169 147 q 379 344 250 168 q 354 418 374 393 q 294 432 335 443 q 201 361 254 421 q 97 174 90 239 q 169 147 103 128 m 965 1000 q 1040 1042 1001 1026 q 1139 1050 1079 1058 q 1249 990 1199 1042 q 1151 856 1206 972 q 1107 663 1097 739 q 1047 633 1092 639 q 979 636 1003 626 q 963 687 974 635 q 947 819 951 739 q 965 1000 943 900 z "},"":{"ha":1529,"x_min":44,"x_max":1444,"o":"m 551 -37 q 428 -24 500 -60 q 350 65 357 13 q 472 326 368 157 q 338 274 396 306 q 358 413 322 342 q 444 528 393 483 q 610 550 524 546 q 779 911 721 740 q 915 904 818 928 q 979 871 985 888 q 975 865 979 868 q 966 834 971 850 q 956 804 961 818 q 941 772 950 790 q 926 742 932 754 q 908 710 921 731 q 890 678 896 689 q 868 644 883 668 q 847 613 853 621 q 824 578 842 604 q 800 543 806 551 q 921 506 878 531 q 910 406 922 443 q 868 319 899 368 q 682 350 797 349 q 551 -37 578 157 m 51 210 q 156 251 85 239 q 282 239 226 264 q 353 -21 226 79 q 726 -68 481 -121 q 927 26 835 -46 q 1078 190 1019 97 q 1168 393 1136 283 q 1197 602 1200 503 q 1151 784 1193 701 q 1031 906 1108 867 q 917 938 978 932 q 801 935 856 943 q 680 901 746 926 q 567 851 614 875 q 457 787 519 828 q 365 724 394 746 q 286 667 335 703 q 201 728 235 682 q 171 843 168 774 q 350 924 278 893 q 547 993 422 954 q 767 1043 671 1032 q 982 1040 864 1054 q 1200 976 1100 1026 q 1384 810 1324 915 q 1442 587 1444 704 q 1388 343 1440 469 q 1244 110 1335 217 q 1025 -76 1154 4 q 754 -183 896 -157 q 469 -199 600 -214 q 242 -135 338 -183 q 96 3 147 -86 q 51 210 44 93 z "},"":{"ha":865,"x_min":-108,"x_max":954,"o":"m 146 -6 q 33 -16 81 -25 q -49 19 -15 -7 q -95 90 -82 44 q -104 188 -108 136 q -72 303 -100 240 q 6 426 -43 365 q 163 547 76 513 q 322 561 250 581 q 432 479 393 542 q 513 668 467 575 q 321 603 406 650 q 341 742 306 671 q 428 857 376 813 q 639 882 536 879 q 778 1058 703 975 q 878 1017 808 1058 q 953 942 949 976 l 883 844 q 904 835 897 839 q 894 735 906 772 q 851 649 882 697 q 763 671 813 663 q 547 149 451 206 q 691 195 593 122 q 860 418 789 268 l 954 356 q 914 269 939 314 q 849 174 889 224 q 765 85 810 124 q 662 20 721 46 q 543 -6 603 -6 q 378 153 396 -6 q 146 -6 258 29 m 169 147 q 379 344 250 168 q 354 418 374 393 q 294 432 335 443 q 201 361 254 421 q 97 174 90 239 q 169 147 103 128 z "},"":{"ha":1135,"x_min":-61,"x_max":1224,"o":"m 144 -103 q -10 25 40 -51 q -54 178 -61 101 q -10 325 -47 254 q 93 445 26 396 q 232 507 160 494 q 199 666 194 592 q 246 799 203 740 q 352 903 289 858 q 497 974 415 949 q 658 1008 578 1000 q 815 1001 738 1017 q 947 950 892 986 q 1022 867 1003 914 q 1031 775 1042 821 q 1003 688 1021 729 q 970 605 985 646 q 961 539 956 564 q 869 525 926 528 q 751 543 813 522 q 672 603 689 564 q 710 676 683 640 q 763 732 738 711 q 812 776 788 753 q 842 813 836 799 q 838 851 849 828 q 767 887 815 882 q 661 869 718 892 q 550 808 604 847 q 457 701 496 768 q 411 554 418 633 q 630 538 557 569 q 683 436 703 507 q 608 367 671 392 q 463 351 546 342 q 319 407 381 360 q 223 295 250 367 q 224 151 196 224 q 333 36 253 78 q 489 3 399 4 q 674 33 579 3 q 859 116 769 64 q 1021 248 949 168 q 1126 418 1093 328 l 1224 357 q 1077 131 1174 233 q 863 -35 981 29 q 617 -133 744 -99 q 365 -159 489 -167 q 144 -103 240 -151 m 553 1085 q 603 1201 542 1126 q 974 1203 860 1178 q 1000 1151 999 1188 q 990 1084 1001 1115 q 964 1033 978 1053 q 604 1064 801 999 q 553 1085 551 1081 z "},"":{"ha":715,"x_min":-90,"x_max":804,"o":"m 415 25 q 257 -15 338 -8 q 110 -3 176 -21 q -4 56 44 15 q -72 153 -53 97 q -70 284 -90 208 q 15 439 -50 360 q 192 562 93 533 q 379 565 292 590 q 463 517 429 549 q 506 446 497 486 q 501 364 515 406 q 434 283 486 322 q 299 218 382 244 q 230 200 293 217 q 129 174 167 183 q 203 115 144 128 q 356 131 261 101 q 562 249 454 161 q 708 428 669 336 l 804 368 q 666 193 788 306 q 415 25 544 81 m 144 282 q 240 318 186 296 q 364 415 353 367 q 335 449 371 443 q 210 374 282 456 q 144 282 164 324 m 156 700 q 206 817 144 742 q 576 818 463 793 q 603 767 601 803 q 592 699 604 731 q 567 649 581 668 q 207 679 404 614 q 156 700 154 696 z "},"":{"ha":1135,"x_min":-61,"x_max":1224,"o":"m 144 -103 q -10 25 40 -51 q -54 178 -61 101 q -10 325 -47 254 q 93 445 26 396 q 232 507 160 494 q 199 666 194 592 q 246 799 203 740 q 352 903 289 858 q 497 974 415 949 q 658 1008 578 1000 q 815 1001 738 1017 q 947 950 892 986 q 1022 867 1003 914 q 1031 775 1042 821 q 1003 688 1021 729 q 970 605 985 646 q 961 539 956 564 q 869 525 926 528 q 751 543 813 522 q 672 603 689 564 q 710 676 683 640 q 763 732 738 711 q 812 776 788 753 q 842 813 836 799 q 838 851 849 828 q 767 887 815 882 q 661 869 718 892 q 550 808 604 847 q 457 701 496 768 q 411 554 418 633 q 630 538 557 569 q 683 436 703 507 q 608 367 671 392 q 463 351 546 342 q 319 407 381 360 q 223 295 250 367 q 224 151 196 224 q 333 36 253 78 q 489 3 399 4 q 674 33 579 3 q 859 116 769 64 q 1021 248 949 168 q 1126 418 1093 328 l 1224 357 q 1077 131 1174 233 q 863 -35 981 29 q 617 -133 744 -99 q 365 -159 489 -167 q 144 -103 240 -151 m 660 1182 q 692 1207 665 1189 q 760 1258 718 1225 q 840 1331 803 1290 q 860 1303 843 1322 q 917 1257 876 1285 q 1004 1219 957 1229 q 906 1110 965 1167 q 790 1025 847 1054 q 660 1182 692 1107 z "},"":{"ha":715,"x_min":-90,"x_max":804,"o":"m 415 25 q 257 -15 338 -8 q 110 -3 176 -21 q -4 56 44 15 q -72 153 -53 97 q -70 284 -90 208 q 15 439 -50 360 q 192 562 93 533 q 379 565 292 590 q 463 517 429 549 q 506 446 497 486 q 501 364 515 406 q 434 283 486 322 q 299 218 382 244 q 230 200 293 217 q 129 174 167 183 q 203 115 144 128 q 356 131 261 101 q 562 249 454 161 q 708 428 669 336 l 804 368 q 666 193 788 306 q 415 25 544 81 m 144 282 q 240 318 186 296 q 364 415 353 367 q 335 449 371 443 q 210 374 282 456 q 144 282 164 324 m 263 797 q 294 822 268 804 q 363 873 321 840 q 443 946 406 906 q 463 919 446 938 q 519 872 479 900 q 607 835 560 844 q 509 726 568 782 q 393 640 450 669 q 263 797 294 722 z "},"":{"ha":1135,"x_min":-61,"x_max":1224,"o":"m 144 -103 q -10 25 40 -51 q -54 178 -61 101 q -10 325 -47 254 q 93 445 26 396 q 232 507 160 494 q 199 666 194 592 q 246 799 203 740 q 352 903 289 858 q 497 974 415 949 q 658 1008 578 1000 q 815 1001 738 1017 q 947 950 892 986 q 1022 867 1003 914 q 1031 775 1042 821 q 1003 688 1021 729 q 970 605 985 646 q 961 539 956 564 q 869 525 926 528 q 751 543 813 522 q 672 603 689 564 q 710 676 683 640 q 763 732 738 711 q 812 776 788 753 q 842 813 836 799 q 838 851 849 828 q 767 887 815 882 q 661 869 718 892 q 550 808 604 847 q 457 701 496 768 q 411 554 418 633 q 630 538 557 569 q 683 436 703 507 q 608 367 671 392 q 463 351 546 342 q 319 407 381 360 q 223 295 250 367 q 224 151 196 224 q 333 36 253 78 q 489 3 399 4 q 674 33 579 3 q 859 116 769 64 q 1021 248 949 168 q 1126 418 1093 328 l 1224 357 q 1040 94 1164 210 q 768 -83 917 -21 q 467 -157 619 -146 q 382 -203 419 -178 q 324 -250 344 -228 q 291 -295 304 -272 q 279 -333 278 -318 q 286 -358 281 -347 q 385 -361 317 -394 q 415 -386 406 -367 q 415 -431 425 -406 q 236 -524 328 -508 q 92 -483 144 -540 q 67 -415 68 -454 q 86 -330 65 -375 q 158 -237 107 -285 q 283 -149 210 -189 q 144 -103 210 -135 z "},"":{"ha":715,"x_min":-189,"x_max":804,"o":"m 415 25 q 243 -17 331 -12 q 157 -62 194 -37 q 99 -110 119 -87 q 64 -156 78 -133 q 51 -193 50 -178 q 58 -219 53 -208 q 157 -222 89 -256 q 188 -247 178 -228 q 188 -292 197 -267 q 8 -385 100 -369 q -136 -344 -83 -401 q -133 -178 -189 -279 q 85 6 -78 -76 q -17 69 24 28 q -74 165 -58 110 q -68 291 -90 219 q 15 439 -46 363 q 192 562 93 533 q 379 565 292 590 q 463 517 429 549 q 506 446 497 486 q 501 364 515 406 q 434 283 486 322 q 299 218 382 244 q 230 200 293 217 q 129 174 167 183 q 203 115 144 128 q 356 131 261 101 q 562 249 454 161 q 708 428 669 336 l 804 368 q 666 193 788 306 q 415 25 544 81 m 144 282 q 240 318 186 296 q 364 415 353 367 q 335 449 371 443 q 210 374 282 456 q 144 282 164 324 z "},"":{"ha":1135,"x_min":-61,"x_max":1224,"o":"m 144 -103 q -10 25 40 -51 q -54 178 -61 101 q -10 325 -47 254 q 93 445 26 396 q 232 507 160 494 q 211 731 174 632 q 341 897 249 831 q 556 992 433 963 q 790 1006 679 1021 q 701 1050 715 1022 q 677 1113 699 1083 q 578 1215 656 1143 q 626 1285 593 1251 q 699 1325 658 1318 q 776 1165 721 1274 q 951 1326 844 1233 q 1002 1271 979 1307 q 1024 1194 1025 1235 q 819 1000 893 1107 q 947 950 894 985 q 1022 867 1003 914 q 1031 775 1042 821 q 1003 688 1021 729 q 970 605 985 646 q 961 539 956 564 q 869 525 926 528 q 751 543 813 522 q 672 603 689 564 q 710 676 683 640 q 763 732 738 711 q 812 776 788 753 q 842 813 836 799 q 838 851 849 828 q 767 887 815 882 q 661 869 718 892 q 550 808 604 847 q 457 701 496 768 q 411 554 418 633 q 630 538 557 569 q 683 436 703 507 q 608 367 671 392 q 463 351 546 342 q 319 407 381 360 q 223 295 250 367 q 224 151 196 224 q 333 36 253 78 q 489 3 399 4 q 674 33 579 3 q 859 116 769 64 q 1021 248 949 168 q 1126 418 1093 328 l 1224 357 q 1077 131 1174 233 q 863 -35 981 29 q 617 -133 744 -99 q 365 -159 489 -167 q 144 -103 240 -151 z "},"":{"ha":715,"x_min":-90,"x_max":804,"o":"m 415 25 q 257 -15 338 -8 q 110 -3 176 -21 q -4 56 44 15 q -72 153 -53 97 q -70 284 -90 208 q 15 439 -50 360 q 192 562 93 533 q 379 565 292 590 q 463 517 429 549 q 506 446 497 486 q 501 364 515 406 q 434 283 486 322 q 299 218 382 244 q 230 200 293 217 q 129 174 167 183 q 203 115 144 128 q 356 131 261 101 q 562 249 454 161 q 708 428 669 336 l 804 368 q 666 193 788 306 q 415 25 544 81 m 144 282 q 240 318 186 296 q 364 415 353 367 q 335 449 371 443 q 210 374 282 456 q 144 282 164 324 m 181 831 q 228 900 196 867 q 301 940 261 933 q 379 781 324 889 q 554 942 447 849 q 605 886 582 922 q 626 810 628 850 q 422 615 496 722 q 304 665 321 631 q 280 728 301 699 q 181 831 258 758 z "},"":{"ha":1074,"x_min":-69,"x_max":1101,"o":"m 368 -701 q 305 -644 335 -679 q 274 -574 275 -608 q 418 -86 340 -289 q 88 -121 208 -186 q -37 19 -4 -72 q -47 215 -69 110 q 38 438 -25 321 q 190 657 100 554 q 393 844 281 760 q 618 972 506 929 q 588 1064 583 1017 q 790 1258 718 1153 q 910 1208 893 1242 q 931 1145 910 1175 q 1032 1044 953 1115 q 981 971 1015 1003 q 1018 950 1000 963 q 1088 861 1074 914 q 1083 755 1101 808 q 1040 651 1065 701 q 996 555 1015 601 q 983 485 976 508 q 893 472 950 475 q 774 489 836 468 q 694 550 711 510 q 752 644 708 594 q 836 726 796 693 q 901 794 876 760 q 908 851 925 829 q 820 898 878 893 q 697 877 763 903 q 561 795 631 851 q 439 665 492 739 q 337 502 382 586 q 262 333 292 418 q 235 180 232 249 q 283 76 239 111 q 366 51 314 53 q 485 78 418 50 q 736 451 607 342 q 947 311 858 432 q 735 94 858 263 q 506 -297 613 -74 q 368 -701 400 -519 m 740 1004 q 879 1004 813 1017 l 836 1093 q 740 1004 772 1032 z "},"":{"ha":864,"x_min":-249,"x_max":953,"o":"m 171 -292 q 32 -337 100 -326 q -85 -337 -36 -347 q -167 -303 -133 -326 q -212 -249 -201 -279 q -190 -87 -249 -151 q -14 -4 -132 -22 q -97 89 -75 22 q -93 247 -119 156 q 6 426 -67 338 q 204 560 94 533 q 150 678 146 613 q 353 872 281 767 q 472 822 456 856 q 494 759 472 789 q 594 658 515 729 q 546 588 579 621 q 474 547 513 554 q 399 707 456 590 q 244 567 333 644 q 356 549 306 572 q 433 478 406 525 q 468 525 447 500 q 564 485 493 525 q 642 410 635 446 q 606 334 628 378 q 579 275 585 290 q 486 72 528 149 q 586 108 531 85 q 735 224 664 140 q 858 418 806 308 l 953 356 q 856 187 924 278 q 704 42 789 96 q 397 -78 583 -39 q 171 -292 286 -239 m -35 -192 q 27 -212 -19 -217 q 121 -172 74 -208 q 189 -106 154 -147 q 60 -110 118 -110 q -22 -122 6 -110 q -50 -151 -50 -133 q -35 -192 -50 -169 m 167 147 q 369 335 244 165 l 376 358 q 349 423 369 403 q 291 431 329 443 q 201 361 253 418 q 97 174 89 239 q 167 147 103 128 m 179 7 q 274 19 226 11 q 311 92 292 50 q 179 7 244 33 z "},"":{"ha":1074,"x_min":-67,"x_max":1101,"o":"m 368 -701 q 305 -644 335 -679 q 274 -574 275 -608 q 418 -86 340 -289 q 88 -121 208 -186 q -31 1 4 -76 q -53 172 -67 79 q 3 369 -40 265 q 122 572 46 472 q 286 756 197 671 q 481 905 375 842 q 686 994 586 968 q 561 1164 581 1036 q 618 1208 586 1190 q 678 1229 650 1225 q 732 1231 707 1233 q 772 1215 757 1228 q 789 1186 788 1203 q 824 1090 783 1101 q 921 1171 867 1079 q 936 1199 929 1183 q 1008 1218 975 1218 q 1062 1200 1042 1218 q 1074 1156 1082 1182 q 901 1000 1017 1049 q 1018 950 961 986 q 1088 861 1074 914 q 1083 755 1101 808 q 1040 651 1065 701 q 996 555 1015 601 q 983 485 976 508 q 893 472 950 475 q 774 489 836 468 q 694 550 711 510 q 752 644 708 594 q 836 726 796 693 q 901 794 876 760 q 908 851 925 829 q 820 898 878 893 q 697 877 763 903 q 561 795 631 851 q 439 665 492 739 q 337 502 382 586 q 262 333 292 418 q 235 180 232 249 q 283 76 239 111 q 366 51 314 53 q 485 78 418 50 q 736 451 607 342 q 947 311 858 432 q 735 94 858 263 q 506 -297 613 -74 q 368 -701 400 -519 z "},"":{"ha":864,"x_min":-249,"x_max":953,"o":"m 171 -292 q 32 -337 100 -326 q -85 -337 -36 -347 q -167 -303 -133 -326 q -212 -249 -201 -279 q -190 -87 -249 -151 q -14 -4 -132 -22 q -97 89 -75 22 q -93 247 -119 156 q 6 426 -67 338 q 164 547 76 513 q 324 560 251 581 q 433 478 396 540 q 468 525 447 500 q 564 485 493 525 q 642 410 635 446 q 606 334 628 378 q 579 275 585 290 q 486 72 528 149 q 586 108 531 85 q 735 224 664 140 q 858 418 806 308 l 953 356 q 856 187 924 278 q 704 42 789 96 q 397 -78 583 -39 q 171 -292 286 -239 m -35 -192 q 27 -212 -19 -217 q 121 -172 74 -208 q 189 -106 154 -147 q 60 -110 118 -110 q -22 -122 6 -110 q -50 -151 -50 -133 q -35 -192 -50 -169 m 124 778 q 181 822 149 804 q 241 843 213 839 q 294 844 269 847 q 335 829 319 842 q 351 800 350 817 q 386 704 346 715 q 483 785 429 693 l 499 813 q 571 832 538 832 q 624 814 604 832 q 636 769 644 796 q 542 658 601 704 q 416 599 482 613 q 288 595 350 585 q 181 653 226 606 q 124 778 136 701 m 167 147 q 369 335 244 165 l 376 358 q 349 423 369 403 q 291 431 329 443 q 201 361 253 418 q 97 174 89 239 q 167 147 103 128 m 179 7 q 274 19 226 11 q 311 92 292 50 q 179 7 244 33 z "},"":{"ha":1074,"x_min":-72,"x_max":1101,"o":"m 368 -701 q 305 -644 335 -679 q 274 -574 275 -608 q 418 -86 340 -289 q 88 -121 208 -186 q -53 78 -33 -56 q 1 363 -72 213 q 190 655 74 513 q 466 896 307 797 q 769 1008 625 994 q 667 1140 690 1085 q 699 1165 672 1147 q 767 1216 725 1183 q 847 1289 810 1249 q 867 1262 850 1281 q 924 1215 883 1243 q 1011 1178 964 1188 q 840 1010 933 1075 q 1018 950 936 1003 q 1088 861 1074 914 q 1083 755 1101 808 q 1040 651 1065 701 q 996 555 1015 601 q 983 485 976 508 q 893 472 950 475 q 774 489 836 468 q 694 550 711 510 q 752 644 708 594 q 836 726 796 693 q 901 794 876 760 q 908 851 925 829 q 820 898 878 893 q 697 877 763 903 q 561 795 631 851 q 439 665 492 739 q 337 502 382 586 q 262 333 292 418 q 235 180 232 249 q 283 76 239 111 q 366 51 314 53 q 485 78 418 50 q 736 451 607 342 q 947 311 858 432 q 735 94 858 263 q 506 -297 613 -74 q 368 -701 400 -519 z "},"":{"ha":864,"x_min":-249,"x_max":953,"o":"m 171 -292 q 32 -337 100 -326 q -85 -337 -36 -347 q -167 -303 -133 -326 q -212 -249 -201 -279 q -190 -87 -249 -151 q -14 -4 -132 -22 q -97 89 -75 22 q -93 247 -119 156 q 6 426 -67 338 q 164 547 76 513 q 324 560 251 581 q 433 478 396 540 q 468 525 447 500 q 564 485 493 525 q 642 410 635 446 q 606 334 628 378 q 579 275 585 290 q 486 72 528 149 q 586 108 531 85 q 735 224 664 140 q 858 418 806 308 l 953 356 q 856 187 924 278 q 704 42 789 96 q 397 -78 583 -39 q 171 -292 286 -239 m -35 -192 q 27 -212 -19 -217 q 121 -172 74 -208 q 189 -106 154 -147 q 60 -110 118 -110 q -22 -122 6 -110 q -50 -151 -50 -133 q -35 -192 -50 -169 m 167 147 q 369 335 244 165 l 376 358 q 349 423 369 403 q 291 431 329 443 q 201 361 253 418 q 97 174 89 239 q 167 147 103 128 m 179 7 q 274 19 226 11 q 311 92 292 50 q 179 7 244 33 m 229 754 q 261 779 235 761 q 330 830 288 797 q 410 903 372 863 q 429 876 413 894 q 486 829 446 857 q 574 792 526 801 q 476 683 535 739 q 360 597 417 626 q 229 754 261 679 z "},"":{"ha":1074,"x_min":-89,"x_max":1101,"o":"m 368 -701 q 305 -644 335 -679 q 274 -574 275 -608 q 418 -86 340 -289 q 165 -144 274 -156 q 253 -269 232 -203 q 141 -415 221 -346 q -28 -532 61 -485 q -69 -450 -83 -494 q 24 -368 -12 -408 q -32 -301 -11 -342 q 26 -216 -15 -261 q 125 -136 68 -171 q 88 -121 100 -128 q -50 201 -87 -28 q 167 629 -15 407 q 567 951 349 850 q 1018 950 831 1072 q 1088 861 1074 914 q 1083 755 1101 808 q 1040 651 1065 701 q 996 555 1015 601 q 983 485 976 508 q 893 472 950 475 q 774 489 836 468 q 694 550 711 510 q 752 644 708 594 q 836 726 796 693 q 901 794 876 760 q 908 851 925 829 q 820 898 878 893 q 697 877 763 903 q 561 795 631 851 q 439 665 492 739 q 337 502 382 586 q 262 333 292 418 q 235 180 232 249 q 283 76 239 111 q 366 51 314 53 q 485 78 418 50 q 736 451 607 342 q 947 311 858 432 q 735 94 858 263 q 506 -297 613 -74 q 368 -701 400 -519 z "},"":{"ha":864,"x_min":-249,"x_max":953,"o":"m 171 -292 q 32 -337 100 -326 q -85 -337 -36 -347 q -167 -303 -133 -326 q -212 -249 -201 -279 q -190 -87 -249 -151 q -14 -4 -132 -22 q -97 89 -75 22 q -93 247 -119 156 q 6 426 -67 338 q 148 540 71 504 q 294 565 225 575 q 213 689 233 629 q 339 856 249 776 q 532 989 429 935 q 570 950 554 975 q 579 900 586 925 q 468 803 514 853 q 535 729 513 768 q 363 544 486 621 q 433 478 406 522 q 468 525 447 500 q 564 485 493 525 q 642 410 635 446 q 606 334 628 378 q 579 275 585 290 q 486 72 528 149 q 586 108 531 85 q 735 224 664 140 q 858 418 806 308 l 953 356 q 856 187 924 278 q 704 42 789 96 q 397 -78 583 -39 q 171 -292 286 -239 m -35 -192 q 27 -212 -19 -217 q 121 -172 74 -208 q 189 -106 154 -147 q 60 -110 118 -110 q -22 -122 6 -110 q -50 -151 -50 -133 q -35 -192 -50 -169 m 167 147 q 369 335 244 165 l 376 358 q 349 423 369 403 q 291 431 329 443 q 201 361 253 418 q 97 174 89 239 q 167 147 103 128 m 179 7 q 274 19 226 11 q 311 92 292 50 q 179 7 244 33 z "},"":{"ha":1465,"x_min":-207,"x_max":1554,"o":"m 63 -340 q -112 -311 -25 -361 q -207 -190 -200 -261 q 128 48 -40 -93 q 428 357 296 189 q 104 313 251 350 q 97 360 97 333 q 118 429 97 386 q 178 513 139 472 q 532 504 286 542 q 715 989 682 743 q 919 946 807 1018 q 711 472 869 749 q 881 432 767 460 q 1285 1003 994 746 q 1369 958 1331 997 q 1428 869 1407 918 q 1229 711 1315 803 q 1100 533 1143 619 q 1039 365 1057 446 q 1033 228 1021 285 q 1078 153 1044 172 q 1273 193 1149 110 q 1458 418 1397 276 l 1554 356 q 1441 172 1511 253 q 1295 44 1371 90 q 1142 -26 1219 -3 q 1000 -45 1065 -50 q 893 -12 935 -40 q 831 107 844 19 q 846 317 818 194 q 638 351 761 340 q 63 -340 385 -53 m 892 1106 q 1094 1300 1022 1194 q 1214 1250 1197 1283 q 1235 1187 1214 1217 q 1336 1086 1257 1157 q 1288 1015 1321 1049 q 1215 975 1254 982 q 1140 1135 1197 1018 q 963 974 1074 1069 q 911 1030 933 994 q 892 1106 889 1065 z "},"":{"ha":710,"x_min":-201,"x_max":799,"o":"m -47 -47 l -60 -37 q -201 53 -158 -25 q -80 259 -179 57 q 105 684 19 461 q 174 954 190 907 q 358 904 275 993 q 321 728 371 874 q 190 399 271 582 q 308 519 231 439 l 313 525 l 319 532 q 324 527 321 531 q 329 521 326 524 q 426 474 372 508 q 485 410 481 440 q 458 351 475 388 q 424 274 433 297 q 408 225 415 251 q 404 186 400 199 q 421 161 408 174 q 486 160 440 142 q 594 247 532 179 q 703 417 656 315 l 799 356 q 742 244 778 303 q 656 127 707 186 q 533 31 604 68 q 388 -6 463 -7 q 241 76 290 -1 q 203 267 192 154 q -1 18 101 163 q -36 -32 -15 -6 l -47 -47 m 332 1006 q 535 1200 463 1094 q 654 1150 638 1183 q 676 1087 654 1117 q 776 986 697 1057 q 728 915 761 949 q 656 875 694 882 q 581 1035 638 918 q 403 874 514 969 q 351 930 374 894 q 332 1006 329 965 z "},"":{"ha":1465,"x_min":-207,"x_max":1554,"o":"m 63 -340 q -112 -311 -25 -361 q -207 -190 -200 -261 q 128 48 -40 -93 q 428 357 296 189 q 104 313 251 350 q 97 360 97 333 q 118 429 97 386 q 178 513 139 472 q 363 524 243 531 q 424 599 374 563 q 535 660 475 636 l 621 667 q 715 989 693 831 q 919 946 807 1018 q 818 676 889 828 q 1001 675 885 678 q 1285 1003 1118 856 q 1369 958 1331 997 q 1428 869 1407 918 q 1185 661 1283 782 q 1281 643 1247 651 q 1265 572 1282 599 q 1200 510 1247 544 q 1096 522 1160 518 q 1037 359 1053 439 q 1033 226 1021 279 q 1078 153 1044 172 q 1273 193 1149 110 q 1458 418 1397 276 l 1554 356 q 1441 172 1511 253 q 1295 44 1371 90 q 1142 -26 1219 -3 q 1000 -45 1065 -50 q 893 -12 935 -40 q 831 107 844 19 q 846 317 818 194 q 638 351 761 340 q 63 -340 385 -53 m 514 507 l 532 504 q 535 507 533 506 q 536 510 536 508 l 514 507 m 711 472 q 881 432 767 460 q 922 532 897 482 q 743 529 846 533 l 711 472 z "},"":{"ha":710,"x_min":-201,"x_max":799,"o":"m -47 -47 l -60 -37 q -201 53 -158 -25 q -109 202 -183 56 q 39 522 -35 349 q -56 481 -11 506 q -35 619 -71 549 q 51 735 0 690 q 128 749 72 739 q 174 954 186 918 q 358 904 275 993 q 331 758 369 881 q 528 713 463 750 q 517 613 529 650 q 475 526 506 575 q 257 557 390 558 q 236 508 247 535 q 211 449 225 482 q 190 399 197 417 q 308 519 231 439 l 313 525 l 319 532 q 324 527 321 531 q 329 521 326 524 q 426 474 372 508 q 485 410 481 440 q 458 351 475 388 q 424 274 433 297 q 408 225 415 251 q 404 186 400 199 q 421 161 408 174 q 486 160 440 142 q 594 247 532 179 q 703 417 656 315 l 799 356 q 742 244 778 303 q 656 127 707 186 q 533 31 604 68 q 388 -6 463 -7 q 241 76 290 -1 q 203 267 192 154 q -1 18 101 163 q -36 -32 -15 -6 l -47 -47 z "},"":{"ha":729,"x_min":-115,"x_max":817,"o":"m -37 -176 q -113 -21 -111 -115 q -65 193 -115 74 q 50 438 -14 313 q 177 727 114 563 q 258 1036 240 892 q 210 1099 226 1056 q 203 1175 194 1143 q 297 1249 254 1221 q 365 1283 339 1276 q 413 1287 392 1290 q 444 1270 433 1283 q 463 1241 454 1257 q 474 1210 471 1225 q 482 1187 478 1196 q 490 1179 486 1178 q 551 1254 540 1199 q 632 1273 590 1269 q 701 1249 674 1276 q 718 1172 729 1222 q 563 1056 650 1093 q 436 1029 476 1018 q 401 1064 414 1033 q 386 1122 389 1094 q 382 1150 383 1150 q 350 1106 369 1149 q 331 1032 331 1064 q 307 1025 324 1028 q 497 910 388 996 q 445 727 486 831 q 356 531 404 624 q 253 340 307 439 q 163 170 200 240 q 110 40 126 100 q 119 -32 94 -19 q 304 -14 178 -79 q 552 177 431 51 q 722 418 674 303 l 817 356 q 667 131 775 253 q 431 -83 560 8 q 173 -210 301 -174 q -37 -176 44 -246 z "},"":{"ha":457,"x_min":-67,"x_max":546,"o":"m 135 -6 q -18 87 31 -1 q -46 299 -67 175 q 58 525 -25 424 q 158 485 90 524 q 233 410 226 446 q 210 360 224 388 q 190 316 197 332 q 175 281 183 300 q 163 250 167 261 q 154 226 158 239 q 150 205 150 213 q 151 189 150 197 q 156 174 153 181 q 167 161 160 168 q 234 160 188 142 q 341 247 281 179 q 450 417 401 315 l 546 356 q 490 244 525 303 q 403 127 454 186 q 281 31 351 68 q 135 -6 210 -7 m -22 726 q 72 800 29 772 q 140 835 114 828 q 188 838 167 842 q 219 822 208 835 q 238 792 229 808 q 249 762 246 776 q 257 738 253 747 q 265 731 261 729 q 326 806 315 750 q 407 824 365 821 q 476 801 449 828 q 493 724 504 774 q 338 607 425 644 q 211 581 251 569 q 176 615 189 585 q 161 674 164 646 q 157 701 158 701 q 125 658 144 700 q 106 583 106 615 q 3 616 43 557 q -22 726 -37 675 z "},"":{"ha":729,"x_min":-115,"x_max":817,"o":"m -37 -176 q -113 -21 -111 -115 q -65 193 -115 74 q 50 438 -14 313 q 177 727 114 563 q 258 1036 240 892 q 497 910 329 1038 q 445 727 486 831 q 356 531 404 624 q 253 340 307 439 q 163 170 200 240 q 110 40 126 100 q 119 -32 94 -19 q 304 -14 178 -79 q 552 177 431 51 q 722 418 674 303 l 817 356 q 667 131 775 253 q 431 -83 560 8 q 173 -210 301 -174 q -37 -176 44 -246 m 183 1072 q 233 1189 172 1114 q 604 1190 490 1165 q 631 1139 629 1175 q 620 1072 632 1103 q 594 1021 608 1040 q 235 1051 432 986 q 183 1072 182 1068 z "},"":{"ha":457,"x_min":-67,"x_max":546,"o":"m 135 -6 q -18 87 31 -1 q -46 299 -67 175 q 58 525 -25 424 q 158 485 90 524 q 233 410 226 446 q 210 360 224 388 q 190 316 197 332 q 175 281 183 300 q 163 250 167 261 q 154 226 158 239 q 150 205 150 213 q 151 189 150 197 q 156 174 153 181 q 167 161 160 168 q 234 160 188 142 q 341 247 281 179 q 450 417 401 315 l 546 356 q 490 244 525 303 q 403 127 454 186 q 281 31 351 68 q 135 -6 210 -7 m -43 624 q 8 740 -54 664 q 379 742 265 717 q 406 690 404 726 q 395 623 407 654 q 369 572 383 592 q 175 566 265 553 q 19 599 85 579 q -43 624 -47 619 z "},"":{"ha":729,"x_min":-237,"x_max":817,"o":"m -37 -176 q -113 -21 -111 -115 q -65 193 -115 74 q 50 438 -14 313 q 177 727 114 563 q 258 1036 240 892 q 497 910 329 1038 q 445 727 486 831 q 356 531 404 624 q 253 340 307 439 q 163 170 200 240 q 110 40 126 100 q 119 -32 94 -19 q 304 -14 178 -79 q 552 177 431 51 q 722 418 674 303 l 817 356 q 535 -1 749 186 q 142 -217 321 -189 q 31 -291 74 -250 q -19 -360 -12 -332 q -17 -407 -25 -389 q 82 -410 14 -443 q 113 -435 103 -415 q 113 -479 122 -454 q -67 -573 24 -557 q -211 -532 -158 -589 q -236 -462 -235 -503 q -216 -376 -237 -421 q -142 -283 -194 -332 q -14 -193 -90 -235 q -37 -176 -22 -189 z "},"":{"ha":457,"x_min":-246,"x_max":546,"o":"m 246 869 q 265 842 249 861 q 322 796 282 824 q 410 758 363 768 q 312 649 371 706 q 196 564 253 593 q 65 721 97 646 q 97 746 71 728 q 166 797 124 764 q 246 869 208 829 m -192 -324 q -189 -156 -246 -258 q 33 29 -132 -53 q -44 157 -25 72 q -36 342 -62 242 q 58 525 -10 443 q 158 485 90 524 q 233 410 226 446 q 210 360 224 388 q 190 316 197 332 q 175 281 183 300 q 163 250 167 261 q 154 226 158 239 q 150 205 150 213 q 151 189 150 197 q 156 174 153 181 q 167 161 160 168 q 234 160 188 142 q 341 247 281 179 q 450 417 401 315 l 546 356 q 494 251 526 306 q 414 139 461 196 q 301 42 367 82 q 168 -4 236 3 q 90 -49 124 -25 q 37 -94 56 -72 q 6 -137 18 -115 q -4 -173 -6 -158 q 3 -199 -3 -187 q 101 -201 33 -235 q 132 -226 122 -207 q 132 -271 142 -246 q -47 -365 44 -349 q -192 -324 -139 -381 z "},"":{"ha":729,"x_min":-115,"x_max":817,"o":"m -37 -176 q -113 -21 -111 -115 q -65 193 -115 74 q 50 438 -14 313 q 177 727 114 563 q 258 1036 240 892 q 497 910 329 1038 q 445 727 486 831 q 356 531 404 624 q 253 340 307 439 q 163 170 200 240 q 110 40 126 100 q 119 -32 94 -19 q 304 -14 178 -79 q 552 177 431 51 q 722 418 674 303 l 817 356 q 667 131 775 253 q 431 -83 560 8 q 173 -210 301 -174 q -37 -176 44 -246 m 290 1169 q 322 1194 296 1176 q 391 1245 349 1213 q 471 1318 433 1278 q 490 1291 474 1310 q 547 1244 507 1272 q 635 1207 588 1217 q 537 1098 596 1154 q 421 1013 478 1042 q 290 1169 322 1094 z "},"":{"ha":457,"x_min":-67,"x_max":546,"o":"m 135 -6 q -18 87 31 -1 q -46 299 -67 175 q 58 525 -25 424 q 158 485 90 524 q 233 410 226 446 q 210 360 224 388 q 190 316 197 332 q 175 281 183 300 q 163 250 167 261 q 154 226 158 239 q 150 205 150 213 q 151 189 150 197 q 156 174 153 181 q 167 161 160 168 q 234 160 188 142 q 341 247 281 179 q 450 417 401 315 l 546 356 q 490 244 525 303 q 403 127 454 186 q 281 31 351 68 q 135 -6 210 -7 z "},"":{"ha":1842,"x_min":-115,"x_max":2007,"o":"m -37 -176 q -113 -21 -111 -115 q -65 193 -115 74 q 50 438 -14 313 q 177 727 114 563 q 258 1036 240 892 q 497 910 329 1038 q 445 727 486 831 q 356 531 404 624 q 253 340 307 439 q 163 170 200 240 q 110 40 126 100 q 119 -32 94 -19 q 304 -14 178 -79 q 552 177 431 51 q 722 418 674 303 l 817 356 q 667 131 775 253 q 431 -83 560 8 q 173 -210 301 -174 q -37 -176 44 -246 m 557 -128 q 617 -10 561 -61 q 744 63 672 40 q 940 -110 819 -74 q 1181 -67 1061 -147 q 1447 248 1315 28 q 1676 801 1579 468 q 922 708 1422 815 q 928 822 904 753 q 1033 968 953 892 q 1732 928 1446 983 q 1931 1022 1800 990 q 1990 888 1974 969 q 1983 742 2007 807 q 1810 788 1908 769 q 1559 145 1704 413 q 1246 -264 1414 -122 q 1057 -360 1161 -335 q 857 -365 953 -385 q 680 -284 761 -346 q 557 -128 599 -222 z "},"":{"ha":907,"x_min":-67,"x_max":996,"o":"m 135 -6 q -18 87 31 -1 q -46 299 -67 175 q 58 525 -25 424 q 158 485 90 524 q 233 410 226 446 q 210 360 224 388 q 190 316 197 332 q 175 281 183 300 q 163 250 167 261 q 154 226 158 239 q 150 205 150 213 q 151 189 150 197 q 156 174 153 181 q 167 161 160 168 q 232 160 188 142 q 336 242 276 178 q 444 404 396 307 q 508 525 488 506 q 608 485 540 524 q 685 410 676 446 q 652 342 675 389 q 622 275 629 294 q 515 46 574 151 q 743 208 626 92 q 901 418 860 325 l 996 356 q 942 260 985 322 q 828 118 900 197 q 638 -35 756 39 q 390 -144 521 -110 q 288 -261 343 -217 q 185 -319 233 -306 q 95 -328 138 -332 q 24 -304 53 -324 q -14 -260 -4 -285 q 30 -102 -53 -169 q 258 -36 113 -35 q 269 -13 263 -28 q 282 14 276 1 q 293 38 288 26 q 135 -6 217 -7 m 104 653 q 144 747 104 707 q 238 788 183 788 q 333 747 293 788 q 372 653 372 707 q 333 558 372 597 q 238 519 293 519 q 144 558 183 519 q 104 653 104 597 m 138 -193 q 142 -192 138 -194 q 157 -182 147 -189 q 178 -164 167 -175 q 155 -168 164 -165 q 141 -174 146 -171 q 135 -180 136 -176 q 134 -186 133 -183 q 138 -193 135 -189 m 533 653 q 573 747 533 707 q 665 788 613 788 q 761 747 721 788 q 801 653 801 707 q 761 558 801 597 q 665 519 721 519 q 572 558 611 519 q 533 653 533 597 z "},"":{"ha":1113,"x_min":-174,"x_max":1278,"o":"m 517 -264 q 327 -360 432 -335 q 127 -365 222 -385 q -50 -284 32 -346 q -174 -128 -132 -222 q -112 -10 -168 -61 q 15 63 -57 40 q 211 -110 90 -74 q 451 -67 332 -147 q 718 248 586 28 q 947 801 850 468 q 193 708 693 815 q 199 822 175 753 q 304 968 224 892 q 640 968 481 974 q 607 1064 603 1013 q 810 1258 738 1153 q 929 1208 913 1242 q 951 1145 929 1175 q 1051 1044 972 1115 q 1009 980 1038 1011 q 947 938 981 949 l 1003 928 q 1201 1022 1071 990 q 1261 888 1244 969 q 1254 742 1278 807 q 1081 788 1179 769 q 830 145 975 413 q 517 -264 685 -122 m 715 964 q 928 940 817 958 q 856 1093 919 958 q 715 964 783 1024 z "},"":{"ha":450,"x_min":-510,"x_max":539,"o":"m -319 -193 q -315 -192 -319 -194 q -300 -182 -310 -189 q -279 -164 -290 -175 q -302 -168 -293 -165 q -316 -174 -311 -171 q -322 -180 -321 -176 q -323 -186 -324 -183 q -319 -193 -322 -189 m -471 -260 q -428 -102 -510 -169 q -200 -36 -346 -35 q -77 249 -156 53 q 28 490 1 444 q -21 546 0 511 q -40 619 -42 581 q 164 814 90 707 q 283 764 267 797 q 305 701 283 731 q 406 600 326 671 q 357 529 390 563 q 285 489 324 496 q 210 649 267 532 q 71 521 167 607 q 167 474 114 508 q 228 410 221 440 q 195 342 218 389 q 165 275 172 294 q 58 46 117 151 q 286 208 169 92 q 444 418 403 325 l 539 356 q 485 260 528 322 q 371 118 443 197 q 181 -35 299 39 q -68 -144 64 -110 q -170 -261 -115 -217 q -272 -319 -225 -306 q -362 -328 -319 -332 q -433 -304 -406 -324 q -471 -260 -461 -285 z "},"":{"ha":1049,"x_min":-139,"x_max":1290,"o":"m 139 -132 q -35 -118 56 -161 q -139 -6 -126 -75 q 15 114 -61 49 q 176 277 90 179 q 328 479 263 375 q 439 717 393 583 q 492 986 485 850 q 699 961 579 1019 q 574 589 681 838 q 869 792 713 656 q 1132 1082 1026 928 q 1199 1011 1158 1078 q 1238 865 1240 944 q 613 468 1133 706 q 874 18 683 269 q 1290 -404 1064 -233 q 1259 -438 1281 -418 q 1202 -482 1238 -458 q 1114 -520 1167 -506 q 1006 -532 1061 -535 q 749 -194 890 -447 q 475 378 607 58 q 139 -132 307 42 m 185 -372 q 278 -290 242 -331 q 222 -224 243 -264 q 288 -131 242 -179 q 397 -49 333 -82 q 507 -192 481 -108 q 395 -337 475 -268 q 226 -454 315 -407 q 185 -372 171 -417 z "},"":{"ha":724,"x_min":-203,"x_max":814,"o":"m -43 -39 q -203 53 -156 -33 q -81 259 -181 57 q 105 684 19 461 q 174 954 190 907 q 356 904 272 993 q 311 706 369 871 q 164 344 253 540 q 436 571 358 431 q 524 535 467 571 q 589 463 582 500 q 460 330 544 379 q 285 267 376 281 q 315 173 286 203 q 403 140 343 143 q 490 160 440 139 q 603 249 539 182 q 717 417 668 315 l 814 356 q 752 242 793 304 q 655 118 711 181 q 523 11 599 56 q 374 -39 447 -33 q 174 22 240 -47 q 100 206 108 92 q -43 -39 6 14 m -118 -296 q -25 -214 -61 -254 q -81 -147 -60 -187 q -15 -54 -61 -103 q 94 28 31 -6 q 204 -115 178 -32 q 92 -261 172 -192 q -76 -378 13 -331 q -118 -296 -132 -340 z "},"":{"ha":1015,"x_min":-190,"x_max":1268,"o":"m 1138 -401 q 653 -272 914 -315 q 158 -229 393 -228 q 73 -272 132 -242 q -15 -315 14 -301 q -85 -344 -43 -328 q -160 -368 -126 -360 q -190 -231 -190 -301 q -168 -89 -189 -161 l 93 -76 q 278 201 192 47 q 420 469 364 354 q 549 697 476 583 q 728 897 621 810 q 985 1038 835 983 q 1145 965 1058 1036 q 1213 821 1232 894 q 969 746 1075 794 q 796 641 863 697 q 663 501 729 585 q 549 338 596 417 q 422 144 501 258 q 261 -65 343 31 q 1064 -97 833 -4 q 1132 -225 1110 -162 q 1152 -328 1154 -287 q 1138 -401 1150 -369 m 879 1124 q 1146 1363 1064 1235 q 1239 1320 1210 1378 q 1246 1189 1268 1263 q 1089 1084 1188 1128 q 893 1019 990 1040 q 865 1061 868 1025 q 879 1124 863 1097 z "},"":{"ha":499,"x_min":-50,"x_max":728,"o":"m 158 -6 q -37 206 -25 17 q 58 622 -50 394 q 321 1025 165 849 l 325 1025 q 339 1090 322 1060 q 606 1329 524 1201 q 699 1287 669 1344 q 706 1156 728 1229 q 407 1000 607 1053 q 485 941 451 975 q 521 885 519 907 q 328 649 411 760 q 199 454 246 538 q 131 306 151 371 q 116 202 110 240 q 153 149 122 164 q 319 190 218 118 q 493 418 419 263 l 588 356 q 528 242 567 303 q 435 120 490 182 q 306 22 381 58 q 158 -6 232 -14 z "},"":{"ha":1015,"x_min":-190,"x_max":1232,"o":"m 1138 -401 q 653 -272 914 -315 q 158 -229 393 -228 q 73 -272 132 -242 q -15 -315 14 -301 q -85 -344 -43 -328 q -160 -368 -126 -360 q -190 -231 -190 -301 q -168 -89 -189 -161 l 93 -76 q 278 201 192 47 q 420 469 364 354 q 549 697 476 583 q 728 897 621 810 q 985 1038 835 983 q 1145 965 1058 1036 q 1213 821 1232 894 q 969 746 1075 794 q 796 641 863 697 q 663 501 729 585 q 549 338 596 417 q 422 144 501 258 q 261 -65 343 31 q 1064 -97 833 -4 q 1132 -225 1110 -162 q 1152 -328 1154 -287 q 1138 -401 1150 -369 m 111 -558 q 204 -476 168 -517 q 149 -410 169 -450 q 214 -317 168 -365 q 324 -235 260 -268 q 433 -378 407 -294 q 322 -524 401 -454 q 153 -640 242 -593 q 111 -558 97 -603 z "},"":{"ha":499,"x_min":-146,"x_max":588,"o":"m 158 -6 q -37 206 -25 17 q 58 622 -50 394 q 321 1025 165 849 q 445 975 372 1029 q 521 885 518 921 q 328 649 411 760 q 199 454 246 538 q 131 306 151 371 q 116 202 110 240 q 153 149 122 164 q 319 190 218 118 q 493 418 419 263 l 588 356 q 528 242 567 303 q 435 120 490 182 q 306 22 381 58 q 158 -6 232 -14 m -132 -372 q -39 -290 -75 -331 q -94 -224 -74 -264 q -29 -131 -75 -179 q 81 -49 17 -82 q 190 -192 164 -108 q 78 -337 158 -268 q -90 -454 -1 -407 q -132 -372 -146 -417 z "},"":{"ha":1015,"x_min":-190,"x_max":1513,"o":"m 1138 -401 q 653 -272 914 -315 q 158 -229 393 -228 q 73 -272 132 -242 q -15 -315 14 -301 q -85 -344 -43 -328 q -160 -368 -126 -360 q -190 -231 -190 -301 q -168 -89 -189 -161 l 93 -76 q 278 201 192 47 q 420 469 364 354 q 549 697 476 583 q 728 897 621 810 q 985 1038 835 983 q 1117 986 1042 1036 q 1211 875 1193 936 q 1229 1032 1211 951 q 1304 1074 1265 1058 q 1403 1082 1343 1090 q 1513 1022 1463 1074 q 1415 888 1469 1004 q 1371 694 1361 771 q 1311 665 1356 671 q 1243 668 1267 658 q 1239 674 1242 668 q 1232 694 1236 681 q 1224 726 1228 708 q 1217 769 1221 744 q 1213 821 1214 794 q 969 746 1075 794 q 796 641 863 697 q 663 501 729 585 q 549 338 596 417 q 422 144 501 258 q 261 -65 343 31 q 1064 -97 833 -4 q 1132 -225 1110 -162 q 1152 -328 1154 -287 q 1138 -401 1150 -369 z "},"":{"ha":499,"x_min":-50,"x_max":806,"o":"m 158 -6 q -37 206 -25 17 q 58 622 -50 394 q 321 1025 165 849 q 429 987 365 1029 q 514 904 493 944 l 522 942 q 597 984 558 968 q 696 992 636 1000 q 806 932 756 983 q 708 797 763 914 q 664 604 654 681 q 604 574 649 581 q 536 578 560 568 q 522 617 532 576 q 506 722 513 657 q 510 872 500 788 q 322 640 403 749 q 196 449 242 531 q 130 303 150 367 q 117 202 110 240 q 153 149 124 164 q 319 190 218 118 q 493 418 419 263 l 588 356 q 528 242 567 303 q 435 120 490 182 q 306 22 381 58 q 158 -6 232 -14 z "},"":{"ha":1015,"x_min":-190,"x_max":1232,"o":"m 1138 -401 q 653 -272 914 -315 q 158 -229 393 -228 q 73 -272 132 -242 q -15 -315 14 -301 q -85 -344 -43 -328 q -160 -368 -126 -360 q -190 -231 -190 -301 q -168 -89 -189 -161 l 93 -76 q 326 288 210 69 q 192 235 250 267 q 212 374 176 303 q 299 489 247 444 q 440 510 368 503 q 536 676 492 608 q 644 817 581 744 q 792 944 708 890 q 985 1038 876 999 q 1145 965 1058 1036 q 1213 821 1232 894 q 887 705 1011 782 q 664 503 763 628 q 775 467 732 490 q 765 367 776 404 q 722 281 753 329 q 532 311 649 310 q 261 -65 368 61 q 1064 -97 833 -4 q 1132 -225 1110 -162 q 1152 -328 1154 -287 q 1138 -401 1150 -369 z "},"":{"ha":499,"x_min":-81,"x_max":588,"o":"m 158 -6 q 1 78 51 7 q -42 256 -49 150 q 6 485 -35 363 q 118 735 47 607 q -65 671 13 714 q -45 810 -81 739 q 42 925 -10 881 q 258 950 142 947 q 321 1025 289 989 q 428 987 365 1028 q 514 906 492 946 l 518 903 l 518 896 q 521 885 521 888 l 518 882 q 465 717 517 796 q 396 736 438 728 q 258 549 317 636 q 168 394 200 461 q 124 276 136 328 q 119 193 111 225 q 153 149 126 161 q 319 190 218 118 q 493 418 419 263 l 588 356 q 528 242 567 303 q 435 120 490 182 q 306 22 381 58 q 158 -6 232 -14 z "},"":{"ha":1299,"x_min":-208,"x_max":1815,"o":"m 58 -343 q -115 -314 -28 -364 q -208 -193 -201 -264 q 18 -42 -94 -126 q 249 159 131 43 q 462 401 368 275 q 624 679 556 526 q 714 986 693 832 q 871 971 804 1017 l 872 972 q 874 969 872 971 l 874 967 q 892 884 875 956 q 928 713 908 813 q 958 522 947 613 q 1296 854 1114 699 q 1643 1088 1478 1010 q 1736 1019 1689 1071 q 1815 911 1783 968 q 1558 828 1685 886 q 1324 690 1431 769 q 1133 530 1217 610 q 974 361 1049 450 q 897 36 983 111 q 821 -10 857 0 q 760 -3 785 -19 q 723 43 736 13 q 713 121 710 74 q 738 218 717 168 q 786 304 751 250 q 746 626 776 507 q 449 105 626 364 q 58 -343 272 -154 m 1006 1000 q 1272 1239 1190 1111 q 1365 1197 1336 1254 q 1372 1065 1394 1139 q 1215 960 1314 1004 q 1019 896 1117 917 q 992 938 994 901 q 1006 1000 989 974 z "},"":{"ha":786,"x_min":-124,"x_max":875,"o":"m 31 -47 l 18 -37 q -124 51 -78 -25 q -40 252 -72 96 q -19 518 -8 408 q 163 467 83 556 q 163 300 176 404 q 383 518 293 421 l 389 525 l 396 532 q 400 527 397 531 q 406 521 403 524 q 503 474 449 508 q 564 410 558 440 q 541 359 554 388 q 520 315 528 331 q 504 281 513 300 q 492 250 496 261 q 483 226 488 239 q 479 205 479 213 q 481 189 479 197 q 485 174 482 181 q 496 161 489 168 q 563 160 517 142 q 671 247 610 179 q 781 418 732 315 l 875 356 q 819 244 856 303 q 732 127 783 186 q 610 31 681 68 q 465 -6 539 -7 q 319 78 368 -1 q 281 269 269 157 q 75 18 174 160 q 46 -24 56 -12 l 31 -47 m 181 635 q 447 874 365 746 q 540 831 511 889 q 547 700 569 774 q 390 595 489 639 q 194 531 292 551 q 167 572 169 536 q 181 635 164 608 z "},"":{"ha":1299,"x_min":-208,"x_max":1815,"o":"m 58 -343 q -115 -314 -28 -364 q -208 -193 -201 -264 q 18 -42 -94 -126 q 249 159 131 43 q 462 401 368 275 q 624 679 556 526 q 714 986 693 832 q 871 971 804 1017 l 872 972 q 874 969 872 971 l 874 967 q 892 884 875 956 q 928 713 908 813 q 958 522 947 613 q 1296 854 1114 699 q 1643 1088 1478 1010 q 1736 1019 1689 1071 q 1815 911 1783 968 q 1558 828 1685 886 q 1324 690 1431 769 q 1133 530 1217 610 q 974 361 1049 450 q 897 36 983 111 q 821 -10 857 0 q 760 -3 785 -19 q 723 43 736 13 q 713 121 710 74 q 738 218 717 168 q 786 304 751 250 q 746 626 776 507 q 449 105 626 364 q 58 -343 272 -154 m 325 -357 q 418 -275 382 -315 q 363 -208 383 -249 q 428 -115 382 -164 q 538 -33 474 -67 q 647 -176 621 -93 q 535 -322 615 -253 q 367 -439 456 -392 q 325 -357 311 -401 z "},"":{"ha":786,"x_min":-124,"x_max":875,"o":"m 31 -47 l 18 -37 q -124 51 -78 -25 q -40 252 -72 96 q -19 518 -8 408 q 163 467 83 556 q 163 300 176 404 q 383 518 293 421 l 389 525 l 396 532 q 400 527 397 531 q 406 521 403 524 q 503 474 449 508 q 564 410 558 440 q 541 359 554 388 q 520 315 528 331 q 504 281 513 300 q 492 250 496 261 q 483 226 488 239 q 479 205 479 213 q 481 189 479 197 q 485 174 482 181 q 496 161 489 168 q 563 160 517 142 q 671 247 610 179 q 781 418 732 315 l 875 356 q 819 244 856 303 q 732 127 783 186 q 610 31 681 68 q 465 -6 539 -7 q 319 78 368 -1 q 281 269 269 157 q 75 18 174 160 q 46 -24 56 -12 l 31 -47 m -58 -322 q 35 -240 -1 -281 q -21 -174 0 -214 q 44 -81 -1 -129 q 154 1 90 -32 q 264 -142 238 -58 q 152 -287 232 -218 q -17 -404 72 -357 q -58 -322 -72 -367 z "},"":{"ha":1299,"x_min":-208,"x_max":1815,"o":"m 58 -343 q -115 -314 -28 -364 q -208 -193 -201 -264 q 18 -42 -94 -126 q 249 159 131 43 q 462 401 368 275 q 624 679 556 526 q 714 986 693 832 q 871 971 804 1017 l 872 972 q 874 969 872 971 l 874 967 q 892 884 875 956 q 928 713 908 813 q 958 522 947 613 q 1296 854 1114 699 q 1643 1088 1478 1010 q 1736 1019 1689 1071 q 1815 911 1783 968 q 1558 828 1685 886 q 1324 690 1431 769 q 1133 530 1217 610 q 974 361 1049 450 q 897 36 983 111 q 821 -10 857 0 q 760 -3 785 -19 q 723 43 736 13 q 713 121 710 74 q 738 218 717 168 q 786 304 751 250 q 746 626 776 507 q 449 105 626 364 q 58 -343 272 -154 m 933 1097 q 981 1167 949 1133 q 1054 1207 1014 1200 q 1132 1047 1076 1156 q 1307 1208 1200 1115 q 1358 1153 1335 1189 q 1379 1076 1381 1117 q 1175 882 1249 989 q 1057 932 1074 897 q 1033 995 1054 965 q 933 1097 1011 1025 z "},"":{"ha":786,"x_min":-124,"x_max":875,"o":"m 31 -47 l 18 -37 q -124 51 -78 -25 q -40 252 -72 96 q -19 518 -8 408 q 163 467 83 556 q 163 300 176 404 q 383 518 293 421 l 389 525 l 396 532 q 400 527 397 531 q 406 521 403 524 q 503 474 449 508 q 564 410 558 440 q 541 359 554 388 q 520 315 528 331 q 504 281 513 300 q 492 250 496 261 q 483 226 488 239 q 479 205 479 213 q 481 189 479 197 q 485 174 482 181 q 496 161 489 168 q 563 160 517 142 q 671 247 610 179 q 781 418 732 315 l 875 356 q 819 244 856 303 q 732 127 783 186 q 610 31 681 68 q 465 -6 539 -7 q 319 78 368 -1 q 281 269 269 157 q 75 18 174 160 q 46 -24 56 -12 l 31 -47 m 108 732 q 156 801 124 768 q 229 842 189 835 q 307 682 251 790 q 482 843 375 750 q 533 788 510 824 q 554 711 556 751 q 350 517 424 624 q 232 567 249 532 q 208 630 229 600 q 108 732 186 660 z "},"":{"ha":1271,"x_min":-206,"x_max":1818,"o":"m 61 -343 q -112 -314 -25 -364 q -206 -193 -199 -264 q 21 -42 -92 -126 q 252 159 133 43 q 465 401 371 275 q 627 679 558 526 q 717 986 696 832 q 871 974 811 1013 q 910 769 890 904 q 938 494 929 633 q 1285 841 1096 676 q 1646 1088 1474 1006 q 1739 1019 1692 1071 q 1818 911 1786 968 q 1544 809 1681 886 q 1301 634 1407 732 q 1106 424 1196 536 q 962 217 1017 311 q 882 53 907 122 q 1107 207 993 93 q 1264 418 1221 321 l 1358 356 q 1305 260 1347 322 q 1190 118 1263 197 q 1001 -35 1118 39 q 753 -144 883 -110 q 651 -261 706 -217 q 548 -319 596 -306 q 458 -328 500 -332 q 387 -304 415 -324 q 349 -260 358 -285 q 393 -103 310 -169 q 625 -36 476 -36 l 621 -36 q 821 350 781 289 q 753 636 794 511 q 454 109 632 371 q 61 -343 276 -153 m 500 -193 q 505 -192 500 -194 q 519 -183 510 -190 q 540 -164 529 -175 q 508 -173 518 -168 q 497 -183 497 -178 q 500 -193 497 -187 z "},"":{"ha":786,"x_min":-172,"x_max":876,"o":"m 31 -47 l 18 -37 q -124 51 -78 -25 q -40 252 -72 96 q -19 518 -8 408 q 163 467 83 556 q 163 300 176 404 q 379 514 290 418 q 385 520 382 517 q 389 525 388 524 l 396 532 l 406 522 q 504 475 450 510 q 565 410 558 440 q 533 342 556 389 q 503 275 510 294 q 396 46 454 151 q 624 208 507 92 q 782 418 740 325 l 876 356 q 823 260 865 322 q 708 118 781 197 q 519 -35 636 39 q 271 -144 401 -110 q 169 -261 224 -217 q 66 -319 114 -306 q -24 -328 18 -332 q -95 -304 -67 -324 q -133 -260 -124 -285 q -90 -102 -172 -169 q 139 -36 -7 -35 q 263 251 185 58 q 75 18 174 158 q 46 -24 56 -12 l 31 -47 m 18 -193 q 23 -192 18 -194 q 38 -182 28 -189 q 58 -164 47 -175 q 35 -168 44 -165 q 22 -174 26 -171 q 15 -180 17 -176 q 15 -186 14 -183 q 18 -193 15 -189 z "},"":{"ha":1153,"x_min":-14,"x_max":1083,"o":"m 374 57 q 535 38 454 11 q 682 134 617 65 q 789 308 747 203 q 835 522 831 413 q 701 540 757 511 q 638 635 646 569 q 769 685 724 642 q 811 779 815 729 q 765 856 807 829 q 656 875 715 881 q 520 815 596 869 q 376 665 444 761 q 272 442 306 563 q 262 213 239 321 q 374 57 285 104 m 197 -90 q 35 76 85 -32 q -1 305 -14 183 q 74 553 13 426 q 238 778 136 679 q 506 964 360 897 q 783 1014 651 1031 q 1013 838 946 993 q 1017 456 1083 674 q 722 22 940 201 q 447 -136 600 -76 q 329 -132 401 -143 q 197 -90 257 -121 m 551 1093 q 601 1210 540 1135 q 972 1211 858 1186 q 999 1160 997 1196 q 988 1092 1000 1124 q 963 1042 976 1061 q 603 1072 800 1007 q 551 1093 550 1089 z "},"":{"ha":690,"x_min":-65,"x_max":779,"o":"m 156 -6 q -10 76 46 8 q -58 231 -65 143 q -12 403 -50 318 q 100 546 25 488 q 256 604 175 604 q 321 557 294 604 q 378 585 347 581 q 441 568 408 589 q 497 501 474 547 q 519 357 522 458 q 685 417 650 335 l 779 356 q 674 256 757 283 q 492 243 592 229 q 156 -6 360 -31 m 118 706 q 168 822 107 747 q 539 824 425 799 q 565 772 564 808 q 555 705 567 736 q 529 654 543 674 q 169 685 367 619 q 118 706 117 701 m 151 149 q 249 166 192 128 q 346 276 307 204 q 272 339 301 300 q 260 407 260 375 q 176 351 213 389 q 125 274 140 313 q 116 199 110 235 q 151 149 122 164 z "},"":{"ha":1153,"x_min":-14,"x_max":1156,"o":"m 374 57 q 535 38 454 11 q 682 134 617 65 q 789 308 747 203 q 835 522 831 413 q 701 540 757 511 q 638 635 646 569 q 769 685 724 642 q 811 779 815 729 q 765 856 807 829 q 656 875 715 881 q 520 815 596 869 q 376 665 444 761 q 272 442 306 563 q 262 213 239 321 q 374 57 285 104 m 197 -90 q 35 76 85 -32 q -1 305 -14 183 q 74 553 13 426 q 238 778 136 679 q 506 964 360 897 q 783 1014 651 1031 q 1013 838 946 993 q 1017 456 1083 674 q 722 22 940 201 q 447 -136 600 -76 q 329 -132 401 -143 q 197 -90 257 -121 m 581 1139 q 847 1378 765 1250 q 921 1360 892 1388 q 957 1285 950 1333 q 1033 1378 990 1321 q 1126 1335 1097 1393 q 1133 1204 1156 1278 q 976 1099 1075 1143 q 781 1035 878 1056 q 750 1081 750 1040 q 593 1035 668 1049 q 566 1076 568 1040 q 581 1139 564 1113 z "},"":{"ha":690,"x_min":-65,"x_max":779,"o":"m 156 -6 q -10 76 46 8 q -58 231 -65 143 q -12 403 -50 318 q 100 546 25 488 q 256 604 175 604 q 321 557 294 604 q 378 585 347 581 q 441 568 408 589 q 497 501 474 547 q 519 357 522 458 q 685 417 650 335 l 779 356 q 674 256 757 283 q 492 243 592 229 q 156 -6 360 -31 m 147 751 q 414 990 332 863 q 488 973 458 1000 q 524 897 517 946 q 600 990 557 933 q 693 948 664 1006 q 700 817 722 890 q 543 712 642 756 q 347 647 444 668 q 317 693 317 653 q 160 647 235 661 q 133 689 135 653 q 147 751 131 725 m 151 149 q 249 166 192 128 q 346 276 307 204 q 272 339 301 300 q 260 407 260 375 q 176 351 213 389 q 125 274 140 313 q 116 199 110 235 q 151 149 122 164 z "},"":{"ha":1904,"x_min":-14,"x_max":1958,"o":"m 374 57 q 536 39 458 17 q 683 136 614 61 q 713 303 672 219 q 826 443 754 386 q 835 522 833 483 q 701 540 757 511 q 638 635 646 569 q 769 685 724 642 q 811 779 815 729 q 765 856 807 829 q 656 875 715 881 q 520 815 596 869 q 376 665 444 761 q 272 442 306 563 q 262 213 239 321 q 374 57 285 104 m 197 -90 q 35 76 85 -32 q -1 305 -14 183 q 74 553 13 426 q 238 778 136 679 q 506 964 360 897 q 783 1014 651 1031 q 1011 839 946 993 q 1212 969 1086 922 q 1467 1011 1338 1015 q 1682 950 1597 1007 q 1757 867 1738 914 q 1766 775 1776 821 q 1738 688 1756 729 q 1705 605 1719 646 q 1696 539 1690 564 q 1604 525 1661 528 q 1485 543 1547 522 q 1407 603 1424 564 q 1445 676 1418 640 q 1497 732 1472 711 q 1547 776 1522 753 q 1577 813 1571 799 q 1572 851 1583 828 q 1501 887 1550 882 q 1396 869 1453 892 q 1285 808 1339 847 q 1192 701 1231 768 q 1146 554 1153 633 q 1365 538 1292 569 q 1418 436 1438 507 q 1343 367 1406 392 q 1198 351 1281 342 q 1054 407 1115 360 q 958 295 985 367 q 959 151 931 224 q 1068 36 988 78 q 1224 3 1133 4 q 1409 33 1314 3 q 1594 116 1504 64 q 1756 248 1683 168 q 1861 418 1828 328 l 1958 357 q 1812 131 1908 233 q 1597 -35 1715 29 q 1351 -133 1479 -99 q 1099 -159 1224 -167 q 879 -103 975 -151 q 724 25 774 -51 q 447 -136 600 -76 q 329 -132 401 -143 q 197 -90 257 -121 z "},"":{"ha":1157,"x_min":-65,"x_max":1246,"o":"m 156 -6 q -10 76 46 8 q -58 231 -65 143 q -12 403 -50 318 q 100 546 25 488 q 256 604 175 604 q 321 557 294 604 q 378 585 347 581 q 441 568 408 589 q 497 501 474 547 l 504 488 q 667 570 576 551 q 821 565 758 589 q 905 517 871 549 q 948 446 939 486 q 942 364 957 406 q 876 283 928 322 q 740 218 824 244 q 672 200 735 217 q 571 174 608 183 q 644 115 586 128 q 797 131 703 101 q 1003 249 896 161 q 1150 428 1111 336 l 1246 368 q 1108 193 1229 306 q 857 25 986 81 q 589 -11 718 -33 q 399 97 460 11 q 156 -6 296 -22 m 151 149 q 249 166 192 128 q 346 276 307 204 q 272 339 301 300 q 260 407 260 375 q 176 351 213 389 q 125 274 140 313 q 116 199 110 235 q 151 149 122 164 m 586 282 q 682 318 628 296 q 806 415 794 367 q 776 449 813 443 q 651 374 724 456 q 586 282 606 324 z "},"":{"ha":1308,"x_min":115,"x_max":1493,"o":"m 390 -212 q 216 -198 306 -240 q 115 -86 126 -156 q 551 357 382 103 q 413 422 465 374 q 408 532 360 471 q 511 572 449 572 q 651 536 574 571 q 743 907 733 721 q 950 879 839 944 q 799 446 929 736 l 818 428 q 1006 481 926 432 q 1116 597 1085 529 q 1130 742 1147 665 q 1043 872 1113 818 q 286 665 811 1053 q 201 725 236 678 q 171 842 167 772 q 347 919 276 890 q 528 987 417 949 q 747 1039 640 1025 q 953 1044 853 1053 q 965 1117 946 1081 q 1232 1356 1150 1228 q 1325 1313 1296 1371 q 1332 1182 1354 1256 q 1047 1029 1242 1086 q 1200 975 1125 1013 q 1312 881 1272 939 q 1355 758 1351 822 q 1330 626 1358 694 q 1247 501 1301 558 q 1108 399 1193 443 q 921 336 1022 354 q 1141 -44 981 168 q 1493 -401 1301 -257 q 1406 -477 1475 -435 q 1247 -514 1338 -519 q 1015 -202 1143 -437 q 772 325 888 33 l 742 326 q 390 -212 567 -28 z "},"":{"ha":613,"x_min":-25,"x_max":703,"o":"m -18 392 q -1 428 -14 401 q 18 468 13 454 q -18 532 -6 503 q 22 674 -25 615 q 133 713 69 733 q 189 628 183 697 q 168 507 194 558 q 210 518 189 510 l 214 524 l 221 524 l 226 525 q 228 524 228 525 q 229 521 228 522 q 327 476 272 511 q 389 407 382 440 q 366 357 379 385 q 346 314 353 329 q 330 279 339 299 q 317 249 321 260 q 309 226 313 239 q 305 205 306 213 q 306 188 304 197 q 311 173 307 179 q 322 160 315 167 q 389 160 343 140 q 496 247 435 179 q 606 415 557 314 l 703 356 q 646 244 682 301 q 558 126 610 186 q 435 29 506 67 q 289 -7 364 -8 q 119 126 161 -1 q 139 397 76 254 l 119 403 q 79 333 103 369 l -4 310 l -18 392 m 201 717 q 468 956 386 828 q 561 913 532 971 q 568 782 590 856 q 411 677 510 721 q 215 613 313 633 q 188 654 190 618 q 201 717 185 690 z "},"":{"ha":1308,"x_min":115,"x_max":1493,"o":"m 390 -212 q 216 -198 306 -240 q 115 -86 126 -156 q 551 357 382 103 q 413 422 465 374 q 408 532 360 471 q 511 572 449 572 q 651 536 574 571 q 743 907 733 721 q 950 879 839 944 q 799 446 929 736 l 818 428 q 1006 481 926 432 q 1116 597 1085 529 q 1130 742 1147 665 q 1043 872 1113 818 q 286 665 811 1053 q 201 725 236 678 q 171 842 167 772 q 350 922 278 892 q 547 992 422 953 q 767 1042 671 1031 q 982 1039 864 1053 q 1200 975 1100 1025 q 1312 881 1272 939 q 1355 758 1351 822 q 1330 626 1358 694 q 1247 501 1301 558 q 1108 399 1193 443 q 921 336 1022 354 q 1141 -44 981 168 q 1493 -401 1301 -257 q 1406 -477 1475 -435 q 1247 -514 1338 -519 q 1015 -202 1143 -437 q 772 325 888 33 l 742 326 q 390 -212 567 -28 m 476 -399 q 569 -317 533 -357 q 514 -250 535 -290 q 579 -157 533 -206 q 689 -75 625 -108 q 799 -218 772 -135 q 687 -364 767 -294 q 518 -481 607 -433 q 476 -399 463 -443 z "},"":{"ha":613,"x_min":-168,"x_max":703,"o":"m -18 392 q -1 428 -14 401 q 18 468 13 454 q -18 532 -6 503 q 22 674 -25 615 q 133 713 69 733 q 189 628 183 697 q 168 507 194 558 q 210 518 189 510 l 214 524 l 221 524 l 226 525 q 228 524 228 525 q 229 521 228 522 q 327 476 272 511 q 389 407 382 440 q 366 357 379 385 q 346 314 353 329 q 330 279 339 299 q 317 249 321 260 q 309 226 313 239 q 305 205 306 213 q 306 188 304 197 q 311 173 307 179 q 322 160 315 167 q 389 160 343 140 q 496 247 435 179 q 606 415 557 314 l 703 356 q 646 244 682 301 q 558 126 610 186 q 435 29 506 67 q 289 -7 364 -8 q 119 126 161 -1 q 139 397 76 254 l 119 403 q 79 333 103 369 l -4 310 l -18 392 m -154 -287 q -61 -206 -97 -246 q -117 -139 -96 -179 q -51 -46 -97 -94 q 58 36 -6 3 q 168 -107 142 -24 q 56 -252 136 -182 q -112 -369 -24 -322 q -154 -287 -168 -332 z "},"":{"ha":1308,"x_min":115,"x_max":1493,"o":"m 390 -212 q 216 -198 306 -240 q 115 -86 126 -156 q 551 357 382 103 q 413 422 465 374 q 408 532 360 471 q 511 572 449 572 q 651 536 574 571 q 743 907 733 721 q 950 879 839 944 q 799 446 929 736 l 818 428 q 1006 481 926 432 q 1116 597 1085 529 q 1130 742 1147 665 q 1043 872 1113 818 q 286 665 811 1053 q 201 725 236 678 q 171 842 167 772 q 275 889 232 869 q 386 936 318 908 q 509 981 454 964 q 635 1016 564 999 q 767 1040 706 1033 q 897 1047 828 1047 q 1031 1033 967 1046 q 1017 1049 1021 1040 q 992 1112 1014 1082 q 893 1214 971 1142 q 941 1283 908 1250 q 1014 1324 974 1317 q 1092 1164 1036 1272 q 1267 1325 1160 1232 q 1317 1269 1294 1306 q 1339 1193 1340 1233 q 1138 1003 1211 1108 q 1200 975 1158 994 q 1312 881 1272 939 q 1355 758 1351 822 q 1330 626 1358 694 q 1247 501 1301 558 q 1108 399 1193 443 q 921 336 1022 354 q 1141 -44 981 168 q 1493 -401 1301 -257 q 1406 -477 1475 -435 q 1247 -514 1338 -519 q 1015 -202 1143 -437 q 772 325 888 33 l 742 326 q 390 -212 567 -28 z "},"":{"ha":613,"x_min":-25,"x_max":703,"o":"m -18 392 q -1 428 -14 401 q 18 468 13 454 q -18 532 -6 503 q 22 674 -25 615 q 133 713 69 733 q 189 628 183 697 q 168 507 194 558 q 210 518 189 510 l 214 524 l 221 524 l 226 525 q 228 524 228 525 q 229 521 228 522 q 327 476 272 511 q 389 407 382 440 q 366 357 379 385 q 346 314 353 329 q 330 279 339 299 q 317 249 321 260 q 309 226 313 239 q 305 205 306 213 q 306 188 304 197 q 311 173 307 179 q 322 160 315 167 q 389 160 343 140 q 496 247 435 179 q 606 415 557 314 l 703 356 q 646 244 682 301 q 558 126 610 186 q 435 29 506 67 q 289 -7 364 -8 q 119 126 161 -1 q 139 397 76 254 l 119 403 q 79 333 103 369 l -4 310 l -18 392 m 129 814 q 177 883 144 850 q 250 924 210 917 q 328 764 272 872 q 503 925 396 832 q 553 869 531 906 q 575 793 576 833 q 371 599 444 706 q 253 649 269 614 q 228 712 250 682 q 129 814 207 742 z "},"":{"ha":1088,"x_min":-78,"x_max":1246,"o":"m 701 -228 q 574 -308 646 -279 q 429 -344 503 -337 q 281 -335 356 -350 q 143 -286 207 -319 q 28 -199 79 -253 q -50 -78 -22 -144 q -76 74 -78 -12 q -40 256 -75 161 q 99 283 24 289 q 233 246 175 278 q 165 4 128 149 q 292 -182 194 -111 q 506 -214 401 -262 q 590 -144 553 -193 q 646 -10 643 -78 q 623 112 649 58 q 558 256 597 165 q 504 429 519 347 q 508 598 488 515 q 576 744 529 681 q 688 855 622 807 q 823 925 753 903 q 965 942 893 947 q 1092 900 1036 938 q 1164 808 1151 861 q 1158 712 1176 756 q 1120 619 1139 668 q 1108 547 1101 571 q 1031 533 1085 535 q 922 550 976 532 q 854 603 868 568 q 899 679 868 643 q 956 733 931 715 q 997 774 981 750 q 996 813 1013 797 q 881 829 963 856 q 735 711 788 799 q 726 461 668 599 q 817 194 793 310 q 817 -34 842 78 q 701 -228 792 -146 m 857 1076 q 1124 1315 1042 1188 q 1217 1273 1188 1331 q 1224 1142 1246 1215 q 1067 1037 1165 1081 q 871 972 968 993 q 843 1014 846 978 q 857 1076 840 1050 z "},"":{"ha":497,"x_min":-267,"x_max":511,"o":"m 306 72 q 210 -22 282 4 q 51 -36 138 -49 q -122 8 -36 -24 q -267 81 -208 39 q -229 147 -256 119 q -182 181 -203 175 q -127 133 -175 157 q -19 110 -79 108 q 69 153 40 111 q 77 205 88 171 q 48 267 67 239 q 6 338 29 296 q -22 411 -17 379 q -12 544 -35 481 q 52 641 10 607 q 148 685 94 675 q 251 660 201 696 q 296 595 292 635 q 277 519 300 556 q 210 454 254 483 q 118 418 167 425 q 155 346 125 381 q 216 288 185 311 q 277 232 247 265 q 315 164 307 199 q 306 72 324 129 m 122 831 q 389 1069 307 942 q 482 1027 453 1085 q 489 896 511 969 q 332 791 431 835 q 136 726 233 747 q 108 768 111 732 q 122 831 106 804 z "},"":{"ha":1088,"x_min":-78,"x_max":1232,"o":"m 701 -228 q 574 -308 646 -279 q 429 -344 503 -337 q 281 -335 356 -350 q 143 -286 207 -319 q 28 -199 79 -253 q -50 -78 -22 -144 q -76 74 -78 -12 q -40 256 -75 161 q 99 283 24 289 q 233 246 175 278 q 165 4 128 149 q 292 -182 194 -111 q 506 -214 401 -262 q 590 -144 553 -193 q 646 -10 643 -78 q 623 112 649 58 q 558 256 597 165 q 504 429 519 347 q 583 752 471 608 q 856 933 694 896 q 788 1064 782 988 q 990 1258 918 1153 q 1110 1208 1093 1242 q 1131 1145 1110 1175 q 1232 1044 1153 1115 q 1183 974 1217 1007 q 1111 933 1150 940 q 1036 1093 1093 976 q 863 935 978 1036 q 1092 900 994 964 q 1164 808 1151 861 q 1158 712 1176 756 q 1120 619 1139 668 q 1108 547 1101 571 q 1031 533 1085 535 q 922 550 976 532 q 854 603 868 568 q 899 679 868 643 q 956 733 931 715 q 997 774 981 750 q 996 813 1013 797 q 881 829 963 856 q 735 711 788 799 q 726 461 668 599 q 817 194 793 310 q 817 -34 842 78 q 701 -228 792 -146 z "},"":{"ha":497,"x_min":-267,"x_max":497,"o":"m 306 72 q 210 -22 282 4 q 51 -36 138 -49 q -122 8 -36 -24 q -267 81 -208 39 q -229 147 -256 119 q -182 181 -203 175 q -127 133 -175 157 q -19 110 -79 108 q 69 153 40 111 q 77 205 88 171 q 48 267 67 239 q 6 338 29 296 q -22 411 -17 379 q -12 544 -35 481 q 52 641 10 607 q 148 685 94 675 q 251 660 201 696 q 296 595 292 635 q 277 519 300 556 q 210 454 254 483 q 118 418 167 425 q 155 346 125 381 q 216 288 185 311 q 277 232 247 265 q 315 164 307 199 q 306 72 324 129 m 53 818 q 256 1013 183 907 q 375 963 358 996 q 397 899 375 929 q 497 799 418 869 q 449 728 482 761 q 376 688 415 694 q 301 847 358 731 q 124 686 235 782 q 72 742 94 707 q 53 818 50 778 z "},"":{"ha":1088,"x_min":-146,"x_max":1176,"o":"m 701 -228 q 452 -341 599 -322 q 183 -304 306 -360 l 178 -310 q 324 -415 289 -332 q 293 -575 358 -497 q 82 -669 222 -658 q -143 -606 -58 -681 q -133 -562 -146 -586 q -97 -528 -121 -539 q 13 -544 -40 -554 q 99 -493 65 -535 q 93 -415 138 -442 q -46 -404 51 -390 l 4 -318 l 97 -258 q -22 -133 22 -207 q -76 40 -67 -60 q -40 256 -86 140 q 99 283 24 289 q 233 246 175 278 q 165 4 128 149 q 292 -182 194 -111 q 506 -214 401 -262 q 590 -144 553 -193 q 646 -10 643 -78 q 623 112 649 58 q 558 256 597 165 q 504 429 519 347 q 508 598 488 515 q 576 744 529 681 q 688 855 622 807 q 823 925 753 903 q 965 942 893 947 q 1092 900 1036 938 q 1164 808 1151 861 q 1158 712 1176 756 q 1120 619 1139 668 q 1108 547 1101 571 q 1031 533 1085 535 q 922 550 976 532 q 854 603 868 568 q 899 679 868 643 q 956 733 931 715 q 997 774 981 750 q 996 813 1013 797 q 881 829 963 856 q 735 711 788 799 q 726 461 668 599 q 817 194 793 310 q 817 -34 842 78 q 701 -228 792 -146 z "},"":{"ha":497,"x_min":-318,"x_max":324,"o":"m 306 72 q 200 -25 279 -1 q 15 -31 121 -49 l 6 -39 q 151 -144 117 -61 q 121 -304 186 -226 q -90 -399 50 -387 q -315 -335 -231 -410 q -306 -292 -318 -315 q -269 -257 -293 -268 q -160 -274 -212 -283 q -74 -222 -108 -264 q -59 -169 -56 -193 q -105 -133 -62 -144 q -218 -133 -147 -122 l -168 -47 l -99 -1 q -267 81 -194 29 q -229 147 -256 119 q -182 181 -203 175 q -127 133 -175 157 q -19 110 -79 108 q 69 153 40 111 q 77 205 88 171 q 48 267 67 239 q 6 338 29 296 q -22 411 -17 379 q -12 544 -35 481 q 52 641 10 607 q 148 685 94 675 q 251 660 201 696 q 296 595 292 635 q 277 519 300 556 q 210 454 254 483 q 118 418 167 425 q 155 346 125 381 q 216 288 185 311 q 277 232 247 265 q 315 164 307 199 q 306 72 324 129 z "},"":{"ha":1088,"x_min":-78,"x_max":1232,"o":"m 701 -228 q 574 -308 646 -279 q 429 -344 503 -337 q 281 -335 356 -350 q 143 -286 207 -319 q 28 -199 79 -253 q -50 -78 -22 -144 q -76 74 -78 -12 q -40 256 -75 161 q 99 283 24 289 q 233 246 175 278 q 165 4 128 149 q 292 -182 194 -111 q 506 -214 401 -262 q 590 -144 553 -193 q 646 -10 643 -78 q 623 112 649 58 q 558 256 597 165 q 504 429 519 347 q 508 598 488 515 q 576 744 529 681 q 688 855 622 807 q 823 925 753 903 q 965 942 893 947 q 1092 900 1036 938 q 1164 808 1151 861 q 1158 712 1176 756 q 1120 619 1139 668 q 1108 547 1101 571 q 1031 533 1085 535 q 922 550 976 532 q 854 603 868 568 q 899 679 868 643 q 956 733 931 715 q 997 774 981 750 q 996 813 1013 797 q 881 829 963 856 q 735 711 788 799 q 726 461 668 599 q 817 194 793 310 q 817 -34 842 78 q 701 -228 792 -146 m 785 1174 q 833 1243 800 1210 q 906 1283 865 1276 q 983 1124 928 1232 q 1158 1285 1051 1192 q 1209 1229 1186 1265 q 1231 1153 1232 1193 q 1026 958 1100 1065 q 908 1008 925 974 q 884 1072 906 1042 q 785 1174 863 1101 z "},"":{"ha":497,"x_min":-267,"x_max":497,"o":"m 306 72 q 210 -22 282 4 q 51 -36 138 -49 q -122 8 -36 -24 q -267 81 -208 39 q -229 147 -256 119 q -182 181 -203 175 q -127 133 -175 157 q -19 110 -79 108 q 69 153 40 111 q 77 205 88 171 q 48 267 67 239 q 6 338 29 296 q -22 411 -17 379 q -12 544 -35 481 q 52 641 10 607 q 148 685 94 675 q 251 660 201 696 q 296 595 292 635 q 277 519 300 556 q 210 454 254 483 q 118 418 167 425 q 155 346 125 381 q 216 288 185 311 q 277 232 247 265 q 315 164 307 199 q 306 72 324 129 m 50 928 q 98 997 65 964 q 171 1038 131 1031 q 249 878 193 986 q 424 1039 317 946 q 474 983 451 1019 q 496 907 497 947 q 292 713 365 819 q 174 763 190 728 q 149 826 171 796 q 50 928 128 856 z "},"":{"ha":1032,"x_min":13,"x_max":1585,"o":"m 494 -321 q 350 -332 428 -353 l 335 -344 q 481 -449 446 -367 q 450 -610 515 -532 q 239 -704 379 -693 q 15 -640 99 -715 q 24 -597 13 -621 q 60 -562 36 -574 q 169 -579 117 -589 q 256 -528 222 -569 q 251 -450 293 -478 q 113 -439 208 -425 l 161 -353 l 261 -289 q 225 -237 233 -265 q 532 306 314 -18 q 972 839 750 629 q 182 774 543 853 q 190 888 165 818 q 293 1032 214 957 q 1157 967 547 1090 q 1522 1003 1217 978 q 1531 753 1585 822 q 1144 828 1385 807 q 707 263 896 608 q 494 -321 518 -82 z "},"":{"ha":500,"x_min":-260,"x_max":913,"o":"m 158 -3 q 99 11 124 1 l 76 -8 q 222 -113 188 -31 q 192 -274 257 -196 q -19 -368 121 -357 q -244 -304 -160 -379 q -235 -261 -247 -285 q -199 -226 -222 -237 q -90 -243 -142 -253 q -3 -192 -37 -233 q -8 -114 36 -140 q -147 -103 -50 -89 l -97 -17 l 21 60 q -38 230 -36 119 q -1 464 -40 340 q 111 722 39 588 q -246 774 -175 743 q -256 785 -258 781 l -221 896 q 181 840 -106 843 q 322 1029 250 947 q 445 981 372 1035 q 521 888 518 926 l 494 857 q 817 956 721 888 q 886 883 860 942 q 897 778 913 824 q 374 711 740 708 q 247 533 300 617 q 163 386 193 450 q 122 274 133 322 q 120 194 111 225 q 154 151 129 164 q 319 194 218 121 q 493 419 421 267 l 590 360 q 531 246 569 307 q 436 124 492 185 q 306 26 381 63 q 158 -3 232 -11 z "},"":{"ha":1032,"x_min":165,"x_max":1585,"o":"m 494 -321 q 333 -328 421 -356 q 225 -237 244 -300 q 532 306 314 -18 q 972 839 750 629 q 182 774 543 853 q 190 888 165 818 q 293 1032 214 957 q 1082 982 528 1086 q 1049 1008 1056 994 q 1024 1072 1046 1042 q 925 1174 1003 1101 q 973 1243 940 1210 q 1046 1283 1006 1276 q 1124 1124 1068 1232 q 1299 1285 1192 1192 q 1349 1229 1326 1265 q 1371 1153 1372 1193 q 1175 969 1247 1069 q 1522 1003 1254 982 q 1531 753 1585 822 q 1144 828 1385 807 q 707 263 896 608 q 494 -321 518 -82 z "},"":{"ha":500,"x_min":-260,"x_max":913,"o":"m 158 -3 q 4 79 54 10 q -40 253 -46 149 q 4 476 -35 357 q 111 722 43 596 q -246 774 -175 743 q -256 785 -258 781 l -221 896 q 181 840 -106 843 q 322 1029 250 947 q 445 981 372 1035 q 521 888 518 926 l 494 857 q 554 867 538 863 q 567 1124 538 1001 q 642 1166 603 1150 q 740 1174 681 1182 q 850 1114 800 1165 q 786 1041 824 1103 q 725 910 749 979 q 817 956 779 928 q 886 883 860 942 q 897 778 913 824 q 374 711 740 708 q 247 533 300 617 q 163 386 193 450 q 122 274 133 322 q 120 194 111 225 q 154 151 129 164 q 319 194 218 121 q 493 419 421 267 l 590 360 q 531 246 569 307 q 436 124 492 185 q 306 26 381 63 q 158 -3 232 -11 z "},"":{"ha":1032,"x_min":165,"x_max":1585,"o":"m 494 -321 q 333 -328 421 -356 q 225 -237 244 -300 q 576 368 331 22 q 422 311 496 351 q 442 450 407 379 q 529 565 478 521 q 743 590 639 588 q 972 839 867 739 q 182 774 543 853 q 190 888 165 818 q 293 1032 214 957 q 1157 967 547 1090 q 1522 1003 1217 978 q 1531 753 1585 822 q 1144 828 1385 807 q 911 575 1026 725 q 1006 543 969 564 q 995 443 1007 481 q 953 357 983 406 q 781 388 886 383 q 585 7 661 197 q 494 -321 508 -183 z "},"":{"ha":500,"x_min":-260,"x_max":913,"o":"m 158 -3 q 8 74 58 10 q -40 234 -42 139 q -6 447 -37 329 q -139 394 -83 426 q -119 533 -154 463 q -32 649 -83 604 q 83 667 19 660 l 111 722 q -246 774 -175 743 q -256 785 -258 781 l -221 896 q 181 840 -106 843 q 322 1029 250 947 q 445 981 372 1035 q 521 888 518 926 l 494 857 q 817 956 721 888 q 886 883 860 942 q 897 778 913 824 q 374 711 740 708 l 336 661 q 444 626 399 651 q 434 526 446 564 q 392 440 422 489 q 208 471 321 469 q 134 315 157 382 q 117 207 111 247 q 154 151 124 167 q 319 194 218 121 q 493 419 421 267 l 590 360 q 531 246 569 307 q 436 124 492 185 q 306 26 381 63 q 158 -3 232 -11 z "},"":{"ha":1229,"x_min":-107,"x_max":1318,"o":"m -28 -50 q -97 40 -86 -14 q -76 158 -107 93 q 3 297 -46 224 q 111 456 53 371 q 218 626 169 542 q 293 806 267 710 q 307 988 319 903 q 538 942 474 1013 q 515 803 540 878 q 447 665 489 729 q 356 531 406 600 q 264 407 307 461 q 192 299 221 353 q 160 211 163 244 q 193 150 158 178 q 319 194 232 126 q 589 435 407 263 q 683 525 650 494 q 1049 1003 806 789 q 1133 958 1094 997 q 1192 869 1171 918 q 993 711 1079 803 q 864 533 907 619 q 803 365 821 446 q 797 228 785 285 q 842 153 808 172 q 1037 193 913 110 q 1222 418 1161 276 l 1318 356 q 1205 172 1275 253 q 1059 44 1135 90 q 906 -26 983 -3 q 764 -45 829 -50 q 657 -12 699 -40 q 597 100 611 18 q 606 297 582 182 q 485 181 540 232 q 369 80 429 129 q 256 -1 308 31 q 151 -53 203 -33 q 55 -73 100 -74 q -28 -50 10 -72 m 546 1113 q 640 1186 597 1158 q 708 1221 682 1214 q 756 1224 735 1228 q 787 1208 776 1221 q 806 1178 797 1194 q 817 1148 814 1163 q 825 1124 821 1133 q 833 1117 829 1115 q 894 1192 883 1136 q 975 1210 933 1207 q 1044 1187 1017 1214 q 1061 1110 1072 1160 q 906 993 993 1031 q 779 967 819 956 q 744 1001 757 971 q 729 1060 732 1032 q 725 1088 726 1088 q 693 1044 713 1086 q 674 969 674 1001 q 571 1002 611 943 q 546 1113 531 1061 z "},"":{"ha":850,"x_min":-62,"x_max":940,"o":"m 96 -3 q -22 73 18 8 q -60 222 -62 138 q -15 404 -58 307 q 104 574 28 501 q 216 517 156 568 q 279 429 276 465 q 129 251 174 328 q 122 154 85 175 q 233 201 160 133 q 381 408 307 269 q 453 528 404 469 q 549 489 478 529 q 628 411 621 449 q 549 231 554 254 q 561 164 536 189 q 628 164 582 144 q 735 251 674 183 q 843 419 796 318 l 940 360 q 883 248 919 306 q 796 131 847 190 q 674 33 744 71 q 528 -3 603 -4 q 412 42 457 0 q 350 156 367 85 q 96 -3 233 -21 m 147 743 q 241 817 199 789 q 310 851 283 844 q 357 855 336 858 q 388 838 378 851 q 407 809 399 825 q 419 778 415 793 q 426 755 422 764 q 435 747 431 746 q 496 822 485 767 q 576 841 535 838 q 646 817 618 844 q 663 740 674 790 q 508 624 594 661 q 381 597 421 586 q 346 632 358 601 q 331 690 333 663 q 326 718 328 718 q 294 674 314 717 q 275 600 275 632 q 172 633 213 574 q 147 743 132 692 z "}}}
